<?xml version="1.0" encoding="UTF-8" standalone="no"?><svg xmlns="http://www.w3.org/2000/svg" xmlns:xlink="http://www.w3.org/1999/xlink" contentScriptType="application/ecmascript" contentStyleType="text/css" height="667.5px" preserveAspectRatio="none" style="width:1099px;height:667px;" version="1.1" viewBox="0 0 1099 667" width="1099.5px" zoomAndPan="magnify"><defs><filter height="300%" id="fua5u97qxlg4b" width="300%" x="-1" y="-1"><feGaussianBlur result="blurOut" stdDeviation="3.0"/><feColorMatrix in="blurOut" result="blurOut2" type="matrix" values="0 0 0 0 0 0 0 0 0 0 0 0 0 0 0 0 0 0 .4 0"/><feOffset dx="6.0" dy="6.0" in="blurOut2" result="blurOut3"/><feBlend in="SourceGraphic" in2="blurOut3" mode="normal"/></filter></defs><g><line style="stroke: #A80036; stroke-width: 1.5; stroke-dasharray: 5.0,5.0;" x1="49.5" x2="49.5" y1="57.7324" y2="649.9248"/><line style="stroke: #A80036; stroke-width: 1.5; stroke-dasharray: 5.0,5.0;" x1="449.25" x2="449.25" y1="57.7324" y2="649.9248"/><line style="stroke: #A80036; stroke-width: 1.5; stroke-dasharray: 5.0,5.0;" x1="682.5" x2="682.5" y1="57.7324" y2="649.9248"/><line style="stroke: #A80036; stroke-width: 1.5; stroke-dasharray: 5.0,5.0;" x1="918" x2="918" y1="57.7324" y2="649.9248"/><line style="stroke: #A80036; stroke-width: 1.5; stroke-dasharray: 5.0,5.0;" x1="1035" x2="1035" y1="57.7324" y2="649.9248"/><rect fill="#FEFECE" filter="url(#fua5u97qxlg4b)" height="45.7324" style="stroke: #A80036; stroke-width: 2.25;" width="70.5" x="12" y="4.5"/><text fill="#000000" font-family="sans-serif" font-size="21" lengthAdjust="spacingAndGlyphs" textLength="49.5" x="22.5" y="35.3027">Main</text><rect fill="#FEFECE" filter="url(#fua5u97qxlg4b)" height="45.7324" style="stroke: #A80036; stroke-width: 2.25;" width="96" x="398.25" y="4.5"/><text fill="#000000" font-family="sans-serif" font-size="21" lengthAdjust="spacingAndGlyphs" textLength="75" x="408.75" y="35.3027">Factory</text><rect fill="#FEFECE" filter="url(#fua5u97qxlg4b)" height="45.7324" style="stroke: #A80036; stroke-width: 2.25;" width="166.5" x="597" y="4.5"/><text fill="#000000" font-family="sans-serif" font-size="21" lengthAdjust="spacingAndGlyphs" textLength="145.5" x="607.5" y="35.3027">IDCardFactory</text><rect fill="#FEFECE" filter="url(#fua5u97qxlg4b)" height="45.7324" style="stroke: #A80036; stroke-width: 2.25;" width="91.5" x="870" y="4.5"/><text fill="#000000" font-family="sans-serif" font-size="21" lengthAdjust="spacingAndGlyphs" textLength="70.5" x="880.5" y="35.3027">IDCard</text><rect fill="#FEFECE" filter="url(#fua5u97qxlg4b)" height="45.7324" style="stroke: #A80036; stroke-width: 2.25;" width="100.5" x="982.5" y="4.5"/><text fill="#000000" font-family="sans-serif" font-size="21" lengthAdjust="spacingAndGlyphs" textLength="79.5" x="993" y="35.3027">Product</text><polygon fill="#A80036" points="665.25,98.6982,680.25,104.6982,665.25,110.6982,671.25,104.6982" style="stroke: #A80036; stroke-width: 1.5;"/><line style="stroke: #A80036; stroke-width: 1.5;" x1="50.25" x2="674.25" y1="104.6982" y2="104.6982"/><text fill="#000000" font-family="sans-serif" font-size="19.5" lengthAdjust="spacingAndGlyphs" textLength="357" x="60.75" y="97.585">Factory factory = new IDCardFactory()</text><polygon fill="#A80036" points="66.75,119.6982,51.75,125.6982,66.75,131.6982,60.75,125.6982" style="stroke: #A80036; stroke-width: 1.5;"/><line style="stroke: #A80036; stroke-width: 1.5; stroke-dasharray: 2.0,2.0;" x1="57.75" x2="681.75" y1="125.6982" y2="125.6982"/><polygon fill="#A80036" points="431.25,163.6641,446.25,169.6641,431.25,175.6641,437.25,169.6641" style="stroke: #A80036; stroke-width: 1.5;"/><line style="stroke: #A80036; stroke-width: 1.5;" x1="50.25" x2="440.25" y1="169.6641" y2="169.6641"/><text fill="#000000" font-family="sans-serif" font-size="19.5" lengthAdjust="spacingAndGlyphs" textLength="363" x="60.75" y="162.5508">Product card1 = factory.create("홍길동")</text><polygon fill="#A80036" points="665.25,207.6299,680.25,213.6299,665.25,219.6299,671.25,213.6299" style="stroke: #A80036; stroke-width: 1.5;"/><line style="stroke: #A80036; stroke-width: 1.5;" x1="449.25" x2="674.25" y1="213.6299" y2="213.6299"/><text fill="#000000" font-family="sans-serif" font-size="19.5" lengthAdjust="spacingAndGlyphs" textLength="198" x="459.75" y="206.5166">createProduct(owner)</text><polygon fill="#A80036" points="900.75,251.5957,915.75,257.5957,900.75,263.5957,906.75,257.5957" style="stroke: #A80036; stroke-width: 1.5;"/><line style="stroke: #A80036; stroke-width: 1.5;" x1="683.25" x2="909.75" y1="257.5957" y2="257.5957"/><text fill="#000000" font-family="sans-serif" font-size="19.5" lengthAdjust="spacingAndGlyphs" textLength="177" x="693.75" y="250.4824">new IDCard(owner)</text><polygon fill="#A80036" points="699.75,295.5615,684.75,301.5615,699.75,307.5615,693.75,301.5615" style="stroke: #A80036; stroke-width: 1.5;"/><line style="stroke: #A80036; stroke-width: 1.5; stroke-dasharray: 2.0,2.0;" x1="690.75" x2="917.25" y1="301.5615" y2="301.5615"/><text fill="#000000" font-family="sans-serif" font-size="19.5" lengthAdjust="spacingAndGlyphs" textLength="199.5" x="708.75" y="294.4482">홍길동의 카드를 만듭니다.</text><polygon fill="#A80036" points="465.75,316.5615,450.75,322.5615,465.75,328.5615,459.75,322.5615" style="stroke: #A80036; stroke-width: 1.5;"/><line style="stroke: #A80036; stroke-width: 1.5; stroke-dasharray: 2.0,2.0;" x1="456.75" x2="681.75" y1="322.5615" y2="322.5615"/><polygon fill="#A80036" points="665.25,360.5273,680.25,366.5273,665.25,372.5273,671.25,366.5273" style="stroke: #A80036; stroke-width: 1.5;"/><line style="stroke: #A80036; stroke-width: 1.5;" x1="449.25" x2="674.25" y1="366.5273" y2="366.5273"/><text fill="#000000" font-family="sans-serif" font-size="19.5" lengthAdjust="spacingAndGlyphs" textLength="168" x="459.75" y="359.4141">registerProduct(p)</text><polygon fill="#A80036" points="900.75,404.4932,915.75,410.4932,900.75,416.4932,906.75,410.4932" style="stroke: #A80036; stroke-width: 1.5;"/><line style="stroke: #A80036; stroke-width: 1.5;" x1="683.25" x2="909.75" y1="410.4932" y2="410.4932"/><text fill="#000000" font-family="sans-serif" font-size="19.5" lengthAdjust="spacingAndGlyphs" textLength="102" x="693.75" y="403.3799">getOwner()</text><polygon fill="#A80036" points="699.75,425.4932,684.75,431.4932,699.75,437.4932,693.75,431.4932" style="stroke: #A80036; stroke-width: 1.5;"/><line style="stroke: #A80036; stroke-width: 1.5; stroke-dasharray: 2.0,2.0;" x1="690.75" x2="917.25" y1="431.4932" y2="431.4932"/><line style="stroke: #A80036; stroke-width: 1.5;" x1="683.25" x2="746.25" y1="475.459" y2="475.459"/><line style="stroke: #A80036; stroke-width: 1.5;" x1="746.25" x2="746.25" y1="475.459" y2="494.959"/><line style="stroke: #A80036; stroke-width: 1.5;" x1="684.75" x2="746.25" y1="494.959" y2="494.959"/><polygon fill="#A80036" points="699.75,488.959,684.75,494.959,699.75,500.959,693.75,494.959" style="stroke: #A80036; stroke-width: 1.5;"/><text fill="#000000" font-family="sans-serif" font-size="19.5" lengthAdjust="spacingAndGlyphs" textLength="120" x="693.75" y="468.3457">owners.add()</text><polygon fill="#A80036" points="1017.75,509.959,1032.75,515.959,1017.75,521.959,1023.75,515.959" style="stroke: #A80036; stroke-width: 1.5;"/><line style="stroke: #A80036; stroke-width: 1.5;" x1="449.25" x2="1026.75" y1="515.959" y2="515.959"/><polygon fill="#A80036" points="465.75,530.959,450.75,536.959,465.75,542.959,459.75,536.959" style="stroke: #A80036; stroke-width: 1.5;"/><line style="stroke: #A80036; stroke-width: 1.5; stroke-dasharray: 2.0,2.0;" x1="456.75" x2="1034.25" y1="536.959" y2="536.959"/><polygon fill="#A80036" points="66.75,551.959,51.75,557.959,66.75,563.959,60.75,557.959" style="stroke: #A80036; stroke-width: 1.5;"/><line style="stroke: #A80036; stroke-width: 1.5; stroke-dasharray: 2.0,2.0;" x1="57.75" x2="447.75" y1="557.959" y2="557.959"/><polygon fill="#A80036" points="900.75,595.9248,915.75,601.9248,900.75,607.9248,906.75,601.9248" style="stroke: #A80036; stroke-width: 1.5;"/><line style="stroke: #A80036; stroke-width: 1.5;" x1="50.25" x2="909.75" y1="601.9248" y2="601.9248"/><text fill="#000000" font-family="sans-serif" font-size="19.5" lengthAdjust="spacingAndGlyphs" textLength="52.5" x="60.75" y="594.8115">user()</text><polygon fill="#A80036" points="66.75,616.9248,51.75,622.9248,66.75,628.9248,60.75,622.9248" style="stroke: #A80036; stroke-width: 1.5;"/><line style="stroke: #A80036; stroke-width: 1.5; stroke-dasharray: 2.0,2.0;" x1="57.75" x2="917.25" y1="622.9248" y2="622.9248"/><!--MD5=[0d4c80098cb26fe82dca98690b1f5638]
@startuml Factory_Method_Pattern_Sequence
hide footbox
scale 1.5

participant "Main" as main
participant "Factory" as fac
participant "IDCardFactory" as idcf
participant "IDCard" as idc
participant "Product" as pro

main->idcf : Factory factory = new IDCardFactory()
main<- -idcf

main->fac : Product card1 = factory.create("홍길동")
fac->idcf : createProduct(owner)
idcf->idc : new IDCard(owner)
idcf<- -idc : 홍길동의 카드를 만듭니다.
fac<- -idcf

fac->idcf : registerProduct(p)
idcf->idc : getOwner()
idcf<- -idc
idcf->idcf : owners.add()

fac->pro
fac<- -pro
main<- -fac

main->idc : user()
main<- -idc

@enduml

PlantUML version 1.2020.09(Sun May 10 19:51:06 KST 2020)
(GPL source distribution)
Java Runtime: OpenJDK Runtime Environment
JVM: OpenJDK 64-Bit Server VM
Java Version: 11.0.7+10-b765.64
Operating System: Mac OS X
Default Encoding: UTF-8
Language: ko
Country: KR
--></g></svg>