<?xml version="1.0" encoding="UTF-8" standalone="no"?><svg xmlns="http://www.w3.org/2000/svg" xmlns:xlink="http://www.w3.org/1999/xlink" contentScriptType="application/ecmascript" contentStyleType="text/css" height="795px" preserveAspectRatio="none" style="width:1434px;height:795px;" version="1.1" viewBox="0 0 1434 795" width="1434px" zoomAndPan="magnify"><defs><filter height="300%" id="fh5qr6p45t2mp" width="300%" x="-1" y="-1"><feGaussianBlur result="blurOut" stdDeviation="3.0"/><feColorMatrix in="blurOut" result="blurOut2" type="matrix" values="0 0 0 0 0 0 0 0 0 0 0 0 0 0 0 0 0 0 .4 0"/><feOffset dx="6.0" dy="6.0" in="blurOut2" result="blurOut3"/><feBlend in="SourceGraphic" in2="blurOut3" mode="normal"/></filter></defs><g><!--MD5=[b6fb9d35cc7b548bdc5c5c79bf7d651a]
cluster junit--><polygon fill="#FFFFFF" filter="url(#fh5qr6p45t2mp)" points="33,469.5,93,469.5,103.5,503.2324,406.5,503.2324,406.5,600,33,600,33,469.5" style="stroke: #000000; stroke-width: 2.25;"/><line style="stroke: #000000; stroke-width: 2.25;" x1="33" x2="103.5" y1="503.2324" y2="503.2324"/><text fill="#000000" font-family="sans-serif" font-size="21" font-weight="bold" lengthAdjust="spacingAndGlyphs" textLength="51" x="39" y="492.8027">junit</text><!--MD5=[33c974a6f12e58b9483c10a3e3a03bdf]
cluster design.factory.framework--><polygon fill="#FFFFFF" filter="url(#fh5qr6p45t2mp)" points="519,36,801,36,811.5,69.7324,1366.5,69.7324,1366.5,372,519,372,519,36" style="stroke: #000000; stroke-width: 2.25;"/><line style="stroke: #000000; stroke-width: 2.25;" x1="519" x2="811.5" y1="69.7324" y2="69.7324"/><text fill="#000000" font-family="sans-serif" font-size="21" font-weight="bold" lengthAdjust="spacingAndGlyphs" textLength="273" x="525" y="59.3027">design.factory.framework</text><!--MD5=[a7ec45f8c7a8c49c5a1d806f06ea0a0f]
cluster design.factory.idcard--><polygon fill="#FFFFFF" filter="url(#fh5qr6p45t2mp)" points="442.5,421.5,673.5,421.5,684,455.2324,1401,455.2324,1401,777,442.5,777,442.5,421.5" style="stroke: #000000; stroke-width: 2.25;"/><line style="stroke: #000000; stroke-width: 2.25;" x1="442.5" x2="684" y1="455.2324" y2="455.2324"/><text fill="#000000" font-family="sans-serif" font-size="21" font-weight="bold" lengthAdjust="spacingAndGlyphs" textLength="222" x="448.5" y="444.8027">design.factory.idcard</text><!--MD5=[2456f3a6f5aa4d75f9c9b6fd42c52dfa]
entity Main--><rect fill="#FEFECE" filter="url(#fh5qr6p45t2mp)" height="54.7324" style="stroke: #000000; stroke-width: 2.25;" width="79.5" x="302.25" y="522"/><text fill="#000000" font-family="sans-serif" font-size="21" lengthAdjust="spacingAndGlyphs" textLength="49.5" x="317.25" y="557.3027">Main</text><path d="M57,530.25 L57,568.2158 A0,0 0 0 0 57,568.2158 L249,568.2158 A0,0 0 0 0 249,568.2158 L249,557.25 L301.62,549 L249,545.25 L249,545.25 L234,530.25 L57,530.25 A0,0 0 0 0 57,530.25 " fill="#FBFB77" filter="url(#fh5qr6p45t2mp)" style="stroke: #A80036; stroke-width: 1.5;"/><path d="M234,530.25 L234,545.25 L249,545.25 L234,530.25 " fill="#FBFB77" style="stroke: #A80036; stroke-width: 1.5;"/><text fill="#000000" font-family="sans-serif" font-size="19.5" lengthAdjust="spacingAndGlyphs" textLength="160.5" x="66" y="556.6025">동작 테스트용 클래스</text><!--MD5=[72136138052d025cffdce3c22fbd185f]
class Product--><rect fill="#FEFECE" filter="url(#fh5qr6p45t2mp)" height="91.4326" id="Product" style="stroke: #A80036; stroke-width: 2.25;" width="130.5" x="1086.75" y="237"/><ellipse cx="1109.25" cy="261" fill="#A9DCDF" rx="16.5" ry="16.5" style="stroke: #A80036; stroke-width: 1.5;"/><path d="M1109.4199,254.3972 L1107.6892,262.0049 L1111.1631,262.0049 Z M1107.1787,251.0354 L1111.6736,251.0354 L1116.6914,269.625 L1113.0183,269.625 L1111.8728,265.0305 L1106.9546,265.0305 L1105.834,269.625 L1102.1609,269.625 Z "/><ellipse cx="1137.75" cy="260.25" fill="#84BE84" rx="4.5" ry="4.5" style="stroke: #038048; stroke-width: 1.5;"/><text fill="#000000" font-family="sans-serif" font-size="18" font-style="italic" lengthAdjust="spacingAndGlyphs" textLength="66" x="1146.75" y="267.8027">Product</text><line style="stroke: #A80036; stroke-width: 2.25;" x1="1088.25" x2="1215.75" y1="285" y2="285"/><line style="stroke: #A80036; stroke-width: 2.25;" x1="1088.25" x2="1215.75" y1="297" y2="297"/><ellipse cx="1103.25" cy="313.5" fill="#84BE84" rx="4.5" ry="4.5" style="stroke: #038048; stroke-width: 1.5;"/><text fill="#000000" font-family="sans-serif" font-size="16.5" font-style="italic" lengthAdjust="spacingAndGlyphs" textLength="79.5" x="1116.75" y="318.9521">void use()</text><path d="M961.5,88.5 L961.5,126.4658 A0,0 0 0 0 961.5,126.4658 L1146,126.4658 L1152,236.925 L1158,126.4658 L1342.5,126.4658 A0,0 0 0 0 1342.5,126.4658 L1342.5,103.5 L1327.5,88.5 L961.5,88.5 A0,0 0 0 0 961.5,88.5 " fill="#FBFB77" filter="url(#fh5qr6p45t2mp)" style="stroke: #A80036; stroke-width: 1.5;"/><path d="M1327.5,88.5 L1327.5,103.5 L1342.5,103.5 L1327.5,88.5 " fill="#FBFB77" style="stroke: #A80036; stroke-width: 1.5;"/><text fill="#000000" font-family="sans-serif" font-size="19.5" lengthAdjust="spacingAndGlyphs" textLength="349.5" x="970.5" y="114.8525">추상 메소드 use만 정의되어 있는 추상 클래스</text><!--MD5=[dcda66dabdb739ec36f1175150e3c9d5]
class Factory--><rect fill="#FEFECE" filter="url(#fh5qr6p45t2mp)" height="130.2979" id="Factory" style="stroke: #A80036; stroke-width: 2.25;" width="348" x="552" y="217.5"/><ellipse cx="680.625" cy="241.5" fill="#A9DCDF" rx="16.5" ry="16.5" style="stroke: #A80036; stroke-width: 1.5;"/><path d="M680.7949,234.8972 L679.0642,242.5049 L682.5381,242.5049 Z M678.5537,231.5354 L683.0486,231.5354 L688.0664,250.125 L684.3933,250.125 L683.2478,245.5305 L678.3296,245.5305 L677.209,250.125 L673.5359,250.125 Z "/><ellipse cx="718.875" cy="240.75" fill="#84BE84" rx="4.5" ry="4.5" style="stroke: #038048; stroke-width: 1.5;"/><text fill="#000000" font-family="sans-serif" font-size="18" font-style="italic" lengthAdjust="spacingAndGlyphs" textLength="61.5" x="727.875" y="248.3027">Factory</text><line style="stroke: #A80036; stroke-width: 2.25;" x1="553.5" x2="898.5" y1="265.5" y2="265.5"/><line style="stroke: #A80036; stroke-width: 2.25;" x1="553.5" x2="898.5" y1="277.5" y2="277.5"/><ellipse cx="568.5" cy="294" fill="#84BE84" rx="4.5" ry="4.5" style="stroke: #038048; stroke-width: 1.5;"/><text fill="#000000" font-family="sans-serif" font-size="16.5" lengthAdjust="spacingAndGlyphs" textLength="270" x="582" y="299.4521">final Product create(String owner)</text><polygon fill="#FFFF44" points="568.5,305.9326,574.5,311.9326,568.5,317.9326,562.5,311.9326" style="stroke: #B38D22; stroke-width: 1.5;"/><text fill="#000000" font-family="sans-serif" font-size="16.5" font-style="italic" lengthAdjust="spacingAndGlyphs" textLength="294" x="582" y="318.8848">Product createProduct(String owner)</text><polygon fill="#FFFF44" points="568.5,325.3652,574.5,331.3652,568.5,337.3652,562.5,331.3652" style="stroke: #B38D22; stroke-width: 1.5;"/><text fill="#000000" font-family="sans-serif" font-size="16.5" font-style="italic" lengthAdjust="spacingAndGlyphs" textLength="309" x="582" y="338.3174">void registerProduct(Product product)</text><path d="M543,88.5 L543,126.4658 A0,0 0 0 0 543,126.4658 L720,126.4658 L726,217.305 L732,126.4658 L909,126.4658 A0,0 0 0 0 909,126.4658 L909,103.5 L894,88.5 L543,88.5 A0,0 0 0 0 543,88.5 " fill="#FBFB77" filter="url(#fh5qr6p45t2mp)" style="stroke: #A80036; stroke-width: 1.5;"/><path d="M894,88.5 L894,103.5 L909,103.5 L894,88.5 " fill="#FBFB77" style="stroke: #A80036; stroke-width: 1.5;"/><text fill="#000000" font-family="sans-serif" font-size="19.5" lengthAdjust="spacingAndGlyphs" textLength="334.5" x="552" y="114.8525">메소드 create을 구현하고 있는 추상 클래스</text><!--MD5=[2c24eef9ca1bb4a795612d4a6dc6afc4]
class IDCard--><rect fill="#FEFECE" filter="url(#fh5qr6p45t2mp)" height="149.7305" id="IDCard" style="stroke: #A80036; stroke-width: 2.25;" width="271.5" x="1028.25" y="474"/><ellipse cx="1050.75" cy="498" fill="#ADD1B2" rx="16.5" ry="16.5" style="stroke: #A80036; stroke-width: 1.5;"/><path d="M1054.4597,507.2146 Q1053.5881,507.6628 1052.6294,507.887 Q1051.6707,508.1111 1050.6123,508.1111 Q1046.8521,508.1111 1044.8723,505.6333 Q1042.8926,503.1555 1042.8926,498.4739 Q1042.8926,493.7798 1044.8723,491.302 Q1046.8521,488.8242 1050.6123,488.8242 Q1051.6707,488.8242 1052.6418,489.0483 Q1053.613,489.2725 1054.4597,489.7207 L1054.4597,493.8047 Q1053.5134,492.9331 1052.6232,492.5284 Q1051.7329,492.1238 1050.7866,492.1238 Q1048.7695,492.1238 1047.7423,493.7238 Q1046.7151,495.3237 1046.7151,498.4739 Q1046.7151,501.6116 1047.7423,503.2115 Q1048.7695,504.8115 1050.7866,504.8115 Q1051.7329,504.8115 1052.6232,504.4069 Q1053.5134,504.0022 1054.4597,503.1306 Z "/><ellipse cx="1079.25" cy="497.25" fill="#84BE84" rx="4.5" ry="4.5" style="stroke: #038048; stroke-width: 1.5;"/><text fill="#000000" font-family="sans-serif" font-size="18" lengthAdjust="spacingAndGlyphs" textLength="60" x="1088.25" y="504.8027">IDCard</text><rect fill="#FFFFFF" height="24.1992" style="stroke: #000000; stroke-width: 1.5; stroke-dasharray: 2.0,2.0;" width="144" x="1160.25" y="469.5"/><text fill="#000000" font-family="sans-serif" font-size="18" font-style="italic" lengthAdjust="spacingAndGlyphs" textLength="141" x="1161.75" y="488.4023">extends Product</text><line style="stroke: #A80036; stroke-width: 2.25;" x1="1029.75" x2="1298.25" y1="522" y2="522"/><rect fill="none" height="9" style="stroke: #C82930; stroke-width: 1.5;" width="9" x="1040.25" y="534"/><text fill="#000000" font-family="sans-serif" font-size="16.5" lengthAdjust="spacingAndGlyphs" textLength="102" x="1058.25" y="543.9521">String owner</text><text fill="#000000" font-family="sans-serif" font-size="16.5" lengthAdjust="spacingAndGlyphs" textLength="169.5" x="1058.25" y="563.3848">IDCard(String owner)</text><line style="stroke: #A80036; stroke-width: 2.25;" x1="1029.75" x2="1298.25" y1="572.8652" y2="572.8652"/><ellipse cx="1044.75" cy="589.3652" fill="#84BE84" rx="4.5" ry="4.5" style="stroke: #038048; stroke-width: 1.5;"/><text fill="#000000" font-family="sans-serif" font-size="16.5" lengthAdjust="spacingAndGlyphs" textLength="79.5" x="1058.25" y="594.8174">void use()</text><ellipse cx="1044.75" cy="608.7979" fill="#84BE84" rx="4.5" ry="4.5" style="stroke: #038048; stroke-width: 1.5;"/><text fill="#000000" font-family="sans-serif" font-size="16.5" lengthAdjust="spacingAndGlyphs" textLength="142.5" x="1058.25" y="614.25">String getOwner()</text><path d="M1074,715.5 L1074,753.4658 A0,0 0 0 0 1074,753.4658 L1377,753.4658 A0,0 0 0 0 1377,753.4658 L1377,730.5 L1362,715.5 L1225.455,715.5 L1188.84,624.105 L1213.455,715.5 L1074,715.5 A0,0 0 0 0 1074,715.5 " fill="#FBFB77" filter="url(#fh5qr6p45t2mp)" style="stroke: #A80036; stroke-width: 1.5;"/><path d="M1362,715.5 L1362,730.5 L1377,730.5 L1362,715.5 " fill="#FBFB77" style="stroke: #A80036; stroke-width: 1.5;"/><text fill="#000000" font-family="sans-serif" font-size="19.5" lengthAdjust="spacingAndGlyphs" textLength="271.5" x="1083" y="741.8525">메소드 use를 구현하고 있는 클래스</text><!--MD5=[54e098888c123a1ddbb44696504d5304]
class IDCardFactory--><rect fill="#FEFECE" filter="url(#fh5qr6p45t2mp)" height="149.7305" id="IDCardFactory" style="stroke: #A80036; stroke-width: 2.25;" width="348" x="535.5" y="474"/><ellipse cx="566.775" cy="498" fill="#ADD1B2" rx="16.5" ry="16.5" style="stroke: #A80036; stroke-width: 1.5;"/><path d="M570.4847,507.2146 Q569.6131,507.6628 568.6544,507.887 Q567.6957,508.1111 566.6373,508.1111 Q562.8771,508.1111 560.8973,505.6333 Q558.9176,503.1555 558.9176,498.4739 Q558.9176,493.7798 560.8973,491.302 Q562.8771,488.8242 566.6373,488.8242 Q567.6957,488.8242 568.6668,489.0483 Q569.638,489.2725 570.4847,489.7207 L570.4847,493.8047 Q569.5384,492.9331 568.6482,492.5284 Q567.7579,492.1238 566.8116,492.1238 Q564.7945,492.1238 563.7673,493.7238 Q562.7401,495.3237 562.7401,498.4739 Q562.7401,501.6116 563.7673,503.2115 Q564.7945,504.8115 566.8116,504.8115 Q567.7579,504.8115 568.6482,504.4069 Q569.5384,504.0022 570.4847,503.1306 Z "/><ellipse cx="597.225" cy="497.25" fill="#84BE84" rx="4.5" ry="4.5" style="stroke: #038048; stroke-width: 1.5;"/><text fill="#000000" font-family="sans-serif" font-size="18" lengthAdjust="spacingAndGlyphs" textLength="121.5" x="606.225" y="504.8027">IDCardFactory</text><rect fill="#FFFFFF" height="24.1992" style="stroke: #000000; stroke-width: 1.5; stroke-dasharray: 2.0,2.0;" width="139.5" x="748.5" y="469.5"/><text fill="#000000" font-family="sans-serif" font-size="18" font-style="italic" lengthAdjust="spacingAndGlyphs" textLength="136.5" x="750" y="488.4023">extends Factory</text><line style="stroke: #A80036; stroke-width: 2.25;" x1="537" x2="882" y1="522" y2="522"/><rect fill="none" height="9" style="stroke: #C82930; stroke-width: 1.5;" width="9" x="547.5" y="534"/><text fill="#000000" font-family="sans-serif" font-size="16.5" lengthAdjust="spacingAndGlyphs" textLength="91.5" x="565.5" y="543.9521">List owners</text><line style="stroke: #A80036; stroke-width: 2.25;" x1="537" x2="882" y1="553.4326" y2="553.4326"/><polygon fill="#FFFF44" points="552,562.4326,558,568.4326,552,574.4326,546,568.4326" style="stroke: #B38D22; stroke-width: 1.5;"/><text fill="#000000" font-family="sans-serif" font-size="16.5" lengthAdjust="spacingAndGlyphs" textLength="294" x="565.5" y="575.3848">Product createProduct(String owner)</text><polygon fill="#FFFF44" points="552,581.8652,558,587.8652,552,593.8652,546,587.8652" style="stroke: #B38D22; stroke-width: 1.5;"/><text fill="#000000" font-family="sans-serif" font-size="16.5" lengthAdjust="spacingAndGlyphs" textLength="309" x="565.5" y="594.8174">void registerProduct(Product product)</text><ellipse cx="552" cy="608.7979" fill="#84BE84" rx="4.5" ry="4.5" style="stroke: #038048; stroke-width: 1.5;"/><text fill="#000000" font-family="sans-serif" font-size="16.5" lengthAdjust="spacingAndGlyphs" textLength="132" x="565.5" y="614.25">List getOwners()</text><path d="M466.5,715.5 L466.5,753.4658 A0,0 0 0 0 466.5,753.4658 L1021.5,753.4658 A0,0 0 0 0 1021.5,753.4658 L1021.5,730.5 L1006.5,715.5 L746.61,715.5 L723.435,624.105 L734.61,715.5 L466.5,715.5 A0,0 0 0 0 466.5,715.5 " fill="#FBFB77" filter="url(#fh5qr6p45t2mp)" style="stroke: #A80036; stroke-width: 1.5;"/><path d="M1006.5,715.5 L1006.5,730.5 L1021.5,730.5 L1006.5,715.5 " fill="#FBFB77" style="stroke: #A80036; stroke-width: 1.5;"/><text fill="#000000" font-family="sans-serif" font-size="19.5" lengthAdjust="spacingAndGlyphs" textLength="523.5" x="475.5" y="741.8525">메소드 createProduct, registerProduct를 구현하고 있는 클래스</text><!--MD5=[3af7283734ef8863d86ec2b51d968fa0]
link Main to IDCardFactory--><path d="M382.035,549 C417.675,549 472.485,549 527.145,549 " fill="none" id="Main-&gt;IDCardFactory" style="stroke: #A80036; stroke-width: 1.5;"/><polygon fill="#A80036" points="535.2,549,521.7,543,527.7,549,521.7,555,535.2,549" style="stroke: #A80036; stroke-width: 1.5;"/><text fill="#000000" font-family="sans-serif" font-size="19.5" lengthAdjust="spacingAndGlyphs" textLength="45" x="426.375" y="573.8525">Uses</text><polygon fill="#000000" points="475.875,564.2329,484.875,568.7329,475.875,573.2329,475.875,564.2329" style="stroke: #000000; stroke-width: 1.5;"/><!--MD5=[58e416710038468e5578e125f90b5053]
reverse link Factory to IDCardFactory--><path d="M721.485,356.325 C719.19,392.895 716.415,437.235 714.105,474 " fill="none" id="Factory&lt;-IDCardFactory" style="stroke: #A80036; stroke-width: 1.5;"/><polygon fill="#A80036" points="721.965,348.645,715.1276,361.7408,721.4932,356.1301,727.1038,362.4957,721.965,348.645" style="stroke: #A80036; stroke-width: 1.5;"/><!--MD5=[dbb68f81b69ed49e7f7fe294aea2f42e]
link IDCardFactory to IDCard--><path d="M883.92,549 C928.935,549 976.875,549 1020.135,549 " fill="none" id="IDCardFactory-&gt;IDCard" style="stroke: #A80036; stroke-width: 1.5;"/><polygon fill="#A80036" points="1028.16,549,1014.66,543,1020.66,549,1014.66,555,1028.16,549" style="stroke: #A80036; stroke-width: 1.5;"/><text fill="#000000" font-family="sans-serif" font-size="19.5" lengthAdjust="spacingAndGlyphs" textLength="70.5" x="910.875" y="539.3525">Creates</text><polygon fill="#000000" points="985.875,529.7329,994.875,534.2329,985.875,538.7329,985.875,529.7329" style="stroke: #000000; stroke-width: 1.5;"/><!--MD5=[17d6d022d25b0e9bc9752353f3576132]
link Factory to Product--><path d="M900.495,282.75 C962.88,282.75 1029.81,282.75 1078.935,282.75 " fill="none" id="Factory-&gt;Product" style="stroke: #A80036; stroke-width: 1.5;"/><polygon fill="#A80036" points="1086.66,282.75,1073.16,276.75,1079.16,282.75,1073.16,288.75,1086.66,282.75" style="stroke: #A80036; stroke-width: 1.5;"/><text fill="#000000" font-family="sans-serif" font-size="19.5" lengthAdjust="spacingAndGlyphs" textLength="70.5" x="948.375" y="273.1025">Creates</text><polygon fill="#000000" points="1023.375,263.4829,1032.375,267.9829,1023.375,272.4829,1023.375,263.4829" style="stroke: #000000; stroke-width: 1.5;"/><!--MD5=[43f211295a331e79a20d55a18fc7eedd]
reverse link Product to IDCard--><path d="M1154.385,336.555 C1156.17,375.795 1158.645,430.05 1160.64,473.7 " fill="none" id="Product&lt;-IDCard" style="stroke: #A80036; stroke-width: 1.5;"/><polygon fill="#A80036" points="1154.04,328.905,1148.6646,342.6656,1154.3835,336.3971,1160.652,342.1161,1154.04,328.905" style="stroke: #A80036; stroke-width: 1.5;"/><!--MD5=[6cbd29ab5e7fdcbdb8bf148545748224]
@startuml Template_Method_Pattern
scale 1.5
allowmixing

package junit {
    rectangle Main
    note left of Main
        동작 테스트용 클래스
    end note
}

package design.factory.framework {
    +abstract class Product {
        +{abstract}void use()
    }
    note top of Product
        추상 메소드 use만 정의되어 있는 추상 클래스
    end note


    +abstract class Factory {
        +final Product create(String owner)
        #{abstract}Product createProduct(String owner)
        #{abstract}void registerProduct(Product product)
    }
    note top of Factory
        메소드 create을 구현하고 있는 추상 클래스
    end note
}

package design.factory.idcard {
    +class IDCard <extends Product> {
        -String owner
        {field} IDCard(String owner)
        +void use()
        +String getOwner()
    }
    note bottom of IDCard
        메소드 use를 구현하고 있는 클래스
    end note

    +class IDCardFactory <extends Factory> {
        -List owners
        #Product createProduct(String owner)
        #void registerProduct(Product product)
        +List getOwners()
    }
    note bottom of IDCardFactory
        메소드 createProduct, registerProduct를 구현하고 있는 클래스
    end note
}

Main -right-> IDCardFactory : Uses >
IDCardFactory -up-> Factory
IDCardFactory -right-> IDCard : Creates >
Factory -right-> Product : Creates >
IDCard -up-> Product
@enduml

PlantUML version 1.2020.09(Sun May 10 19:51:06 KST 2020)
(GPL source distribution)
Java Runtime: OpenJDK Runtime Environment
JVM: OpenJDK 64-Bit Server VM
Java Version: 11.0.7+10-b765.64
Operating System: Mac OS X
Default Encoding: UTF-8
Language: ko
Country: KR
--></g></svg>