<?xml version="1.0" encoding="UTF-8" standalone="no"?><svg xmlns="http://www.w3.org/2000/svg" xmlns:xlink="http://www.w3.org/1999/xlink" contentScriptType="application/ecmascript" contentStyleType="text/css" height="882px" preserveAspectRatio="none" style="width:1780px;height:882px;" version="1.1" viewBox="0 0 1780 882" width="1780.5px" zoomAndPan="magnify"><defs><filter height="300%" id="f19ejl2pi2h4rr" width="300%" x="-1" y="-1"><feGaussianBlur result="blurOut" stdDeviation="3.0"/><feColorMatrix in="blurOut" result="blurOut2" type="matrix" values="0 0 0 0 0 0 0 0 0 0 0 0 0 0 0 0 0 0 .4 0"/><feOffset dx="6.0" dy="6.0" in="blurOut2" result="blurOut3"/><feBlend in="SourceGraphic" in2="blurOut3" mode="normal"/></filter></defs><g><!--MD5=[b6fb9d35cc7b548bdc5c5c79bf7d651a]
cluster junit--><polygon fill="#FFFFFF" filter="url(#f19ejl2pi2h4rr)" points="33,324.75,93,324.75,103.5,358.4824,406.5,358.4824,406.5,455.25,33,455.25,33,324.75" style="stroke: #000000; stroke-width: 2.25;"/><line style="stroke: #000000; stroke-width: 2.25;" x1="33" x2="103.5" y1="358.4824" y2="358.4824"/><text fill="#000000" font-family="sans-serif" font-size="21" font-weight="bold" lengthAdjust="spacingAndGlyphs" textLength="51" x="39" y="348.0527">junit</text><!--MD5=[7ce1723ddb6e6233854253973eae5a71]
cluster Store--><polygon fill="#FFFFFF" filter="url(#f19ejl2pi2h4rr)" points="442.5,36,507,36,517.5,69.7324,1747.5,69.7324,1747.5,864,442.5,864,442.5,36" style="stroke: #000000; stroke-width: 2.25;"/><line style="stroke: #000000; stroke-width: 2.25;" x1="442.5" x2="517.5" y1="69.7324" y2="69.7324"/><text fill="#000000" font-family="sans-serif" font-size="21" font-weight="bold" lengthAdjust="spacingAndGlyphs" textLength="55.5" x="448.5" y="59.3027">Store</text><!--MD5=[2456f3a6f5aa4d75f9c9b6fd42c52dfa]
entity Main--><rect fill="#FEFECE" filter="url(#f19ejl2pi2h4rr)" height="54.7324" style="stroke: #000000; stroke-width: 2.25;" width="79.5" x="302.25" y="377.25"/><text fill="#000000" font-family="sans-serif" font-size="21" lengthAdjust="spacingAndGlyphs" textLength="49.5" x="317.25" y="412.5527">Main</text><path d="M57,385.5 L57,423.4658 A0,0 0 0 0 57,423.4658 L249,423.4658 A0,0 0 0 0 249,423.4658 L249,412.5 L301.62,404.25 L249,400.5 L249,400.5 L234,385.5 L57,385.5 A0,0 0 0 0 57,385.5 " fill="#FBFB77" filter="url(#f19ejl2pi2h4rr)" style="stroke: #A80036; stroke-width: 1.5;"/><path d="M234,385.5 L234,400.5 L249,400.5 L234,385.5 " fill="#FBFB77" style="stroke: #A80036; stroke-width: 1.5;"/><text fill="#000000" font-family="sans-serif" font-size="19.5" lengthAdjust="spacingAndGlyphs" textLength="160.5" x="66" y="411.8525">동작 테스트용 클래스</text><!--MD5=[914cdf822bf80e984e8ac3bf93b406a5]
class Aggregate--><rect fill="#FEFECE" filter="url(#f19ejl2pi2h4rr)" height="100.8311" id="Aggregate" style="stroke: #A80036; stroke-width: 2.25;" width="175.5" x="777.75" y="98.25"/><ellipse cx="810.375" cy="126.9492" fill="#B4A7E5" rx="16.5" ry="16.5" style="stroke: #A80036; stroke-width: 1.5;"/><path d="M805.0166,121.3469 L805.0166,118.1096 L816.0857,118.1096 L816.0857,121.3469 L812.3877,121.3469 L812.3877,133.4619 L816.0857,133.4619 L816.0857,136.6992 L805.0166,136.6992 L805.0166,133.4619 L808.7146,133.4619 L808.7146,121.3469 Z "/><text fill="#000000" font-family="sans-serif" font-size="18" font-style="italic" lengthAdjust="spacingAndGlyphs" textLength="93" x="839.625" y="123.1523">«interface»</text><ellipse cx="841.125" cy="136.7988" fill="#84BE84" rx="4.5" ry="4.5" style="stroke: #038048; stroke-width: 1.5;"/><text fill="#000000" font-family="sans-serif" font-size="18" font-style="italic" lengthAdjust="spacingAndGlyphs" textLength="88.5" x="850.125" y="144.3516">Aggregate</text><line style="stroke: #A80036; stroke-width: 2.25;" x1="779.25" x2="951.75" y1="155.6484" y2="155.6484"/><line style="stroke: #A80036; stroke-width: 2.25;" x1="779.25" x2="951.75" y1="167.6484" y2="167.6484"/><ellipse cx="794.25" cy="184.1484" fill="#84BE84" rx="4.5" ry="4.5" style="stroke: #038048; stroke-width: 1.5;"/><text fill="#000000" font-family="sans-serif" font-size="16.5" font-style="italic" lengthAdjust="spacingAndGlyphs" textLength="136.5" x="807.75" y="189.6006">Iterator iterator()</text><path d="M466.5,129.75 L466.5,167.7158 A0,0 0 0 0 466.5,167.7158 L724.5,167.7158 A0,0 0 0 0 724.5,167.7158 L724.5,156.75 L777.495,148.5 L724.5,144.75 L724.5,144.75 L709.5,129.75 L466.5,129.75 A0,0 0 0 0 466.5,129.75 " fill="#FBFB77" filter="url(#f19ejl2pi2h4rr)" style="stroke: #A80036; stroke-width: 1.5;"/><path d="M709.5,129.75 L709.5,144.75 L724.5,144.75 L709.5,129.75 " fill="#FBFB77" style="stroke: #A80036; stroke-width: 1.5;"/><text fill="#000000" font-family="sans-serif" font-size="19.5" lengthAdjust="spacingAndGlyphs" textLength="226.5" x="475.5" y="156.1025">집합체를 타나내는 인터페이스</text><!--MD5=[023ecf6702e3ca2ce47ae747eafb20f1]
class Iterator--><rect fill="#FEFECE" filter="url(#f19ejl2pi2h4rr)" height="120.2637" id="Iterator" style="stroke: #A80036; stroke-width: 2.25;" width="186" x="1098" y="88.5"/><ellipse cx="1143.45" cy="117.1992" fill="#B4A7E5" rx="16.5" ry="16.5" style="stroke: #A80036; stroke-width: 1.5;"/><path d="M1138.0916,111.5969 L1138.0916,108.3596 L1149.1607,108.3596 L1149.1607,111.5969 L1145.4627,111.5969 L1145.4627,123.7119 L1149.1607,123.7119 L1149.1607,126.9492 L1138.0916,126.9492 L1138.0916,123.7119 L1141.7896,123.7119 L1141.7896,111.5969 Z "/><text fill="#000000" font-family="sans-serif" font-size="18" font-style="italic" lengthAdjust="spacingAndGlyphs" textLength="93" x="1166.55" y="113.4023">«interface»</text><ellipse cx="1180.8" cy="127.0488" fill="#84BE84" rx="4.5" ry="4.5" style="stroke: #038048; stroke-width: 1.5;"/><text fill="#000000" font-family="sans-serif" font-size="18" font-style="italic" lengthAdjust="spacingAndGlyphs" textLength="63" x="1189.8" y="134.6016">Iterator</text><line style="stroke: #A80036; stroke-width: 2.25;" x1="1099.5" x2="1282.5" y1="145.8984" y2="145.8984"/><line style="stroke: #A80036; stroke-width: 2.25;" x1="1099.5" x2="1282.5" y1="157.8984" y2="157.8984"/><ellipse cx="1114.5" cy="174.3984" fill="#84BE84" rx="4.5" ry="4.5" style="stroke: #038048; stroke-width: 1.5;"/><text fill="#000000" font-family="sans-serif" font-size="16.5" font-style="italic" lengthAdjust="spacingAndGlyphs" textLength="147" x="1128" y="179.8506">boolean hasNext()</text><ellipse cx="1114.5" cy="193.8311" fill="#84BE84" rx="4.5" ry="4.5" style="stroke: #038048; stroke-width: 1.5;"/><text fill="#000000" font-family="sans-serif" font-size="16.5" font-style="italic" lengthAdjust="spacingAndGlyphs" textLength="105" x="1128" y="199.2832">Object next()</text><path d="M1337.25,129.75 L1337.25,142.5 L1284.36,148.5 L1337.25,154.5 L1337.25,167.7158 A0,0 0 0 0 1337.25,167.7158 L1722.75,167.7158 A0,0 0 0 0 1722.75,167.7158 L1722.75,144.75 L1707.75,129.75 L1337.25,129.75 A0,0 0 0 0 1337.25,129.75 " fill="#FBFB77" filter="url(#f19ejl2pi2h4rr)" style="stroke: #A80036; stroke-width: 1.5;"/><path d="M1707.75,129.75 L1707.75,144.75 L1722.75,144.75 L1707.75,129.75 " fill="#FBFB77" style="stroke: #A80036; stroke-width: 1.5;"/><text fill="#000000" font-family="sans-serif" font-size="19.5" lengthAdjust="spacingAndGlyphs" textLength="354" x="1346.25" y="156.1025">하나씩 나열하면서 검색을 실행하는 인터페이스</text><!--MD5=[a3f4307320df94d9e0110f35f6a6db82]
class BookShelf--><rect fill="#FEFECE" filter="url(#f19ejl2pi2h4rr)" height="208.0283" id="BookShelf" style="stroke: #A80036; stroke-width: 2.25;" width="273" x="576" y="300"/><ellipse cx="656.625" cy="324" fill="#ADD1B2" rx="16.5" ry="16.5" style="stroke: #A80036; stroke-width: 1.5;"/><path d="M660.3347,333.2146 Q659.4631,333.6628 658.5044,333.887 Q657.5457,334.1111 656.4873,334.1111 Q652.7271,334.1111 650.7473,331.6333 Q648.7676,329.1555 648.7676,324.4739 Q648.7676,319.7798 650.7473,317.302 Q652.7271,314.8242 656.4873,314.8242 Q657.5457,314.8242 658.5168,315.0483 Q659.488,315.2725 660.3347,315.7207 L660.3347,319.8047 Q659.3884,318.9331 658.4982,318.5284 Q657.6079,318.1238 656.6616,318.1238 Q654.6445,318.1238 653.6173,319.7238 Q652.5901,321.3237 652.5901,324.4739 Q652.5901,327.6116 653.6173,329.2115 Q654.6445,330.8115 656.6616,330.8115 Q657.6079,330.8115 658.4982,330.4069 Q659.3884,330.0022 660.3347,329.1306 Z "/><ellipse cx="694.875" cy="323.25" fill="#84BE84" rx="4.5" ry="4.5" style="stroke: #038048; stroke-width: 1.5;"/><text fill="#000000" font-family="sans-serif" font-size="18" lengthAdjust="spacingAndGlyphs" textLength="82.5" x="703.875" y="330.8027">BookShelf</text><line style="stroke: #A80036; stroke-width: 2.25;" x1="577.5" x2="847.5" y1="348" y2="348"/><rect fill="none" height="9" style="stroke: #C82930; stroke-width: 1.5;" width="9" x="588" y="360"/><text fill="#000000" font-family="sans-serif" font-size="16.5" lengthAdjust="spacingAndGlyphs" textLength="105" x="606" y="369.9521">Book[] books</text><rect fill="none" height="9" style="stroke: #C82930; stroke-width: 1.5;" width="9" x="588" y="379.4326"/><text fill="#000000" font-family="sans-serif" font-size="16.5" lengthAdjust="spacingAndGlyphs" textLength="54" x="606" y="389.3848">int last</text><ellipse cx="592.5" cy="403.3652" fill="none" rx="4.5" ry="4.5" style="stroke: #038048; stroke-width: 1.5;"/><text fill="#000000" font-family="sans-serif" font-size="16.5" lengthAdjust="spacingAndGlyphs" textLength="181.5" x="606" y="408.8174">BookShelf(int maxsize)</text><line style="stroke: #A80036; stroke-width: 2.25;" x1="577.5" x2="847.5" y1="418.2979" y2="418.2979"/><ellipse cx="592.5" cy="434.7979" fill="#84BE84" rx="4.5" ry="4.5" style="stroke: #038048; stroke-width: 1.5;"/><text fill="#000000" font-family="sans-serif" font-size="16.5" lengthAdjust="spacingAndGlyphs" textLength="208.5" x="606" y="440.25">Book getBookAt(int index)</text><ellipse cx="592.5" cy="454.2305" fill="#84BE84" rx="4.5" ry="4.5" style="stroke: #038048; stroke-width: 1.5;"/><text fill="#000000" font-family="sans-serif" font-size="16.5" lengthAdjust="spacingAndGlyphs" textLength="234" x="606" y="459.6826">void appendBook(Book book)</text><ellipse cx="592.5" cy="473.6631" fill="#84BE84" rx="4.5" ry="4.5" style="stroke: #038048; stroke-width: 1.5;"/><text fill="#000000" font-family="sans-serif" font-size="16.5" lengthAdjust="spacingAndGlyphs" textLength="118.5" x="606" y="479.1152">int getLength()</text><ellipse cx="592.5" cy="493.0957" fill="#84BE84" rx="4.5" ry="4.5" style="stroke: #038048; stroke-width: 1.5;"/><text fill="#000000" font-family="sans-serif" font-size="16.5" lengthAdjust="spacingAndGlyphs" textLength="136.5" x="606" y="498.5479">Iterator iterator()</text><path d="M531.75,636.75 L531.75,674.7158 A0,0 0 0 0 531.75,674.7158 L740.25,674.7158 A0,0 0 0 0 740.25,674.7158 L740.25,651.75 L725.25,636.75 L647.445,636.75 L680.715,508.875 L635.445,636.75 L531.75,636.75 A0,0 0 0 0 531.75,636.75 " fill="#FBFB77" filter="url(#f19ejl2pi2h4rr)" style="stroke: #A80036; stroke-width: 1.5;"/><path d="M725.25,636.75 L725.25,651.75 L740.25,651.75 L725.25,636.75 " fill="#FBFB77" style="stroke: #A80036; stroke-width: 1.5;"/><text fill="#000000" font-family="sans-serif" font-size="19.5" lengthAdjust="spacingAndGlyphs" textLength="177" x="540.75" y="663.1025">서가를 나타내는 클래스</text><!--MD5=[3c77abededc2d63828a252f1b3fc8343]
class BookShelfIterator--><rect fill="#FEFECE" filter="url(#f19ejl2pi2h4rr)" height="169.1631" id="BookShelfIterator" style="stroke: #A80036; stroke-width: 2.25;" width="385.5" x="950.25" y="319.5"/><ellipse cx="972.75" cy="343.5" fill="#ADD1B2" rx="16.5" ry="16.5" style="stroke: #A80036; stroke-width: 1.5;"/><path d="M976.4597,352.7146 Q975.5881,353.1628 974.6294,353.387 Q973.6707,353.6111 972.6123,353.6111 Q968.8521,353.6111 966.8723,351.1333 Q964.8926,348.6555 964.8926,343.9739 Q964.8926,339.2798 966.8723,336.802 Q968.8521,334.3242 972.6123,334.3242 Q973.6707,334.3242 974.6418,334.5483 Q975.613,334.7725 976.4597,335.2207 L976.4597,339.3047 Q975.5134,338.4331 974.6232,338.0284 Q973.7329,337.6238 972.7866,337.6238 Q970.7695,337.6238 969.7423,339.2238 Q968.7151,340.8237 968.7151,343.9739 Q968.7151,347.1116 969.7423,348.7115 Q970.7695,350.3115 972.7866,350.3115 Q973.7329,350.3115 974.6232,349.9069 Q975.5134,349.5022 976.4597,348.6306 Z "/><ellipse cx="1001.25" cy="342.75" fill="#84BE84" rx="4.5" ry="4.5" style="stroke: #038048; stroke-width: 1.5;"/><text fill="#000000" font-family="sans-serif" font-size="18" lengthAdjust="spacingAndGlyphs" textLength="145.5" x="1010.25" y="350.3027">BookShelfIterator</text><rect fill="#FFFFFF" height="24.1992" style="stroke: #000000; stroke-width: 1.5; stroke-dasharray: 2.0,2.0;" width="172.5" x="1167.75" y="315"/><text fill="#000000" font-family="sans-serif" font-size="18" font-style="italic" lengthAdjust="spacingAndGlyphs" textLength="169.5" x="1169.25" y="333.9023">implements Iterator</text><line style="stroke: #A80036; stroke-width: 2.25;" x1="951.75" x2="1334.25" y1="367.5" y2="367.5"/><rect fill="none" height="9" style="stroke: #C82930; stroke-width: 1.5;" width="9" x="962.25" y="379.5"/><text fill="#000000" font-family="sans-serif" font-size="16.5" lengthAdjust="spacingAndGlyphs" textLength="166.5" x="980.25" y="389.4521">BookShelf bookShelf;</text><rect fill="none" height="9" style="stroke: #C82930; stroke-width: 1.5;" width="9" x="962.25" y="398.9326"/><text fill="#000000" font-family="sans-serif" font-size="16.5" lengthAdjust="spacingAndGlyphs" textLength="75" x="980.25" y="408.8848">int index;</text><text fill="#000000" font-family="sans-serif" font-size="16.5" lengthAdjust="spacingAndGlyphs" textLength="312" x="980.25" y="428.3174">BookShelfIterator(BookShelf bookShelf)</text><line style="stroke: #A80036; stroke-width: 2.25;" x1="951.75" x2="1334.25" y1="437.7979" y2="437.7979"/><ellipse cx="966.75" cy="454.2979" fill="#84BE84" rx="4.5" ry="4.5" style="stroke: #038048; stroke-width: 1.5;"/><text fill="#000000" font-family="sans-serif" font-size="16.5" lengthAdjust="spacingAndGlyphs" textLength="147" x="980.25" y="459.75">boolean hasNext()</text><ellipse cx="966.75" cy="473.7305" fill="#84BE84" rx="4.5" ry="4.5" style="stroke: #038048; stroke-width: 1.5;"/><text fill="#000000" font-family="sans-serif" font-size="16.5" lengthAdjust="spacingAndGlyphs" textLength="105" x="980.25" y="479.1826">Object next()</text><path d="M1389,385.5 L1389,398.25 L1336.365,404.25 L1389,410.25 L1389,423.4658 A0,0 0 0 0 1389,423.4658 L1647,423.4658 A0,0 0 0 0 1647,423.4658 L1647,400.5 L1632,385.5 L1389,385.5 A0,0 0 0 0 1389,385.5 " fill="#FBFB77" filter="url(#f19ejl2pi2h4rr)" style="stroke: #A80036; stroke-width: 1.5;"/><path d="M1632,385.5 L1632,400.5 L1647,400.5 L1632,385.5 " fill="#FBFB77" style="stroke: #A80036; stroke-width: 1.5;"/><text fill="#000000" font-family="sans-serif" font-size="19.5" lengthAdjust="spacingAndGlyphs" textLength="226.5" x="1398" y="411.8525">집합체를 타나내는 인터페이스</text><!--MD5=[84e3a5e42879fb3231104d3c8e592439]
class Book--><rect fill="#FEFECE" filter="url(#f19ejl2pi2h4rr)" height="110.8652" id="Book" style="stroke: #A80036; stroke-width: 2.25;" width="186" x="793.5" y="600"/><ellipse cx="851.775" cy="624" fill="#ADD1B2" rx="16.5" ry="16.5" style="stroke: #A80036; stroke-width: 1.5;"/><path d="M855.4847,633.2146 Q854.6131,633.6628 853.6544,633.887 Q852.6957,634.1111 851.6373,634.1111 Q847.8771,634.1111 845.8973,631.6333 Q843.9176,629.1555 843.9176,624.4739 Q843.9176,619.7798 845.8973,617.302 Q847.8771,614.8242 851.6373,614.8242 Q852.6957,614.8242 853.6668,615.0483 Q854.638,615.2725 855.4847,615.7207 L855.4847,619.8047 Q854.5384,618.9331 853.6482,618.5284 Q852.7579,618.1238 851.8116,618.1238 Q849.7945,618.1238 848.7673,619.7238 Q847.7401,621.3237 847.7401,624.4739 Q847.7401,627.6116 848.7673,629.2115 Q849.7945,630.8115 851.8116,630.8115 Q852.7579,630.8115 853.6482,630.4069 Q854.5384,630.0022 855.4847,629.1306 Z "/><ellipse cx="888.225" cy="623.25" fill="#84BE84" rx="4.5" ry="4.5" style="stroke: #038048; stroke-width: 1.5;"/><text fill="#000000" font-family="sans-serif" font-size="18" lengthAdjust="spacingAndGlyphs" textLength="42" x="897.225" y="630.8027">Book</text><line style="stroke: #A80036; stroke-width: 2.25;" x1="795" x2="978" y1="648" y2="648"/><rect fill="none" height="9" style="stroke: #C82930; stroke-width: 1.5;" width="9" x="805.5" y="660"/><text fill="#000000" font-family="sans-serif" font-size="16.5" lengthAdjust="spacingAndGlyphs" textLength="100.5" x="823.5" y="669.9521">String name;</text><ellipse cx="810" cy="683.9326" fill="none" rx="4.5" ry="4.5" style="stroke: #038048; stroke-width: 1.5;"/><text fill="#000000" font-family="sans-serif" font-size="16.5" lengthAdjust="spacingAndGlyphs" textLength="147" x="823.5" y="689.3848">Book(String name)</text><line style="stroke: #A80036; stroke-width: 2.25;" x1="795" x2="978" y1="698.8652" y2="698.8652"/><path d="M790.5,802.5 L790.5,840.4658 A0,0 0 0 0 790.5,840.4658 L982.5,840.4658 A0,0 0 0 0 982.5,840.4658 L982.5,817.5 L967.5,802.5 L892.5,802.5 L886.5,711.195 L880.5,802.5 L790.5,802.5 A0,0 0 0 0 790.5,802.5 " fill="#FBFB77" filter="url(#f19ejl2pi2h4rr)" style="stroke: #A80036; stroke-width: 1.5;"/><path d="M967.5,802.5 L967.5,817.5 L982.5,817.5 L967.5,802.5 " fill="#FBFB77" style="stroke: #A80036; stroke-width: 1.5;"/><text fill="#000000" font-family="sans-serif" font-size="19.5" lengthAdjust="spacingAndGlyphs" textLength="160.5" x="799.5" y="828.8525">책을 나타내는 클래스</text><!--MD5=[38a8aadcfcb9a8bbe76f8f6ea60e3f7b]
link Main to BookShelf--><path d="M382.35,404.25 C426.96,404.25 501.36,404.25 568.26,404.25 " fill="none" id="Main-&gt;BookShelf" style="stroke: #A80036; stroke-width: 1.5;"/><polygon fill="#A80036" points="575.955,404.25,562.455,398.25,568.455,404.25,562.455,410.25,575.955,404.25" style="stroke: #A80036; stroke-width: 1.5;"/><text fill="#000000" font-family="sans-serif" font-size="19.5" lengthAdjust="spacingAndGlyphs" textLength="45" x="456.375" y="429.1025">Uses</text><!--MD5=[0de2996ddd33ea713f24d1b17ea12283]
link Aggregate to Iterator--><path d="M953.58,148.5 C995.76,148.5 1046.49,148.5 1090.2,148.5 " fill="none" id="Aggregate-&gt;Iterator" style="stroke: #A80036; stroke-width: 1.5;"/><polygon fill="#A80036" points="1097.715,148.5,1084.215,142.5,1090.215,148.5,1084.215,154.5,1097.715,148.5" style="stroke: #A80036; stroke-width: 1.5;"/><text fill="#000000" font-family="sans-serif" font-size="19.5" lengthAdjust="spacingAndGlyphs" textLength="70.5" x="980.625" y="138.8525">Creates</text><polygon fill="#000000" points="1055.625,129.2329,1064.625,133.7329,1055.625,138.2329,1055.625,129.2329" style="stroke: #000000; stroke-width: 1.5;"/><!--MD5=[78a51286da8f08a3a9d92eff08176225]
reverse link Aggregate to BookShelf--><path d="M831.495,206.19 C814.83,233.7 794.235,267.72 774.885,299.685 " fill="none" id="Aggregate&lt;-BookShelf" style="stroke: #A80036; stroke-width: 1.5; stroke-dasharray: 7.0,7.0;"/><polygon fill="#A80036" points="835.635,199.335,823.5236,207.7946,831.7606,205.7567,833.7984,213.9937,835.635,199.335" style="stroke: #A80036; stroke-width: 1.5;"/><!--MD5=[f8e793200382e98f2fe73ab7e9e49593]
reverse link Iterator to BookShelfIterator--><path d="M1178.46,216.06 C1172.475,247.56 1165.245,285.585 1158.885,319.065 " fill="none" id="Iterator&lt;-BookShelfIterator" style="stroke: #A80036; stroke-width: 1.5; stroke-dasharray: 7.0,7.0;"/><polygon fill="#A80036" points="1179.87,208.62,1171.4613,220.7668,1178.4736,215.9889,1183.2515,223.0011,1179.87,208.62" style="stroke: #A80036; stroke-width: 1.5;"/><!--MD5=[fd8a0105fb0cb8a4d0d252bb1bb14765]
link BookShelf to BookShelfIterator--><path d="M868.86,404.25 C889.395,404.25 932.145,404.25 932.145,404.25 " fill="none" id="BookShelf-BookShelfIterator" style="stroke: #A80036; stroke-width: 1.5;"/><polygon fill="#FFFFFF" points="950.145,404.25,941.145,398.25,932.145,404.25,941.145,410.25,950.145,404.25" style="stroke: #A80036; stroke-width: 1.5;"/><polygon fill="#A80036" points="849.135,404.25,862.635,410.25,856.635,404.25,862.635,398.25,849.135,404.25" style="stroke: #A80036; stroke-width: 1.5;"/><line style="stroke: #A80036; stroke-width: 1.5;" x1="856.635" x2="868.635" y1="404.25" y2="404.25"/><!--MD5=[fc19103f451cd8a50952ee483cbc10d1]
link BookShelf to Book--><path d="M795.1272,523.6072 C795.1272,523.6072 824.295,565.245 837.09,583.5 " fill="none" id="BookShelf-Book" style="stroke: #A80036; stroke-width: 1.5;"/><polygon fill="#A80036" points="848.43,599.67,845.5971,585.1709,844.1263,593.5277,835.7694,592.0568,848.43,599.67" style="stroke: #A80036; stroke-width: 1.5;"/><line style="stroke: #A80036; stroke-width: 1.5;" x1="844.1263" x2="837.2325" y1="593.5277" y2="583.71"/><polygon fill="#FFFFFF" points="784.785,508.875,785.0454,519.6885,795.1272,523.6072,794.8669,512.7937,784.785,508.875" style="stroke: #A80036; stroke-width: 1.5;"/><!--MD5=[3b0a9c3d06932867205482650659d171]
@startuml
scale 1.5
allowmixing

package junit {
    rectangle Main
    note left of Main
    동작 테스트용 클래스
    end note
}

package Store {
    +interface Aggregate <<interface>> {
        +{abstract} Iterator iterator()
    }
    note left of Aggregate
        집합체를 타나내는 인터페이스
    end note

    +interface Iterator <<interface>> {
        +{abstract} boolean hasNext()
        +{abstract} Object next()
    }
    note right of Iterator
        하나씩 나열하면서 검색을 실행하는 인터페이스
    end note

    +class BookShelf {
        -Book[] books
        -int last
        {field}+BookShelf(int maxsize)
        +Book getBookAt(int index)
        +void appendBook(Book book)
        +int getLength()
        +Iterator iterator()
    }
    note bottom of BookShelf
        서가를 나타내는 클래스
    end note

    +class BookShelfIterator <implements Iterator> {
        -BookShelf bookShelf;
        -int index;
        {field}BookShelfIterator(BookShelf bookShelf)
        +boolean hasNext()
        +Object next()
    }
    note right of BookShelfIterator
        집합체를 타나내는 인터페이스
    end note

    +class Book {
        -String name;
        {field}+Book(String name)
    }
    note bottom of Book
        책을 나타내는 클래스
    end note
}

Main -right-> BookShelf : Uses
Aggregate -right-> Iterator : Creates >
BookShelf .up.> Aggregate
BookShelfIterator .up.> Iterator
BookShelfIterator o-left-> BookShelf
BookShelf o-down-> Book
@enduml

PlantUML version 1.2020.09(Sun May 10 19:51:06 KST 2020)
(GPL source distribution)
Java Runtime: OpenJDK Runtime Environment
JVM: OpenJDK 64-Bit Server VM
Java Version: 11.0.7+10-b765.64
Operating System: Mac OS X
Default Encoding: UTF-8
Language: ko
Country: KR
--></g></svg>