<?xml version="1.0" encoding="UTF-8" standalone="no"?><svg xmlns="http://www.w3.org/2000/svg" xmlns:xlink="http://www.w3.org/1999/xlink" contentScriptType="application/ecmascript" contentStyleType="text/css" height="210px" preserveAspectRatio="none" style="width:612px;height:210px;" version="1.1" viewBox="0 0 612 210" width="612px" zoomAndPan="magnify"><defs><filter height="300%" id="f1a43lg3jfe2qw" width="300%" x="-1" y="-1"><feGaussianBlur result="blurOut" stdDeviation="4.0"/><feColorMatrix in="blurOut" result="blurOut2" type="matrix" values="0 0 0 0 0 0 0 0 0 0 0 0 0 0 0 0 0 0 .4 0"/><feOffset dx="8.0" dy="8.0" in="blurOut2" result="blurOut3"/><feBlend in="SourceGraphic" in2="blurOut3" mode="normal"/></filter></defs><g><!--MD5=[2456f3a6f5aa4d75f9c9b6fd42c52dfa]
entity Main--><rect fill="#FEFECE" filter="url(#f1a43lg3jfe2qw)" height="72.9766" style="stroke: #000000; stroke-width: 3.0;" width="106" x="12" y="67"/><text fill="#000000" font-family="sans-serif" font-size="28" lengthAdjust="spacingAndGlyphs" textLength="66" x="32" y="114.0703">Main</text><!--MD5=[2f4e497837a991172d40b04b7a7d0ca2]
class Singleton--><rect fill="#FEFECE" filter="url(#f1a43lg3jfe2qw)" height="173.7305" id="Singleton" style="stroke: #A80036; stroke-width: 3.0;" width="298" x="292" y="16"/><ellipse cx="371.5" cy="48" fill="#ADD1B2" rx="22" ry="22" style="stroke: #A80036; stroke-width: 2.0;"/><path d="M376.4463,60.2861 Q375.2842,60.8838 374.0059,61.1826 Q372.7275,61.4814 371.3164,61.4814 Q366.3027,61.4814 363.6631,58.1777 Q361.0234,54.874 361.0234,48.6318 Q361.0234,42.373 363.6631,39.0693 Q366.3027,35.7656 371.3164,35.7656 Q372.7275,35.7656 374.0225,36.0645 Q375.3174,36.3633 376.4463,36.9609 L376.4463,42.4063 Q375.1846,41.2441 373.9976,40.7046 Q372.8105,40.165 371.5488,40.165 Q368.8594,40.165 367.4897,42.2983 Q366.1201,44.4316 366.1201,48.6318 Q366.1201,52.8154 367.4897,54.9487 Q368.8594,57.082 371.5488,57.082 Q372.8105,57.082 373.9976,56.5425 Q375.1846,56.0029 376.4463,54.8408 Z "/><ellipse cx="420.5" cy="47" fill="#84BE84" rx="6" ry="6" style="stroke: #038048; stroke-width: 2.0;"/><text fill="#000000" font-family="sans-serif" font-size="24" lengthAdjust="spacingAndGlyphs" textLength="102" x="432.5" y="57.0703">Singleton</text><line style="stroke: #A80036; stroke-width: 3.0;" x1="294" x2="588" y1="80" y2="80"/><rect fill="none" height="12" style="stroke: #C82930; stroke-width: 2.0;" width="12" x="308" y="96"/><text fill="#000000" font-family="sans-serif" font-size="22" lengthAdjust="spacingAndGlyphs" text-decoration="underline" textLength="206" x="332" y="109.2695">Singleton singleton</text><rect fill="none" height="12" style="stroke: #C82930; stroke-width: 2.0;" width="12" x="308" y="121.9102"/><text fill="#000000" font-family="sans-serif" font-size="22" lengthAdjust="spacingAndGlyphs" textLength="180" x="332" y="135.1797">privete Singleton</text><line style="stroke: #A80036; stroke-width: 3.0;" x1="294" x2="588" y1="147.8203" y2="147.8203"/><ellipse cx="314" cy="169.8203" fill="#84BE84" rx="6" ry="6" style="stroke: #038048; stroke-width: 2.0;"/><text fill="#000000" font-family="sans-serif" font-size="22" lengthAdjust="spacingAndGlyphs" text-decoration="underline" textLength="246" x="332" y="177.0898">Singleton getInstance()</text><!--MD5=[31d070a4a4f1d7f13105f73537867f4d]
link Main to Singleton--><path d="M118.08,103 C160.74,103 223.02,103 281.52,103 " fill="none" id="Main-&gt;Singleton" style="stroke: #A80036; stroke-width: 2.0;"/><polygon fill="#A80036" points="291.64,103,273.64,95,281.64,103,273.64,111,291.64,103" style="stroke: #A80036; stroke-width: 2.0;"/><text fill="#000000" font-family="sans-serif" font-size="26" lengthAdjust="spacingAndGlyphs" textLength="74" x="155" y="90.1367">Ueses</text><polygon fill="#000000" points="235,77.3105,247,83.3105,235,89.3105,235,77.3105" style="stroke: #000000; stroke-width: 2.0;"/><!--MD5=[e89dd1df18fe9f31a02b27d66ca4c1e5]
@startuml SingleTon_Pattern
scale 2

allowmixing
rectangle Main

+class Singleton {
    -{Static} Singleton singleton
    -{field}privete Singleton
    +{static}Singleton getInstance()
}

Main -> Singleton : Ueses >

@enduml

PlantUML version 1.2020.09(Sun May 10 19:51:06 KST 2020)
(GPL source distribution)
Java Runtime: OpenJDK Runtime Environment
JVM: OpenJDK 64-Bit Server VM
Java Version: 11.0.7+10-b765.64
Operating System: Mac OS X
Default Encoding: UTF-8
Language: ko
Country: KR
--></g></svg>