<?xml version="1.0" encoding="UTF-8" standalone="no"?><svg xmlns="http://www.w3.org/2000/svg" xmlns:xlink="http://www.w3.org/1999/xlink" contentScriptType="application/ecmascript" contentStyleType="text/css" height="613.5px" preserveAspectRatio="none" style="width:1264px;height:613px;" version="1.1" viewBox="0 0 1264 613" width="1264.5px" zoomAndPan="magnify"><defs><filter height="300%" id="fpozo0crs47q5" width="300%" x="-1" y="-1"><feGaussianBlur result="blurOut" stdDeviation="3.0"/><feColorMatrix in="blurOut" result="blurOut2" type="matrix" values="0 0 0 0 0 0 0 0 0 0 0 0 0 0 0 0 0 0 .4 0"/><feOffset dx="6.0" dy="6.0" in="blurOut2" result="blurOut3"/><feBlend in="SourceGraphic" in2="blurOut3" mode="normal"/></filter></defs><g><!--MD5=[b6fb9d35cc7b548bdc5c5c79bf7d651a]
cluster junit--><polygon fill="#FFFFFF" filter="url(#fpozo0crs47q5)" points="33,36,93,36,103.5,69.7324,406.5,69.7324,406.5,166.5,33,166.5,33,36" style="stroke: #000000; stroke-width: 2.25;"/><line style="stroke: #000000; stroke-width: 2.25;" x1="33" x2="103.5" y1="69.7324" y2="69.7324"/><text fill="#000000" font-family="sans-serif" font-size="21" font-weight="bold" lengthAdjust="spacingAndGlyphs" textLength="51" x="39" y="59.3027">junit</text><!--MD5=[2d0d4209c8a68467e6e046ed32b879d8]
cluster com.adapter--><polygon fill="#FFFFFF" filter="url(#fpozo0crs47q5)" points="226.5,240,366,240,376.5,273.7324,1231.5,273.7324,1231.5,595.5,226.5,595.5,226.5,240" style="stroke: #000000; stroke-width: 2.25;"/><line style="stroke: #000000; stroke-width: 2.25;" x1="226.5" x2="376.5" y1="273.7324" y2="273.7324"/><text fill="#000000" font-family="sans-serif" font-size="21" font-weight="bold" lengthAdjust="spacingAndGlyphs" textLength="130.5" x="232.5" y="263.3027">com.adapter</text><!--MD5=[2456f3a6f5aa4d75f9c9b6fd42c52dfa]
entity Main--><rect fill="#FEFECE" filter="url(#fpozo0crs47q5)" height="54.7324" style="stroke: #000000; stroke-width: 2.25;" width="79.5" x="302.25" y="88.5"/><text fill="#000000" font-family="sans-serif" font-size="21" lengthAdjust="spacingAndGlyphs" textLength="49.5" x="317.25" y="123.8027">Main</text><path d="M57,96.75 L57,134.7158 A0,0 0 0 0 57,134.7158 L249,134.7158 A0,0 0 0 0 249,134.7158 L249,123.75 L301.62,115.5 L249,111.75 L249,111.75 L234,96.75 L57,96.75 A0,0 0 0 0 57,96.75 " fill="#FBFB77" filter="url(#fpozo0crs47q5)" style="stroke: #A80036; stroke-width: 1.5;"/><path d="M234,96.75 L234,111.75 L249,111.75 L234,96.75 " fill="#FBFB77" style="stroke: #A80036; stroke-width: 1.5;"/><text fill="#000000" font-family="sans-serif" font-size="19.5" lengthAdjust="spacingAndGlyphs" textLength="160.5" x="66" y="123.1025">동작 테스트용 클래스</text><!--MD5=[0356cafb68da2b0b54ca6630c89310d5]
class Print--><rect fill="#FEFECE" filter="url(#fpozo0crs47q5)" height="120.2637" id="Print" style="stroke: #A80036; stroke-width: 2.25;" width="183" x="250.5" y="307.5"/><ellipse cx="294.6" cy="336.1992" fill="#B4A7E5" rx="16.5" ry="16.5" style="stroke: #A80036; stroke-width: 1.5;"/><path d="M289.2416,330.5969 L289.2416,327.3596 L300.3107,327.3596 L300.3107,330.5969 L296.6127,330.5969 L296.6127,342.7119 L300.3107,342.7119 L300.3107,345.9492 L289.2416,345.9492 L289.2416,342.7119 L292.9396,342.7119 L292.9396,330.5969 Z "/><text fill="#000000" font-family="sans-serif" font-size="18" font-style="italic" lengthAdjust="spacingAndGlyphs" textLength="93" x="317.4" y="332.4023">«interface»</text><ellipse cx="343.65" cy="346.0488" fill="#84BE84" rx="4.5" ry="4.5" style="stroke: #038048; stroke-width: 1.5;"/><text fill="#000000" font-family="sans-serif" font-size="18" font-style="italic" lengthAdjust="spacingAndGlyphs" textLength="39" x="352.65" y="353.6016">Print</text><line style="stroke: #A80036; stroke-width: 2.25;" x1="252" x2="432" y1="364.8984" y2="364.8984"/><line style="stroke: #A80036; stroke-width: 2.25;" x1="252" x2="432" y1="376.8984" y2="376.8984"/><ellipse cx="267" cy="393.3984" fill="#84BE84" rx="4.5" ry="4.5" style="stroke: #038048; stroke-width: 1.5;"/><text fill="#000000" font-family="sans-serif" font-size="16.5" font-style="italic" lengthAdjust="spacingAndGlyphs" textLength="130.5" x="280.5" y="398.8506">void printWeak()</text><ellipse cx="267" cy="412.8311" fill="#84BE84" rx="4.5" ry="4.5" style="stroke: #038048; stroke-width: 1.5;"/><text fill="#000000" font-family="sans-serif" font-size="16.5" font-style="italic" lengthAdjust="spacingAndGlyphs" textLength="144" x="280.5" y="418.2832">void printStrong()</text><path d="M290.25,534 L290.25,571.9658 A0,0 0 0 0 290.25,571.9658 L393.75,571.9658 A0,0 0 0 0 393.75,571.9658 L393.75,549 L378.75,534 L348,534 L342,427.665 L336,534 L290.25,534 A0,0 0 0 0 290.25,534 " fill="#FBFB77" filter="url(#fpozo0crs47q5)" style="stroke: #A80036; stroke-width: 1.5;"/><path d="M378.75,534 L378.75,549 L393.75,549 L378.75,534 " fill="#FBFB77" style="stroke: #A80036; stroke-width: 1.5;"/><text fill="#000000" font-family="sans-serif" font-size="19.5" lengthAdjust="spacingAndGlyphs" textLength="72" x="299.25" y="560.3525">필요한 것</text><!--MD5=[7b72c6fb69e6b0930b1d63bb3a430464]
class PrintBanner--><rect fill="#FEFECE" filter="url(#fpozo0crs47q5)" height="130.2979" id="PrintBanner" style="stroke: #A80036; stroke-width: 2.25;" width="456" x="486" y="302.25"/><ellipse cx="508.5" cy="326.25" fill="#ADD1B2" rx="16.5" ry="16.5" style="stroke: #A80036; stroke-width: 1.5;"/><path d="M512.2097,335.4646 Q511.3381,335.9128 510.3794,336.137 Q509.4207,336.3611 508.3623,336.3611 Q504.6021,336.3611 502.6223,333.8833 Q500.6426,331.4055 500.6426,326.7239 Q500.6426,322.0298 502.6223,319.552 Q504.6021,317.0742 508.3623,317.0742 Q509.4207,317.0742 510.3918,317.2983 Q511.363,317.5225 512.2097,317.9707 L512.2097,322.0547 Q511.2634,321.1831 510.3732,320.7784 Q509.4829,320.3738 508.5366,320.3738 Q506.5195,320.3738 505.4923,321.9738 Q504.4651,323.5737 504.4651,326.7239 Q504.4651,329.8616 505.4923,331.4615 Q506.5195,333.0615 508.5366,333.0615 Q509.4829,333.0615 510.3732,332.6569 Q511.2634,332.2522 512.2097,331.3806 Z "/><ellipse cx="537" cy="325.5" fill="#84BE84" rx="4.5" ry="4.5" style="stroke: #038048; stroke-width: 1.5;"/><text fill="#000000" font-family="sans-serif" font-size="18" lengthAdjust="spacingAndGlyphs" textLength="99" x="546" y="333.0527">PrintBanner</text><rect fill="#FFFFFF" height="24.1992" style="stroke: #000000; stroke-width: 1.5; stroke-dasharray: 2.0,2.0;" width="289.5" x="657" y="297.75"/><text fill="#000000" font-family="sans-serif" font-size="18" font-style="italic" lengthAdjust="spacingAndGlyphs" textLength="286.5" x="658.5" y="316.6523">extends Banner implements Print</text><line style="stroke: #A80036; stroke-width: 2.25;" x1="487.5" x2="940.5" y1="350.25" y2="350.25"/><line style="stroke: #A80036; stroke-width: 2.25;" x1="487.5" x2="940.5" y1="362.25" y2="362.25"/><ellipse cx="502.5" cy="378.75" fill="#84BE84" rx="4.5" ry="4.5" style="stroke: #038048; stroke-width: 1.5;"/><text fill="#000000" font-family="sans-serif" font-size="16.5" lengthAdjust="spacingAndGlyphs" textLength="205.5" x="516" y="384.2021">PrintBanner(String string)</text><ellipse cx="502.5" cy="398.1826" fill="#84BE84" rx="4.5" ry="4.5" style="stroke: #038048; stroke-width: 1.5;"/><text fill="#000000" font-family="sans-serif" font-size="16.5" lengthAdjust="spacingAndGlyphs" textLength="130.5" x="516" y="403.6348">void printWeak()</text><ellipse cx="502.5" cy="417.6152" fill="#84BE84" rx="4.5" ry="4.5" style="stroke: #038048; stroke-width: 1.5;"/><text fill="#000000" font-family="sans-serif" font-size="16.5" lengthAdjust="spacingAndGlyphs" textLength="144" x="516" y="423.0674">void printStrong()</text><path d="M662.25,534 L662.25,571.9658 A0,0 0 0 0 662.25,571.9658 L765.75,571.9658 A0,0 0 0 0 765.75,571.9658 L765.75,549 L750.75,534 L720,534 L714,433.26 L708,534 L662.25,534 A0,0 0 0 0 662.25,534 " fill="#FBFB77" filter="url(#fpozo0crs47q5)" style="stroke: #A80036; stroke-width: 1.5;"/><path d="M750.75,534 L750.75,549 L765.75,549 L750.75,534 " fill="#FBFB77" style="stroke: #A80036; stroke-width: 1.5;"/><text fill="#000000" font-family="sans-serif" font-size="19.5" lengthAdjust="spacingAndGlyphs" textLength="72" x="671.25" y="560.3525">교환 장치</text><!--MD5=[bbcf74e46ca60df756e22cd554d2be7c]
class Banner--><rect fill="#FEFECE" filter="url(#fpozo0crs47q5)" height="149.7305" id="Banner" style="stroke: #A80036; stroke-width: 2.25;" width="211.5" x="995.25" y="292.5"/><ellipse cx="1056.9" cy="316.5" fill="#ADD1B2" rx="16.5" ry="16.5" style="stroke: #A80036; stroke-width: 1.5;"/><path d="M1060.6097,325.7146 Q1059.7381,326.1628 1058.7794,326.387 Q1057.8207,326.6111 1056.7623,326.6111 Q1053.0021,326.6111 1051.0223,324.1333 Q1049.0426,321.6555 1049.0426,316.9739 Q1049.0426,312.2798 1051.0223,309.802 Q1053.0021,307.3242 1056.7623,307.3242 Q1057.8207,307.3242 1058.7918,307.5483 Q1059.763,307.7725 1060.6097,308.2207 L1060.6097,312.3047 Q1059.6634,311.4331 1058.7732,311.0284 Q1057.8829,310.6238 1056.9366,310.6238 Q1054.9195,310.6238 1053.8923,312.2238 Q1052.8651,313.8237 1052.8651,316.9739 Q1052.8651,320.1116 1053.8923,321.7115 Q1054.9195,323.3115 1056.9366,323.3115 Q1057.8829,323.3115 1058.7732,322.9069 Q1059.6634,322.5022 1060.6097,321.6306 Z "/><ellipse cx="1094.1" cy="315.75" fill="#84BE84" rx="4.5" ry="4.5" style="stroke: #038048; stroke-width: 1.5;"/><text fill="#000000" font-family="sans-serif" font-size="18" lengthAdjust="spacingAndGlyphs" textLength="60" x="1103.1" y="323.3027">Banner</text><line style="stroke: #A80036; stroke-width: 2.25;" x1="996.75" x2="1205.25" y1="340.5" y2="340.5"/><rect fill="none" height="9" style="stroke: #C82930; stroke-width: 1.5;" width="9" x="1007.25" y="352.5"/><text fill="#000000" font-family="sans-serif" font-size="16.5" lengthAdjust="spacingAndGlyphs" textLength="100.5" x="1025.25" y="362.4521">String string</text><line style="stroke: #A80036; stroke-width: 2.25;" x1="996.75" x2="1205.25" y1="371.9326" y2="371.9326"/><ellipse cx="1011.75" cy="388.4326" fill="#84BE84" rx="4.5" ry="4.5" style="stroke: #038048; stroke-width: 1.5;"/><text fill="#000000" font-family="sans-serif" font-size="16.5" lengthAdjust="spacingAndGlyphs" textLength="168" x="1025.25" y="393.8848">Banner(String string)</text><ellipse cx="1011.75" cy="407.8652" fill="#84BE84" rx="4.5" ry="4.5" style="stroke: #038048; stroke-width: 1.5;"/><text fill="#000000" font-family="sans-serif" font-size="16.5" lengthAdjust="spacingAndGlyphs" textLength="172.5" x="1025.25" y="413.3174">void showWithParen()</text><ellipse cx="1011.75" cy="427.2979" fill="#84BE84" rx="4.5" ry="4.5" style="stroke: #038048; stroke-width: 1.5;"/><text fill="#000000" font-family="sans-serif" font-size="16.5" lengthAdjust="spacingAndGlyphs" textLength="171" x="1025.25" y="432.75">void showWithAster()</text><path d="M1021.5,534 L1021.5,571.9658 A0,0 0 0 0 1021.5,571.9658 L1180.5,571.9658 A0,0 0 0 0 1180.5,571.9658 L1180.5,549 L1165.5,534 L1107,534 L1101,442.605 L1095,534 L1021.5,534 A0,0 0 0 0 1021.5,534 " fill="#FBFB77" filter="url(#fpozo0crs47q5)" style="stroke: #A80036; stroke-width: 1.5;"/><path d="M1165.5,534 L1165.5,549 L1180.5,549 L1165.5,534 " fill="#FBFB77" style="stroke: #A80036; stroke-width: 1.5;"/><text fill="#000000" font-family="sans-serif" font-size="19.5" lengthAdjust="spacingAndGlyphs" textLength="127.5" x="1030.5" y="560.3525">제공되고 있는 것</text><!--MD5=[fbd644e3f7b523ce5a4e8c6aa5e50650]
link Main to Print--><path d="M342,142.71 C342,179.28 342,247.56 342,299.04 " fill="none" id="Main-&gt;Print" style="stroke: #A80036; stroke-width: 1.5;"/><polygon fill="#A80036" points="342,307.14,348,293.64,342,299.64,336,293.64,342,307.14" style="stroke: #A80036; stroke-width: 1.5;"/><text fill="#000000" font-family="sans-serif" font-size="19.5" lengthAdjust="spacingAndGlyphs" textLength="43.5" x="343.5" y="210.8525">uses</text><polygon fill="#000000" points="358.5,223.9658,363,232.9658,367.5,223.9658,358.5,223.9658" style="stroke: #000000; stroke-width: 1.5;"/><!--MD5=[20783c269b26169d70ca11e794e6a296]
reverse link Print to PrintBanner--><path d="M441.27,367.5 C456.045,367.5 470.82,367.5 485.58,367.5 " fill="none" id="Print&lt;-PrintBanner" style="stroke: #A80036; stroke-width: 1.5; stroke-dasharray: 7.0,7.0;"/><polygon fill="#A80036" points="433.545,367.5,447.045,373.5,441.045,367.5,447.045,361.5,433.545,367.5" style="stroke: #A80036; stroke-width: 1.5;"/><!--MD5=[065fda231581c1faaa06773583e09ccb]
link PrintBanner to Banner--><path d="M942.27,367.5 C957.225,367.5 972.195,367.5 987.15,367.5 " fill="none" id="PrintBanner-&gt;Banner" style="stroke: #A80036; stroke-width: 1.5;"/><polygon fill="#A80036" points="994.98,367.5,981.48,361.5,987.48,367.5,981.48,373.5,994.98,367.5" style="stroke: #A80036; stroke-width: 1.5;"/><!--MD5=[e174c991de3d98c3481e6171e0fa4ad2]
@startuml
scale 1.5
allowmixing

package junit {
    rectangle Main
    note left of Main
        동작 테스트용 클래스
    end note
}

package com.adapter {
    +interface Print <<interface>>{
        +{abstract}void printWeak()
        +{abstract}void printStrong()
    }
    note bottom
        필요한 것
    end note

    +class PrintBanner <extends Banner implements Print>{
        +PrintBanner(String string)
        +void printWeak()
        +void printStrong()
    }
    note bottom
        교환 장치
    end note

    +class Banner {
        -String string
        +Banner(String string)
        +void showWithParen()
        +void showWithAster()
    }
    note bottom
        제공되고 있는 것
    end note
}

Main -down-> Print : uses >
PrintBanner .left.> Print
PrintBanner -right-> Banner

@enduml

PlantUML version 1.2020.09(Sun May 10 19:51:06 KST 2020)
(GPL source distribution)
Java Runtime: OpenJDK Runtime Environment
JVM: OpenJDK 64-Bit Server VM
Java Version: 11.0.7+10-b765.64
Operating System: Mac OS X
Default Encoding: UTF-8
Language: ko
Country: KR
--></g></svg>