<?xml version="1.0" encoding="UTF-8" standalone="no"?><svg xmlns="http://www.w3.org/2000/svg" xmlns:xlink="http://www.w3.org/1999/xlink" contentScriptType="application/ecmascript" contentStyleType="text/css" height="889.5px" preserveAspectRatio="none" style="width:1515px;height:889px;" version="1.1" viewBox="0 0 1515 889" width="1515px" zoomAndPan="magnify"><defs><filter height="300%" id="fibfe0lu9zr9a" width="300%" x="-1" y="-1"><feGaussianBlur result="blurOut" stdDeviation="3.0"/><feColorMatrix in="blurOut" result="blurOut2" type="matrix" values="0 0 0 0 0 0 0 0 0 0 0 0 0 0 0 0 0 0 .4 0"/><feOffset dx="6.0" dy="6.0" in="blurOut2" result="blurOut3"/><feBlend in="SourceGraphic" in2="blurOut3" mode="normal"/></filter></defs><g><!--MD5=[b6fb9d35cc7b548bdc5c5c79bf7d651a]
cluster junit--><polygon fill="#FFFFFF" filter="url(#fibfe0lu9zr9a)" points="33,36,93,36,103.5,69.7324,406.5,69.7324,406.5,166.5,33,166.5,33,36" style="stroke: #000000; stroke-width: 2.25;"/><line style="stroke: #000000; stroke-width: 2.25;" x1="33" x2="103.5" y1="69.7324" y2="69.7324"/><text fill="#000000" font-family="sans-serif" font-size="21" font-weight="bold" lengthAdjust="spacingAndGlyphs" textLength="51" x="39" y="59.3027">junit</text><!--MD5=[c50f91e25209653c2d0442f3aa69bd05]
cluster design.bridge--><polygon fill="#FFFFFF" filter="url(#fibfe0lu9zr9a)" points="442.5,44.25,597,44.25,607.5,77.9824,1482,77.9824,1482,871.5,442.5,871.5,442.5,44.25" style="stroke: #000000; stroke-width: 2.25;"/><line style="stroke: #000000; stroke-width: 2.25;" x1="442.5" x2="607.5" y1="77.9824" y2="77.9824"/><text fill="#000000" font-family="sans-serif" font-size="21" font-weight="bold" lengthAdjust="spacingAndGlyphs" textLength="145.5" x="448.5" y="67.5527">design.bridge</text><!--MD5=[2456f3a6f5aa4d75f9c9b6fd42c52dfa]
entity Main--><rect fill="#FEFECE" filter="url(#fibfe0lu9zr9a)" height="54.7324" style="stroke: #000000; stroke-width: 2.25;" width="79.5" x="302.25" y="88.5"/><text fill="#000000" font-family="sans-serif" font-size="21" lengthAdjust="spacingAndGlyphs" textLength="49.5" x="317.25" y="123.8027">Main</text><path d="M57,96.75 L57,134.7158 A0,0 0 0 0 57,134.7158 L249,134.7158 A0,0 0 0 0 249,134.7158 L249,123.75 L301.62,115.5 L249,111.75 L249,111.75 L234,96.75 L57,96.75 A0,0 0 0 0 57,96.75 " fill="#FBFB77" filter="url(#fibfe0lu9zr9a)" style="stroke: #A80036; stroke-width: 1.5;"/><path d="M234,96.75 L234,111.75 L249,111.75 L234,96.75 " fill="#FBFB77" style="stroke: #A80036; stroke-width: 1.5;"/><text fill="#000000" font-family="sans-serif" font-size="19.5" lengthAdjust="spacingAndGlyphs" textLength="160.5" x="66" y="123.1025">동작 테스트용 클래스</text><!--MD5=[99fab22207e457966154e56a29d5cf6d]
class DisplayBridge--><rect fill="#FEFECE" filter="url(#fibfe0lu9zr9a)" height="188.5957" id="DisplayBridge" style="stroke: #A80036; stroke-width: 2.25;" width="343.5" x="557.25" y="232.5"/><ellipse cx="655.125" cy="256.5" fill="#ADD1B2" rx="16.5" ry="16.5" style="stroke: #A80036; stroke-width: 1.5;"/><path d="M658.8347,265.7146 Q657.9631,266.1628 657.0044,266.387 Q656.0457,266.6111 654.9873,266.6111 Q651.2271,266.6111 649.2473,264.1333 Q647.2676,261.6555 647.2676,256.9739 Q647.2676,252.2798 649.2473,249.802 Q651.2271,247.3242 654.9873,247.3242 Q656.0457,247.3242 657.0168,247.5483 Q657.988,247.7725 658.8347,248.2207 L658.8347,252.3047 Q657.8884,251.4331 656.9982,251.0284 Q656.1079,250.6238 655.1616,250.6238 Q653.1445,250.6238 652.1173,252.2238 Q651.0901,253.8237 651.0901,256.9739 Q651.0901,260.1116 652.1173,261.7115 Q653.1445,263.3115 655.1616,263.3115 Q656.1079,263.3115 656.9982,262.9069 Q657.8884,262.5022 658.8347,261.6306 Z "/><ellipse cx="693.375" cy="255.75" fill="#84BE84" rx="4.5" ry="4.5" style="stroke: #038048; stroke-width: 1.5;"/><text fill="#000000" font-family="sans-serif" font-size="18" lengthAdjust="spacingAndGlyphs" textLength="118.5" x="702.375" y="263.3027">DisplayBridge</text><line style="stroke: #A80036; stroke-width: 2.25;" x1="558.75" x2="899.25" y1="280.5" y2="280.5"/><rect fill="none" height="9" style="stroke: #C82930; stroke-width: 1.5;" width="9" x="569.25" y="292.5"/><text fill="#000000" font-family="sans-serif" font-size="16.5" lengthAdjust="spacingAndGlyphs" textLength="183" x="587.25" y="302.4521">DisplayImplBridge impl</text><ellipse cx="573.75" cy="316.4326" fill="none" rx="4.5" ry="4.5" style="stroke: #038048; stroke-width: 1.5;"/><text fill="#000000" font-family="sans-serif" font-size="16.5" lengthAdjust="spacingAndGlyphs" textLength="304.5" x="587.25" y="321.8848">DisplayBridge(DisplayImplBridge impl)</text><line style="stroke: #A80036; stroke-width: 2.25;" x1="558.75" x2="899.25" y1="331.3652" y2="331.3652"/><ellipse cx="573.75" cy="347.8652" fill="#84BE84" rx="4.5" ry="4.5" style="stroke: #038048; stroke-width: 1.5;"/><text fill="#000000" font-family="sans-serif" font-size="16.5" lengthAdjust="spacingAndGlyphs" textLength="91.5" x="587.25" y="353.3174">void open()</text><ellipse cx="573.75" cy="367.2979" fill="#84BE84" rx="4.5" ry="4.5" style="stroke: #038048; stroke-width: 1.5;"/><text fill="#000000" font-family="sans-serif" font-size="16.5" lengthAdjust="spacingAndGlyphs" textLength="90" x="587.25" y="372.75">void print()</text><ellipse cx="573.75" cy="386.7305" fill="#84BE84" rx="4.5" ry="4.5" style="stroke: #038048; stroke-width: 1.5;"/><text fill="#000000" font-family="sans-serif" font-size="16.5" lengthAdjust="spacingAndGlyphs" textLength="93" x="587.25" y="392.1826">void close()</text><rect fill="#F24D5C" height="9" style="stroke: #C82930; stroke-width: 1.5;" width="9" x="569.25" y="401.6631"/><text fill="#000000" font-family="sans-serif" font-size="16.5" lengthAdjust="spacingAndGlyphs" textLength="142.5" x="587.25" y="411.6152">final void dispay()</text><path d="M644.25,96.75 L644.25,134.7158 A0,0 0 0 0 644.25,134.7158 L723,134.7158 L729,232.29 L735,134.7158 L813.75,134.7158 A0,0 0 0 0 813.75,134.7158 L813.75,111.75 L798.75,96.75 L644.25,96.75 A0,0 0 0 0 644.25,96.75 " fill="#FBFB77" filter="url(#fibfe0lu9zr9a)" style="stroke: #A80036; stroke-width: 1.5;"/><path d="M798.75,96.75 L798.75,111.75 L813.75,111.75 L798.75,96.75 " fill="#FBFB77" style="stroke: #A80036; stroke-width: 1.5;"/><text fill="#000000" font-family="sans-serif" font-size="19.5" lengthAdjust="spacingAndGlyphs" textLength="138" x="653.25" y="123.1025">표시한다는 클래스</text><!--MD5=[80aa3aa69a2c1b2d01d01b3b24fff986]
class StringDisplayImplBridge--><rect fill="#FEFECE" filter="url(#fibfe0lu9zr9a)" height="208.0283" id="StringDisplayImplBridge" style="stroke: #A80036; stroke-width: 2.25;" width="505.5" x="951.75" y="511.5"/><ellipse cx="974.25" cy="535.5" fill="#ADD1B2" rx="16.5" ry="16.5" style="stroke: #A80036; stroke-width: 1.5;"/><path d="M977.9597,544.7146 Q977.0881,545.1628 976.1294,545.387 Q975.1707,545.6111 974.1123,545.6111 Q970.3521,545.6111 968.3723,543.1333 Q966.3926,540.6555 966.3926,535.9739 Q966.3926,531.2798 968.3723,528.802 Q970.3521,526.3242 974.1123,526.3242 Q975.1707,526.3242 976.1418,526.5483 Q977.113,526.7725 977.9597,527.2207 L977.9597,531.3047 Q977.0134,530.4331 976.1232,530.0284 Q975.2329,529.6238 974.2866,529.6238 Q972.2695,529.6238 971.2423,531.2238 Q970.2151,532.8237 970.2151,535.9739 Q970.2151,539.1116 971.2423,540.7115 Q972.2695,542.3115 974.2866,542.3115 Q975.2329,542.3115 976.1232,541.9069 Q977.0134,541.5022 977.9597,540.6306 Z "/><ellipse cx="1002.75" cy="534.75" fill="#84BE84" rx="4.5" ry="4.5" style="stroke: #038048; stroke-width: 1.5;"/><text fill="#000000" font-family="sans-serif" font-size="18" lengthAdjust="spacingAndGlyphs" textLength="204" x="1011.75" y="542.3027">StringDisplayImplBridge</text><rect fill="#FFFFFF" height="24.1992" style="stroke: #000000; stroke-width: 1.5; stroke-dasharray: 2.0,2.0;" width="234" x="1227.75" y="507"/><text fill="#000000" font-family="sans-serif" font-size="18" font-style="italic" lengthAdjust="spacingAndGlyphs" textLength="231" x="1229.25" y="525.9023">extends DisplayImplBridge</text><line style="stroke: #A80036; stroke-width: 2.25;" x1="953.25" x2="1455.75" y1="559.5" y2="559.5"/><rect fill="none" height="9" style="stroke: #C82930; stroke-width: 1.5;" width="9" x="963.75" y="571.5"/><text fill="#000000" font-family="sans-serif" font-size="16.5" lengthAdjust="spacingAndGlyphs" textLength="100.5" x="981.75" y="581.4521">String string</text><rect fill="none" height="9" style="stroke: #C82930; stroke-width: 1.5;" width="9" x="963.75" y="590.9326"/><text fill="#000000" font-family="sans-serif" font-size="16.5" lengthAdjust="spacingAndGlyphs" textLength="73.5" x="981.75" y="600.8848">int width;</text><ellipse cx="968.25" cy="614.8652" fill="none" rx="4.5" ry="4.5" style="stroke: #038048; stroke-width: 1.5;"/><text fill="#000000" font-family="sans-serif" font-size="16.5" lengthAdjust="spacingAndGlyphs" textLength="304.5" x="981.75" y="620.3174">StringDisplayImplBridge(String string)</text><line style="stroke: #A80036; stroke-width: 2.25;" x1="953.25" x2="1455.75" y1="629.7979" y2="629.7979"/><ellipse cx="968.25" cy="646.2979" fill="#84BE84" rx="4.5" ry="4.5" style="stroke: #038048; stroke-width: 1.5;"/><text fill="#000000" font-family="sans-serif" font-size="16.5" lengthAdjust="spacingAndGlyphs" textLength="123" x="981.75" y="651.75">void rawOpen()</text><ellipse cx="968.25" cy="665.7305" fill="#84BE84" rx="4.5" ry="4.5" style="stroke: #038048; stroke-width: 1.5;"/><text fill="#000000" font-family="sans-serif" font-size="16.5" lengthAdjust="spacingAndGlyphs" textLength="117" x="981.75" y="671.1826">void rawPrint()</text><ellipse cx="968.25" cy="685.1631" fill="#84BE84" rx="4.5" ry="4.5" style="stroke: #038048; stroke-width: 1.5;"/><text fill="#000000" font-family="sans-serif" font-size="16.5" lengthAdjust="spacingAndGlyphs" textLength="124.5" x="981.75" y="690.6152">void rawClose()</text><rect fill="#F24D5C" height="9" style="stroke: #C82930; stroke-width: 1.5;" width="9" x="963.75" y="700.0957"/><text fill="#000000" font-family="sans-serif" font-size="16.5" lengthAdjust="spacingAndGlyphs" textLength="123" x="981.75" y="710.0479">void printLine()</text><path d="M1047.75,810 L1047.75,847.9658 A0,0 0 0 0 1047.75,847.9658 L1361.25,847.9658 A0,0 0 0 0 1361.25,847.9658 L1361.25,825 L1346.25,810 L1210.5,810 L1204.5,720.405 L1198.5,810 L1047.75,810 A0,0 0 0 0 1047.75,810 " fill="#FBFB77" filter="url(#fibfe0lu9zr9a)" style="stroke: #A80036; stroke-width: 1.5;"/><path d="M1346.25,810 L1346.25,825 L1361.25,825 L1346.25,810 " fill="#FBFB77" style="stroke: #A80036; stroke-width: 1.5;"/><text fill="#000000" font-family="sans-serif" font-size="19.5" lengthAdjust="spacingAndGlyphs" textLength="282" x="1056.75" y="836.3525">문자열을 사용해서 표시한다는 클래스</text><!--MD5=[15556a7e1f6cc162cd88eb29dc0b694d]
class DisplayImplBridge--><rect fill="#FEFECE" filter="url(#fibfe0lu9zr9a)" height="130.2979" id="DisplayImplBridge" style="stroke: #A80036; stroke-width: 2.25;" width="220.5" x="1046.25" y="261.75"/><ellipse cx="1068.75" cy="285.75" fill="#A9DCDF" rx="16.5" ry="16.5" style="stroke: #A80036; stroke-width: 1.5;"/><path d="M1068.9199,279.1472 L1067.1892,286.7549 L1070.6631,286.7549 Z M1066.6787,275.7854 L1071.1736,275.7854 L1076.1914,294.375 L1072.5183,294.375 L1071.3728,289.7805 L1066.4546,289.7805 L1065.334,294.375 L1061.6609,294.375 Z "/><ellipse cx="1097.25" cy="285" fill="#84BE84" rx="4.5" ry="4.5" style="stroke: #038048; stroke-width: 1.5;"/><text fill="#000000" font-family="sans-serif" font-size="18" font-style="italic" lengthAdjust="spacingAndGlyphs" textLength="156" x="1106.25" y="292.5527">DisplayImplBridge</text><line style="stroke: #A80036; stroke-width: 2.25;" x1="1047.75" x2="1265.25" y1="309.75" y2="309.75"/><line style="stroke: #A80036; stroke-width: 2.25;" x1="1047.75" x2="1265.25" y1="321.75" y2="321.75"/><ellipse cx="1062.75" cy="338.25" fill="#84BE84" rx="4.5" ry="4.5" style="stroke: #038048; stroke-width: 1.5;"/><text fill="#000000" font-family="sans-serif" font-size="16.5" font-style="italic" lengthAdjust="spacingAndGlyphs" textLength="127.5" x="1076.25" y="343.7021">void rawOpen();</text><ellipse cx="1062.75" cy="357.6826" fill="#84BE84" rx="4.5" ry="4.5" style="stroke: #038048; stroke-width: 1.5;"/><text fill="#000000" font-family="sans-serif" font-size="16.5" font-style="italic" lengthAdjust="spacingAndGlyphs" textLength="121.5" x="1076.25" y="363.1348">void rawPrint();</text><ellipse cx="1062.75" cy="377.1152" fill="#84BE84" rx="4.5" ry="4.5" style="stroke: #038048; stroke-width: 1.5;"/><text fill="#000000" font-family="sans-serif" font-size="16.5" font-style="italic" lengthAdjust="spacingAndGlyphs" textLength="129" x="1076.25" y="382.5674">void rawClose();</text><path d="M1071.75,96.75 L1071.75,134.7158 A0,0 0 0 0 1071.75,134.7158 L1150.5,134.7158 L1156.5,261.435 L1162.5,134.7158 L1241.25,134.7158 A0,0 0 0 0 1241.25,134.7158 L1241.25,111.75 L1226.25,96.75 L1071.75,96.75 A0,0 0 0 0 1071.75,96.75 " fill="#FBFB77" filter="url(#fibfe0lu9zr9a)" style="stroke: #A80036; stroke-width: 1.5;"/><path d="M1226.25,96.75 L1226.25,111.75 L1241.25,111.75 L1226.25,96.75 " fill="#FBFB77" style="stroke: #A80036; stroke-width: 1.5;"/><text fill="#000000" font-family="sans-serif" font-size="19.5" lengthAdjust="spacingAndGlyphs" textLength="138" x="1080.75" y="123.1025">표시한다는 클래스</text><!--MD5=[909efe38976f241de3f902a36784e2b3]
class CountDisplayBridge--><rect fill="#FEFECE" filter="url(#fibfe0lu9zr9a)" height="110.8652" id="CountDisplayBridge" style="stroke: #A80036; stroke-width: 2.25;" width="432" x="466.5" y="560.25"/><ellipse cx="489" cy="584.25" fill="#ADD1B2" rx="16.5" ry="16.5" style="stroke: #A80036; stroke-width: 1.5;"/><path d="M492.7097,593.4646 Q491.8381,593.9128 490.8794,594.137 Q489.9207,594.3611 488.8623,594.3611 Q485.1021,594.3611 483.1223,591.8833 Q481.1426,589.4055 481.1426,584.7239 Q481.1426,580.0298 483.1223,577.552 Q485.1021,575.0742 488.8623,575.0742 Q489.9207,575.0742 490.8918,575.2983 Q491.863,575.5225 492.7097,575.9707 L492.7097,580.0547 Q491.7634,579.1831 490.8732,578.7784 Q489.9829,578.3738 489.0366,578.3738 Q487.0195,578.3738 485.9923,579.9738 Q484.9651,581.5737 484.9651,584.7239 Q484.9651,587.8616 485.9923,589.4615 Q487.0195,591.0615 489.0366,591.0615 Q489.9829,591.0615 490.8732,590.6569 Q491.7634,590.2522 492.7097,589.3806 Z "/><ellipse cx="517.5" cy="583.5" fill="#84BE84" rx="4.5" ry="4.5" style="stroke: #038048; stroke-width: 1.5;"/><text fill="#000000" font-family="sans-serif" font-size="18" lengthAdjust="spacingAndGlyphs" textLength="168" x="526.5" y="591.0527">CountDisplayBridge</text><rect fill="#FFFFFF" height="24.1992" style="stroke: #000000; stroke-width: 1.5; stroke-dasharray: 2.0,2.0;" width="196.5" x="706.5" y="555.75"/><text fill="#000000" font-family="sans-serif" font-size="18" font-style="italic" lengthAdjust="spacingAndGlyphs" textLength="193.5" x="708" y="574.6523">extends DisplayBridge</text><line style="stroke: #A80036; stroke-width: 2.25;" x1="468" x2="897" y1="608.25" y2="608.25"/><ellipse cx="483" cy="624.75" fill="none" rx="4.5" ry="4.5" style="stroke: #038048; stroke-width: 1.5;"/><text fill="#000000" font-family="sans-serif" font-size="16.5" lengthAdjust="spacingAndGlyphs" textLength="354" x="496.5" y="630.2021">CountDisplayBridge(DisplayImplBridge impl)</text><line style="stroke: #A80036; stroke-width: 2.25;" x1="468" x2="897" y1="639.6826" y2="639.6826"/><ellipse cx="483" cy="656.1826" fill="#84BE84" rx="4.5" ry="4.5" style="stroke: #038048; stroke-width: 1.5;"/><text fill="#000000" font-family="sans-serif" font-size="16.5" lengthAdjust="spacingAndGlyphs" textLength="219" x="496.5" y="661.6348">void multiDisplay(int times)</text><path d="M478.5,810 L478.5,847.9658 A0,0 0 0 0 478.5,847.9658 L886.5,847.9658 A0,0 0 0 0 886.5,847.9658 L886.5,825 L871.5,810 L688.5,810 L682.5,671.325 L676.5,810 L478.5,810 A0,0 0 0 0 478.5,810 " fill="#FBFB77" filter="url(#fibfe0lu9zr9a)" style="stroke: #A80036; stroke-width: 1.5;"/><path d="M871.5,810 L871.5,825 L886.5,825 L871.5,810 " fill="#FBFB77" style="stroke: #A80036; stroke-width: 1.5;"/><text fill="#000000" font-family="sans-serif" font-size="19.5" lengthAdjust="spacingAndGlyphs" textLength="376.5" x="487.5" y="836.3525">지정 횟수만큼 표시한다는 기능을 추가하는 클래스</text><!--MD5=[63572a55c4ee6bf5ec17e30a17dfaa08]
link DisplayBridge to DisplayImplBridge--><path d="M919.005,327 C919.005,327 991.365,327 1026.63,327 " fill="none" id="DisplayBridge-DisplayImplBridge" style="stroke: #A80036; stroke-width: 1.5;"/><polygon fill="#A80036" points="1046.22,327,1032.72,321,1038.72,327,1032.72,333,1046.22,327" style="stroke: #A80036; stroke-width: 1.5;"/><line style="stroke: #A80036; stroke-width: 1.5;" x1="1038.72" x2="1026.72" y1="327" y2="327"/><polygon fill="#FFFFFF" points="901.005,327,910.005,333,919.005,327,910.005,321,901.005,327" style="stroke: #A80036; stroke-width: 1.5;"/><!--MD5=[62fd06eac987f9b37c53edf9fe97236a]
reverse link DisplayBridge to CountDisplayBridge--><path d="M708.99,451.455 C702.825,489.375 696.345,529.2 691.335,559.965 " fill="none" id="DisplayBridge&lt;-CountDisplayBridge" style="stroke: #A80036; stroke-width: 1.5;"/><polygon fill="none" points="698.655,449.595,713.835,421.665,719.385,452.97,698.655,449.595" style="stroke: #A80036; stroke-width: 1.5;"/><!--MD5=[1fc4347ae940ab02add508f471c080f5]
reverse link DisplayImplBridge to StringDisplayImplBridge--><path d="M1172.295,422.55 C1177.065,450.9 1182.315,482.175 1187.175,511.08 " fill="none" id="DisplayImplBridge&lt;-StringDisplayImplBridge" style="stroke: #A80036; stroke-width: 1.5;"/><polygon fill="none" points="1161.885,423.96,1167.27,392.625,1182.6,420.48,1161.885,423.96" style="stroke: #A80036; stroke-width: 1.5;"/><!--MD5=[889dcc3af47e86b99feb2d97ccc3e95b]
@startuml Bridge_Pattern
scale 1.5
allowmixing

package junit {
    rectangle Main
    note left of Main
        동작 테스트용 클래스
    end note
}

package design.bridge {
    +class DisplayBridge {
        -DisplayImplBridge impl
        {field}+DisplayBridge(DisplayImplBridge impl)
        +void open()
        +void print()
        +void close()
        -final void dispay()
    }
    note top of DisplayBridge
        표시한다는 클래스
    end note

    +class StringDisplayImplBridge <extends DisplayImplBridge> {
        -String string
        -int width;
        {field}+StringDisplayImplBridge(String string)
        +void rawOpen()
        +void rawPrint()
        +void rawClose()
        -void printLine()
    }
    note bottom of StringDisplayImplBridge
        문자열을 사용해서 표시한다는 클래스
    end note
    

    +abstract class DisplayImplBridge {
        +{abstract}void rawOpen();
        +{abstract}void rawPrint();
        +{abstract}void rawClose();
    }
    note top of DisplayImplBridge
        표시한다는 클래스
    end note

    +class CountDisplayBridge <extends DisplayBridge> {
        {field}+CountDisplayBridge(DisplayImplBridge impl)
        +void multiDisplay(int times)
    }
    note bottom of CountDisplayBridge
        지정 횟수만큼 표시한다는 기능을 추가하는 클래스
    end note
}

DisplayBridge o-> DisplayImplBridge
DisplayBridge <|- - CountDisplayBridge
DisplayImplBridge <|- - StringDisplayImplBridge

@enduml

PlantUML version 1.2020.09(Sun May 10 19:51:06 KST 2020)
(GPL source distribution)
Java Runtime: OpenJDK Runtime Environment
JVM: OpenJDK 64-Bit Server VM
Java Version: 11.0.7+10-b944.20
Operating System: Mac OS X
Default Encoding: UTF-8
Language: ko
Country: KR
--></g></svg>