<?xml version="1.0" encoding="UTF-8" standalone="no"?><svg xmlns="http://www.w3.org/2000/svg" xmlns:xlink="http://www.w3.org/1999/xlink" contentScriptType="application/ecmascript" contentStyleType="text/css" height="720px" preserveAspectRatio="none" style="width:1431px;height:720px;" version="1.1" viewBox="0 0 1431 720" width="1431px" zoomAndPan="magnify"><defs><filter height="300%" id="f15a08ao33zedj" width="300%" x="-1" y="-1"><feGaussianBlur result="blurOut" stdDeviation="3.0"/><feColorMatrix in="blurOut" result="blurOut2" type="matrix" values="0 0 0 0 0 0 0 0 0 0 0 0 0 0 0 0 0 0 .4 0"/><feOffset dx="6.0" dy="6.0" in="blurOut2" result="blurOut3"/><feBlend in="SourceGraphic" in2="blurOut3" mode="normal"/></filter></defs><g><!--MD5=[a5f7393cdea04c07f0a0f6edc981a525]
cluster framework--><polygon fill="#FFFFFF" filter="url(#f15a08ao33zedj)" points="171,36,297,36,307.5,69.7324,1228.5,69.7324,1228.5,352.5,171,352.5,171,36" style="stroke: #000000; stroke-width: 2.25;"/><line style="stroke: #000000; stroke-width: 2.25;" x1="171" x2="307.5" y1="69.7324" y2="69.7324"/><text fill="#000000" font-family="sans-serif" font-size="21" font-weight="bold" lengthAdjust="spacingAndGlyphs" textLength="117" x="177" y="59.3027">framework</text><!--MD5=[72136138052d025cffdce3c22fbd185f]
class Product--><rect fill="#FEFECE" filter="url(#f15a08ao33zedj)" height="110.8652" id="Product" style="stroke: #A80036; stroke-width: 2.25;" width="297" x="763.5" y="217.5"/><ellipse cx="786" cy="241.5" fill="#B4A7E5" rx="16.5" ry="16.5" style="stroke: #A80036; stroke-width: 1.5;"/><path d="M780.6416,235.8977 L780.6416,232.6604 L791.7107,232.6604 L791.7107,235.8977 L788.0127,235.8977 L788.0127,248.0127 L791.7107,248.0127 L791.7107,251.25 L780.6416,251.25 L780.6416,248.0127 L784.3396,248.0127 L784.3396,235.8977 Z "/><ellipse cx="814.5" cy="240.75" fill="#84BE84" rx="4.5" ry="4.5" style="stroke: #038048; stroke-width: 1.5;"/><text fill="#000000" font-family="sans-serif" font-size="18" font-style="italic" lengthAdjust="spacingAndGlyphs" textLength="66" x="823.5" y="248.3027">Product</text><rect fill="#FFFFFF" height="24.1992" style="stroke: #000000; stroke-width: 1.5; stroke-dasharray: 2.0,2.0;" width="163.5" x="901.5" y="213"/><text fill="#000000" font-family="sans-serif" font-size="18" font-style="italic" lengthAdjust="spacingAndGlyphs" textLength="160.5" x="903" y="231.9023">extends Cloneable</text><line style="stroke: #A80036; stroke-width: 2.25;" x1="765" x2="1059" y1="265.5" y2="265.5"/><line style="stroke: #A80036; stroke-width: 2.25;" x1="765" x2="1059" y1="277.5" y2="277.5"/><ellipse cx="780" cy="294" fill="#84BE84" rx="4.5" ry="4.5" style="stroke: #038048; stroke-width: 1.5;"/><text fill="#000000" font-family="sans-serif" font-size="16.5" font-style="italic" lengthAdjust="spacingAndGlyphs" textLength="141" x="793.5" y="299.4521">void use(String s)</text><ellipse cx="780" cy="313.4326" fill="#84BE84" rx="4.5" ry="4.5" style="stroke: #038048; stroke-width: 1.5;"/><text fill="#000000" font-family="sans-serif" font-size="16.5" font-style="italic" lengthAdjust="spacingAndGlyphs" textLength="175.5" x="793.5" y="318.8848">Product createClone()</text><path d="M695.25,88.5 L695.25,126.4658 A0,0 0 0 0 695.25,126.4658 L939.48,126.4658 L924.45,217.47 L951.48,126.4658 L1203.75,126.4658 A0,0 0 0 0 1203.75,126.4658 L1203.75,103.5 L1188.75,88.5 L695.25,88.5 A0,0 0 0 0 695.25,88.5 " fill="#FBFB77" filter="url(#f15a08ao33zedj)" style="stroke: #A80036; stroke-width: 1.5;"/><path d="M1188.75,88.5 L1188.75,103.5 L1203.75,103.5 L1188.75,88.5 " fill="#FBFB77" style="stroke: #A80036; stroke-width: 1.5;"/><text fill="#000000" font-family="sans-serif" font-size="19.5" lengthAdjust="spacingAndGlyphs" textLength="477" x="704.25" y="114.8525">추상 메소드 use와 createClone이 선언되어 있는 인터페이스</text><!--MD5=[b24ed8d4ae84bae9290d9aab401637c7]
class Manager--><rect fill="#FEFECE" filter="url(#f15a08ao33zedj)" height="110.8652" id="Manager" style="stroke: #A80036; stroke-width: 2.25;" width="370.5" x="236.25" y="217.5"/><ellipse cx="369.375" cy="241.5" fill="#ADD1B2" rx="16.5" ry="16.5" style="stroke: #A80036; stroke-width: 1.5;"/><path d="M373.0847,250.7146 Q372.2131,251.1628 371.2544,251.387 Q370.2957,251.6111 369.2373,251.6111 Q365.4771,251.6111 363.4973,249.1333 Q361.5176,246.6555 361.5176,241.9739 Q361.5176,237.2798 363.4973,234.802 Q365.4771,232.3242 369.2373,232.3242 Q370.2957,232.3242 371.2668,232.5483 Q372.238,232.7725 373.0847,233.2207 L373.0847,237.3047 Q372.1384,236.4331 371.2482,236.0284 Q370.3579,235.6238 369.4116,235.6238 Q367.3945,235.6238 366.3673,237.2238 Q365.3401,238.8237 365.3401,241.9739 Q365.3401,245.1116 366.3673,246.7115 Q367.3945,248.3115 369.4116,248.3115 Q370.3579,248.3115 371.2482,247.9069 Q372.1384,247.5022 373.0847,246.6306 Z "/><ellipse cx="407.625" cy="240.75" fill="#84BE84" rx="4.5" ry="4.5" style="stroke: #038048; stroke-width: 1.5;"/><text fill="#000000" font-family="sans-serif" font-size="18" lengthAdjust="spacingAndGlyphs" textLength="75" x="416.625" y="248.3027">Manager</text><line style="stroke: #A80036; stroke-width: 2.25;" x1="237.75" x2="605.25" y1="265.5" y2="265.5"/><rect fill="none" height="9" style="stroke: #C82930; stroke-width: 1.5;" width="9" x="248.25" y="277.5"/><text fill="#000000" font-family="sans-serif" font-size="16.5" lengthAdjust="spacingAndGlyphs" textLength="156" x="266.25" y="287.4521">HashMap showcase</text><line style="stroke: #A80036; stroke-width: 2.25;" x1="237.75" x2="605.25" y1="296.9326" y2="296.9326"/><ellipse cx="252.75" cy="313.4326" fill="#84BE84" rx="4.5" ry="4.5" style="stroke: #038048; stroke-width: 1.5;"/><text fill="#000000" font-family="sans-serif" font-size="16.5" lengthAdjust="spacingAndGlyphs" textLength="331.5" x="266.25" y="318.8848">void register(String name, Product proto)</text><path d="M195,88.5 L195,126.4658 A0,0 0 0 0 195,126.4658 L412.815,126.4658 L420.51,217.47 L424.815,126.4658 L642,126.4658 A0,0 0 0 0 642,126.4658 L642,103.5 L627,88.5 L195,88.5 A0,0 0 0 0 195,88.5 " fill="#FBFB77" filter="url(#f15a08ao33zedj)" style="stroke: #A80036; stroke-width: 1.5;"/><path d="M627,88.5 L627,103.5 L642,103.5 L627,88.5 " fill="#FBFB77" style="stroke: #A80036; stroke-width: 1.5;"/><text fill="#000000" font-family="sans-serif" font-size="19.5" lengthAdjust="spacingAndGlyphs" textLength="415.5" x="204" y="114.8525">createClone을 사용해서 인스턴스를 복제하는 클래스</text><!--MD5=[2456f3a6f5aa4d75f9c9b6fd42c52dfa]
entity Main--><rect fill="#FEFECE" filter="url(#f15a08ao33zedj)" height="54.7324" style="stroke: #000000; stroke-width: 2.25;" width="79.5" x="65.25" y="246"/><text fill="#000000" font-family="sans-serif" font-size="21" lengthAdjust="spacingAndGlyphs" textLength="49.5" x="80.25" y="281.3027">Main</text><path d="M9,479.25 L9,517.2158 A0,0 0 0 0 9,517.2158 L201,517.2158 A0,0 0 0 0 201,517.2158 L201,494.25 L186,479.25 L111,479.25 L105,300.405 L99,479.25 L9,479.25 A0,0 0 0 0 9,479.25 " fill="#FBFB77" filter="url(#f15a08ao33zedj)" style="stroke: #A80036; stroke-width: 1.5;"/><path d="M186,479.25 L186,494.25 L201,494.25 L186,479.25 " fill="#FBFB77" style="stroke: #A80036; stroke-width: 1.5;"/><text fill="#000000" font-family="sans-serif" font-size="19.5" lengthAdjust="spacingAndGlyphs" textLength="160.5" x="18" y="505.6025">동작 테스트용 클래스</text><!--MD5=[ded33122ebbd9682d9bfe2dd2b07be95]
class MessageBox--><rect fill="#FEFECE" filter="url(#f15a08ao33zedj)" height="149.7305" id="MessageBox" style="stroke: #A80036; stroke-width: 2.25;" width="349.5" x="453.75" y="423"/><ellipse cx="476.25" cy="447" fill="#ADD1B2" rx="16.5" ry="16.5" style="stroke: #A80036; stroke-width: 1.5;"/><path d="M479.9597,456.2146 Q479.0881,456.6628 478.1294,456.887 Q477.1707,457.1111 476.1123,457.1111 Q472.3521,457.1111 470.3723,454.6333 Q468.3926,452.1555 468.3926,447.4739 Q468.3926,442.7798 470.3723,440.302 Q472.3521,437.8242 476.1123,437.8242 Q477.1707,437.8242 478.1418,438.0483 Q479.113,438.2725 479.9597,438.7207 L479.9597,442.8047 Q479.0134,441.9331 478.1232,441.5284 Q477.2329,441.1238 476.2866,441.1238 Q474.2695,441.1238 473.2423,442.7238 Q472.2151,444.3237 472.2151,447.4739 Q472.2151,450.6116 473.2423,452.2115 Q474.2695,453.8115 476.2866,453.8115 Q477.2329,453.8115 478.1232,453.4069 Q479.0134,453.0022 479.9597,452.1306 Z "/><ellipse cx="504.75" cy="446.25" fill="#84BE84" rx="4.5" ry="4.5" style="stroke: #038048; stroke-width: 1.5;"/><text fill="#000000" font-family="sans-serif" font-size="18" lengthAdjust="spacingAndGlyphs" textLength="106.5" x="513.75" y="453.8027">MessageBox</text><rect fill="#FFFFFF" height="24.1992" style="stroke: #000000; stroke-width: 1.5; stroke-dasharray: 2.0,2.0;" width="175.5" x="632.25" y="418.5"/><text fill="#000000" font-family="sans-serif" font-size="18" font-style="italic" lengthAdjust="spacingAndGlyphs" textLength="172.5" x="633.75" y="437.4023">implements Product</text><line style="stroke: #A80036; stroke-width: 2.25;" x1="455.25" x2="801.75" y1="471" y2="471"/><rect fill="none" height="9" style="stroke: #C82930; stroke-width: 1.5;" width="9" x="465.75" y="483"/><text fill="#000000" font-family="sans-serif" font-size="16.5" lengthAdjust="spacingAndGlyphs" textLength="115.5" x="483.75" y="492.9521">char decochar</text><ellipse cx="470.25" cy="506.9326" fill="none" rx="4.5" ry="4.5" style="stroke: #038048; stroke-width: 1.5;"/><text fill="#000000" font-family="sans-serif" font-size="16.5" lengthAdjust="spacingAndGlyphs" textLength="226.5" x="483.75" y="512.3848">MessageBox(char decochar)</text><line style="stroke: #A80036; stroke-width: 2.25;" x1="455.25" x2="801.75" y1="521.8652" y2="521.8652"/><ellipse cx="470.25" cy="538.3652" fill="#84BE84" rx="4.5" ry="4.5" style="stroke: #038048; stroke-width: 1.5;"/><text fill="#000000" font-family="sans-serif" font-size="16.5" lengthAdjust="spacingAndGlyphs" textLength="141" x="483.75" y="543.8174">void use(String s)</text><ellipse cx="470.25" cy="557.7979" fill="#84BE84" rx="4.5" ry="4.5" style="stroke: #038048; stroke-width: 1.5;"/><text fill="#000000" font-family="sans-serif" font-size="16.5" lengthAdjust="spacingAndGlyphs" textLength="175.5" x="483.75" y="563.25">Product createClone()</text><path d="M332.25,664.5 L332.25,702.4658 A0,0 0 0 0 332.25,702.4658 L846.75,702.4658 A0,0 0 0 0 846.75,702.4658 L846.75,679.5 L831.75,664.5 L599.34,664.5 L612.75,573.105 L587.34,664.5 L332.25,664.5 A0,0 0 0 0 332.25,664.5 " fill="#FBFB77" filter="url(#f15a08ao33zedj)" style="stroke: #A80036; stroke-width: 1.5;"/><path d="M831.75,664.5 L831.75,679.5 L846.75,679.5 L831.75,664.5 " fill="#FBFB77" style="stroke: #A80036; stroke-width: 1.5;"/><text fill="#000000" font-family="sans-serif" font-size="19.5" lengthAdjust="spacingAndGlyphs" textLength="483" x="341.25" y="690.8525">문자열 테두리로 표시하는 클래스, use와 createClone을 구현</text><!--MD5=[38af23a21e939167a1d83867965a4010]
class UnderlinePen--><rect fill="#FEFECE" filter="url(#f15a08ao33zedj)" height="149.7305" id="UnderlinePen" style="stroke: #A80036; stroke-width: 2.25;" width="357" x="900" y="423"/><ellipse cx="922.5" cy="447" fill="#ADD1B2" rx="16.5" ry="16.5" style="stroke: #A80036; stroke-width: 1.5;"/><path d="M926.2097,456.2146 Q925.3381,456.6628 924.3794,456.887 Q923.4207,457.1111 922.3623,457.1111 Q918.6021,457.1111 916.6223,454.6333 Q914.6426,452.1555 914.6426,447.4739 Q914.6426,442.7798 916.6223,440.302 Q918.6021,437.8242 922.3623,437.8242 Q923.4207,437.8242 924.3918,438.0483 Q925.363,438.2725 926.2097,438.7207 L926.2097,442.8047 Q925.2634,441.9331 924.3732,441.5284 Q923.4829,441.1238 922.5366,441.1238 Q920.5195,441.1238 919.4923,442.7238 Q918.4651,444.3237 918.4651,447.4739 Q918.4651,450.6116 919.4923,452.2115 Q920.5195,453.8115 922.5366,453.8115 Q923.4829,453.8115 924.3732,453.4069 Q925.2634,453.0022 926.2097,452.1306 Z "/><ellipse cx="951" cy="446.25" fill="#84BE84" rx="4.5" ry="4.5" style="stroke: #038048; stroke-width: 1.5;"/><text fill="#000000" font-family="sans-serif" font-size="18" lengthAdjust="spacingAndGlyphs" textLength="114" x="960" y="453.8027">UnderlinePen</text><rect fill="#FFFFFF" height="24.1992" style="stroke: #000000; stroke-width: 1.5; stroke-dasharray: 2.0,2.0;" width="175.5" x="1086" y="418.5"/><text fill="#000000" font-family="sans-serif" font-size="18" font-style="italic" lengthAdjust="spacingAndGlyphs" textLength="172.5" x="1087.5" y="437.4023">implements Product</text><line style="stroke: #A80036; stroke-width: 2.25;" x1="901.5" x2="1255.5" y1="471" y2="471"/><rect fill="none" height="9" style="stroke: #C82930; stroke-width: 1.5;" width="9" x="912" y="483"/><text fill="#000000" font-family="sans-serif" font-size="16.5" lengthAdjust="spacingAndGlyphs" textLength="91.5" x="930" y="492.9521">char ulchar</text><ellipse cx="916.5" cy="506.9326" fill="none" rx="4.5" ry="4.5" style="stroke: #038048; stroke-width: 1.5;"/><text fill="#000000" font-family="sans-serif" font-size="16.5" lengthAdjust="spacingAndGlyphs" textLength="210" x="930" y="512.3848">UnderlinePen(char ulchar)</text><line style="stroke: #A80036; stroke-width: 2.25;" x1="901.5" x2="1255.5" y1="521.8652" y2="521.8652"/><ellipse cx="916.5" cy="538.3652" fill="#84BE84" rx="4.5" ry="4.5" style="stroke: #038048; stroke-width: 1.5;"/><text fill="#000000" font-family="sans-serif" font-size="16.5" lengthAdjust="spacingAndGlyphs" textLength="141" x="930" y="543.8174">void use(String s)</text><ellipse cx="916.5" cy="557.7979" fill="#84BE84" rx="4.5" ry="4.5" style="stroke: #038048; stroke-width: 1.5;"/><text fill="#000000" font-family="sans-serif" font-size="16.5" lengthAdjust="spacingAndGlyphs" textLength="175.5" x="930" y="563.25">Product createClone()</text><path d="M899.25,664.5 L899.25,702.4658 A0,0 0 0 0 899.25,702.4658 L1413.75,702.4658 A0,0 0 0 0 1413.75,702.4658 L1413.75,679.5 L1398.75,664.5 L1154.835,664.5 L1110,573.105 L1142.835,664.5 L899.25,664.5 A0,0 0 0 0 899.25,664.5 " fill="#FBFB77" filter="url(#f15a08ao33zedj)" style="stroke: #A80036; stroke-width: 1.5;"/><path d="M1398.75,664.5 L1398.75,679.5 L1413.75,679.5 L1398.75,664.5 " fill="#FBFB77" style="stroke: #A80036; stroke-width: 1.5;"/><text fill="#000000" font-family="sans-serif" font-size="19.5" lengthAdjust="spacingAndGlyphs" textLength="483" x="908.25" y="690.8525">문자열에 밑줄을 표시하는 클래스, use와 createClone을 구현</text><!--MD5=[bf6fb5a57dee6315fa24e52f6e11f24e]
link Main to Manager--><path d="M145.08,273 C167.415,273 197.04,273 228.585,273 " fill="none" id="Main-&gt;Manager" style="stroke: #A80036; stroke-width: 1.5;"/><polygon fill="#A80036" points="236.22,273,222.72,267,228.72,273,222.72,279,236.22,273" style="stroke: #A80036; stroke-width: 1.5;"/><text fill="#000000" font-family="sans-serif" font-size="19.5" lengthAdjust="spacingAndGlyphs" textLength="36" x="172.5" y="263.3525">Call</text><!--MD5=[b066ce0f6ce15279bcf49ca66b1c09ea]
link Manager to Product--><path d="M606.93,273 C655.995,273 708.45,273 755.79,273 " fill="none" id="Manager-&gt;Product" style="stroke: #A80036; stroke-width: 1.5;"/><polygon fill="#A80036" points="763.335,273,749.835,267,755.835,273,749.835,279,763.335,273" style="stroke: #A80036; stroke-width: 1.5;"/><text fill="#000000" font-family="sans-serif" font-size="19.5" lengthAdjust="spacingAndGlyphs" textLength="45" x="652.875" y="263.3525">Uses</text><polygon fill="#000000" points="702.375,253.7329,711.375,258.2329,702.375,262.7329,702.375,253.7329" style="stroke: #000000; stroke-width: 1.5;"/><!--MD5=[55d9170b6d201d4994eff292697b1559]
reverse link Product to UnderlinePen--><path d="M957.27,334.86 C977.58,361.935 1001.73,394.14 1023.105,422.64 " fill="none" id="Product&lt;-UnderlinePen" style="stroke: #A80036; stroke-width: 1.5; stroke-dasharray: 7.0,7.0;"/><polygon fill="#A80036" points="952.725,328.8,956.025,343.2,957.225,334.8,965.625,336,952.725,328.8" style="stroke: #A80036; stroke-width: 1.5;"/><!--MD5=[a57b9b514f333859cba961e767fd6ff9]
reverse link Product to MessageBox--><path d="M836.655,333.495 C801.72,360.855 759.84,393.66 722.82,422.64 " fill="none" id="Product&lt;-MessageBox" style="stroke: #A80036; stroke-width: 1.5; stroke-dasharray: 7.0,7.0;"/><polygon fill="#A80036" points="842.655,328.8,828.3258,332.3951,836.7487,333.4223,835.7215,341.8452,842.655,328.8" style="stroke: #A80036; stroke-width: 1.5;"/><!--MD5=[8fd6e50faa3eef1b4c037e92185335d5]
@startuml Prototype_Pattern
scale 1.5

allowmixing
rectangle Main
note bottom
    동작 테스트용 클래스
end note

package framework {
    +interface Product <extends Cloneable> {
        +{abstract} void use(String s)
        +{abstract} Product createClone()
    }
    note top
        추상 메소드 use와 createClone이 선언되어 있는 인터페이스
    end note

    +class Manager {
        -HashMap showcase
        +void register(String name, Product proto)
    }
    note top
        createClone을 사용해서 인스턴스를 복제하는 클래스
    end note
}

+class MessageBox <implements Product> {
    -char decochar
    {field}+ MessageBox(char decochar)
    +void use(String s)
    +Product createClone()
}
note bottom
    문자열 테두리로 표시하는 클래스, use와 createClone을 구현
end note

+class UnderlinePen <implements Product> {
    - char ulchar
    {field}+ UnderlinePen(char ulchar)
    +void use(String s)
    +Product createClone()
}
note bottom
    문자열에 밑줄을 표시하는 클래스, use와 createClone을 구현
end note

Main -right-> Manager : Call
Manager -right-> Product : Uses >
UnderlinePen .up.> Product
MessageBox .up.> Product
@enduml

PlantUML version 1.2020.09(Sun May 10 19:51:06 KST 2020)
(GPL source distribution)
Java Runtime: OpenJDK Runtime Environment
JVM: OpenJDK 64-Bit Server VM
Java Version: 11.0.7+10-b765.64
Operating System: Mac OS X
Default Encoding: UTF-8
Language: ko
Country: KR
--></g></svg>