<?xml version="1.0" encoding="UTF-8" standalone="no"?><svg xmlns="http://www.w3.org/2000/svg" xmlns:xlink="http://www.w3.org/1999/xlink" contentScriptType="application/ecmascript" contentStyleType="text/css" height="862.5px" preserveAspectRatio="none" style="width:1449px;height:862px;" version="1.1" viewBox="0 0 1449 862" width="1449px" zoomAndPan="magnify"><defs><filter height="300%" id="faao4bwq41ytd" width="300%" x="-1" y="-1"><feGaussianBlur result="blurOut" stdDeviation="3.0"/><feColorMatrix in="blurOut" result="blurOut2" type="matrix" values="0 0 0 0 0 0 0 0 0 0 0 0 0 0 0 0 0 0 .4 0"/><feOffset dx="6.0" dy="6.0" in="blurOut2" result="blurOut3"/><feBlend in="SourceGraphic" in2="blurOut3" mode="normal"/></filter></defs><g><!--MD5=[b6fb9d35cc7b548bdc5c5c79bf7d651a]
cluster junit--><polygon fill="#FFFFFF" filter="url(#faao4bwq41ytd)" points="33,213,93,213,103.5,246.7324,406.5,246.7324,406.5,343.5,33,343.5,33,213" style="stroke: #000000; stroke-width: 2.25;"/><line style="stroke: #000000; stroke-width: 2.25;" x1="33" x2="103.5" y1="246.7324" y2="246.7324"/><text fill="#000000" font-family="sans-serif" font-size="21" font-weight="bold" lengthAdjust="spacingAndGlyphs" textLength="51" x="39" y="236.3027">junit</text><!--MD5=[cb8d11db42c2f7c0a99b1d20cd84a723]
cluster design.builder--><polygon fill="#FFFFFF" filter="url(#faao4bwq41ytd)" points="442.5,36,604.5,36,615,69.7324,1416,69.7324,1416,844.5,442.5,844.5,442.5,36" style="stroke: #000000; stroke-width: 2.25;"/><line style="stroke: #000000; stroke-width: 2.25;" x1="442.5" x2="615" y1="69.7324" y2="69.7324"/><text fill="#000000" font-family="sans-serif" font-size="21" font-weight="bold" lengthAdjust="spacingAndGlyphs" textLength="153" x="448.5" y="59.3027">design.builder</text><!--MD5=[2456f3a6f5aa4d75f9c9b6fd42c52dfa]
entity Main--><rect fill="#FEFECE" filter="url(#faao4bwq41ytd)" height="54.7324" style="stroke: #000000; stroke-width: 2.25;" width="79.5" x="302.25" y="265.5"/><text fill="#000000" font-family="sans-serif" font-size="21" lengthAdjust="spacingAndGlyphs" textLength="49.5" x="317.25" y="300.8027">Main</text><path d="M57,273.75 L57,311.7158 A0,0 0 0 0 57,311.7158 L249,311.7158 A0,0 0 0 0 249,311.7158 L249,300.75 L301.62,292.5 L249,288.75 L249,288.75 L234,273.75 L57,273.75 A0,0 0 0 0 57,273.75 " fill="#FBFB77" filter="url(#faao4bwq41ytd)" style="stroke: #A80036; stroke-width: 1.5;"/><path d="M234,273.75 L234,288.75 L249,288.75 L234,273.75 " fill="#FBFB77" style="stroke: #A80036; stroke-width: 1.5;"/><text fill="#000000" font-family="sans-serif" font-size="19.5" lengthAdjust="spacingAndGlyphs" textLength="160.5" x="66" y="300.1025">동작 테스트용 클래스</text><!--MD5=[a8dc8aefce085dae70bec15e302cfec9]
class Builder--><rect fill="#FEFECE" filter="url(#faao4bwq41ytd)" height="149.7305" id="Builder" style="stroke: #A80036; stroke-width: 2.25;" width="283.5" x="816.75" y="217.5"/><ellipse cx="913.875" cy="241.5" fill="#A9DCDF" rx="16.5" ry="16.5" style="stroke: #A80036; stroke-width: 1.5;"/><path d="M914.0449,234.8972 L912.3142,242.5049 L915.7881,242.5049 Z M911.8037,231.5354 L916.2986,231.5354 L921.3164,250.125 L917.6433,250.125 L916.4978,245.5305 L911.5796,245.5305 L910.459,250.125 L906.7859,250.125 Z "/><ellipse cx="952.125" cy="240.75" fill="#84BE84" rx="4.5" ry="4.5" style="stroke: #038048; stroke-width: 1.5;"/><text fill="#000000" font-family="sans-serif" font-size="18" font-style="italic" lengthAdjust="spacingAndGlyphs" textLength="60" x="961.125" y="248.3027">Builder</text><line style="stroke: #A80036; stroke-width: 2.25;" x1="818.25" x2="1098.75" y1="265.5" y2="265.5"/><line style="stroke: #A80036; stroke-width: 2.25;" x1="818.25" x2="1098.75" y1="277.5" y2="277.5"/><ellipse cx="833.25" cy="294" fill="#84BE84" rx="4.5" ry="4.5" style="stroke: #038048; stroke-width: 1.5;"/><text fill="#000000" font-family="sans-serif" font-size="16.5" font-style="italic" lengthAdjust="spacingAndGlyphs" textLength="210" x="846.75" y="299.4521">void makeTitle(String title)</text><ellipse cx="833.25" cy="313.4326" fill="#84BE84" rx="4.5" ry="4.5" style="stroke: #038048; stroke-width: 1.5;"/><text fill="#000000" font-family="sans-serif" font-size="16.5" font-style="italic" lengthAdjust="spacingAndGlyphs" textLength="216" x="846.75" y="318.8848">void makeString(String str)</text><ellipse cx="833.25" cy="332.8652" fill="#84BE84" rx="4.5" ry="4.5" style="stroke: #038048; stroke-width: 1.5;"/><text fill="#000000" font-family="sans-serif" font-size="16.5" font-style="italic" lengthAdjust="spacingAndGlyphs" textLength="244.5" x="846.75" y="338.3174">void makeItems(String[] items)</text><ellipse cx="833.25" cy="352.2979" fill="#84BE84" rx="4.5" ry="4.5" style="stroke: #038048; stroke-width: 1.5;"/><text fill="#000000" font-family="sans-serif" font-size="16.5" font-style="italic" lengthAdjust="spacingAndGlyphs" textLength="93" x="846.75" y="357.75">void close()</text><path d="M785.25,88.5 L785.25,126.4658 A0,0 0 0 0 785.25,126.4658 L990.48,126.4658 L975.48,217.305 L1002.48,126.4658 L1215.75,126.4658 A0,0 0 0 0 1215.75,126.4658 L1215.75,103.5 L1200.75,88.5 L785.25,88.5 A0,0 0 0 0 785.25,88.5 " fill="#FBFB77" filter="url(#faao4bwq41ytd)" style="stroke: #A80036; stroke-width: 1.5;"/><path d="M1200.75,88.5 L1200.75,103.5 L1215.75,103.5 L1200.75,88.5 " fill="#FBFB77" style="stroke: #A80036; stroke-width: 1.5;"/><text fill="#000000" font-family="sans-serif" font-size="19.5" lengthAdjust="spacingAndGlyphs" textLength="399" x="794.25" y="114.8525">문서를 구성하기 위한 메소드를 결정하는 추상 클래스</text><!--MD5=[57adcbfcd00175f9b7abe25398e7de0c]
class Director--><rect fill="#FEFECE" filter="url(#faao4bwq41ytd)" height="130.2979" id="Director" style="stroke: #A80036; stroke-width: 2.25;" width="234" x="501" y="227.25"/><ellipse cx="568.875" cy="251.25" fill="#ADD1B2" rx="16.5" ry="16.5" style="stroke: #A80036; stroke-width: 1.5;"/><path d="M572.5847,260.4646 Q571.7131,260.9128 570.7544,261.137 Q569.7957,261.3611 568.7373,261.3611 Q564.9771,261.3611 562.9973,258.8833 Q561.0176,256.4055 561.0176,251.7239 Q561.0176,247.0298 562.9973,244.552 Q564.9771,242.0742 568.7373,242.0742 Q569.7957,242.0742 570.7668,242.2983 Q571.738,242.5225 572.5847,242.9707 L572.5847,247.0547 Q571.6384,246.1831 570.7482,245.7784 Q569.8579,245.3738 568.9116,245.3738 Q566.8945,245.3738 565.8673,246.9738 Q564.8401,248.5737 564.8401,251.7239 Q564.8401,254.8616 565.8673,256.4615 Q566.8945,258.0615 568.9116,258.0615 Q569.8579,258.0615 570.7482,257.6569 Q571.6384,257.2522 572.5847,256.3806 Z "/><ellipse cx="607.125" cy="250.5" fill="#84BE84" rx="4.5" ry="4.5" style="stroke: #038048; stroke-width: 1.5;"/><text fill="#000000" font-family="sans-serif" font-size="18" lengthAdjust="spacingAndGlyphs" textLength="69" x="616.125" y="258.0527">Director</text><line style="stroke: #A80036; stroke-width: 2.25;" x1="502.5" x2="733.5" y1="275.25" y2="275.25"/><rect fill="none" height="9" style="stroke: #C82930; stroke-width: 1.5;" width="9" x="513" y="287.25"/><text fill="#000000" font-family="sans-serif" font-size="16.5" lengthAdjust="spacingAndGlyphs" textLength="117" x="531" y="297.2021">Builder builder</text><ellipse cx="517.5" cy="311.1826" fill="none" rx="4.5" ry="4.5" style="stroke: #038048; stroke-width: 1.5;"/><text fill="#000000" font-family="sans-serif" font-size="16.5" lengthAdjust="spacingAndGlyphs" textLength="195" x="531" y="316.6348">Director(Builder builder)</text><line style="stroke: #A80036; stroke-width: 2.25;" x1="502.5" x2="733.5" y1="326.1152" y2="326.1152"/><ellipse cx="517.5" cy="342.6152" fill="#84BE84" rx="4.5" ry="4.5" style="stroke: #038048; stroke-width: 1.5;"/><text fill="#000000" font-family="sans-serif" font-size="16.5" lengthAdjust="spacingAndGlyphs" textLength="129" x="531" y="348.0674">void construct()</text><path d="M479.25,88.5 L479.25,126.4658 A0,0 0 0 0 479.25,126.4658 L601.155,126.4658 L613.785,226.965 L613.155,126.4658 L732.75,126.4658 A0,0 0 0 0 732.75,126.4658 L732.75,103.5 L717.75,88.5 L479.25,88.5 A0,0 0 0 0 479.25,88.5 " fill="#FBFB77" filter="url(#faao4bwq41ytd)" style="stroke: #A80036; stroke-width: 1.5;"/><path d="M717.75,88.5 L717.75,103.5 L732.75,103.5 L717.75,88.5 " fill="#FBFB77" style="stroke: #A80036; stroke-width: 1.5;"/><text fill="#000000" font-family="sans-serif" font-size="19.5" lengthAdjust="spacingAndGlyphs" textLength="222" x="488.25" y="114.8525">한 개의 문서를 만드는 클래스</text><!--MD5=[ec2e8f2a8b9cc474e00953e4337b26b4]
class HTMLBuilder--><rect fill="#FEFECE" filter="url(#faao4bwq41ytd)" height="208.0283" id="HTMLBuilder" style="stroke: #A80036; stroke-width: 2.25;" width="315" x="483" y="483"/><ellipse cx="505.5" cy="507" fill="#ADD1B2" rx="16.5" ry="16.5" style="stroke: #A80036; stroke-width: 1.5;"/><path d="M509.2097,516.2146 Q508.3381,516.6628 507.3794,516.887 Q506.4207,517.1111 505.3623,517.1111 Q501.6021,517.1111 499.6223,514.6333 Q497.6426,512.1555 497.6426,507.4739 Q497.6426,502.7798 499.6223,500.302 Q501.6021,497.8242 505.3623,497.8242 Q506.4207,497.8242 507.3918,498.0483 Q508.363,498.2725 509.2097,498.7207 L509.2097,502.8047 Q508.2634,501.9331 507.3732,501.5284 Q506.4829,501.1238 505.5366,501.1238 Q503.5195,501.1238 502.4923,502.7238 Q501.4651,504.3237 501.4651,507.4739 Q501.4651,510.6116 502.4923,512.2115 Q503.5195,513.8115 505.5366,513.8115 Q506.4829,513.8115 507.3732,513.4069 Q508.2634,513.0022 509.2097,512.1306 Z "/><ellipse cx="534" cy="506.25" fill="#84BE84" rx="4.5" ry="4.5" style="stroke: #038048; stroke-width: 1.5;"/><text fill="#000000" font-family="sans-serif" font-size="18" lengthAdjust="spacingAndGlyphs" textLength="109.5" x="543" y="513.8027">HTMLBuilder</text><rect fill="#FFFFFF" height="24.1992" style="stroke: #000000; stroke-width: 1.5; stroke-dasharray: 2.0,2.0;" width="138" x="664.5" y="478.5"/><text fill="#000000" font-family="sans-serif" font-size="18" font-style="italic" lengthAdjust="spacingAndGlyphs" textLength="135" x="666" y="497.4023">extends Builder</text><line style="stroke: #A80036; stroke-width: 2.25;" x1="484.5" x2="796.5" y1="531" y2="531"/><rect fill="none" height="9" style="stroke: #C82930; stroke-width: 1.5;" width="9" x="495" y="543"/><text fill="#000000" font-family="sans-serif" font-size="16.5" lengthAdjust="spacingAndGlyphs" textLength="124.5" x="513" y="552.9521">String filename;</text><rect fill="none" height="9" style="stroke: #C82930; stroke-width: 1.5;" width="9" x="495" y="562.4326"/><text fill="#000000" font-family="sans-serif" font-size="16.5" lengthAdjust="spacingAndGlyphs" textLength="141" x="513" y="572.3848">PrintWriter writer;</text><line style="stroke: #A80036; stroke-width: 2.25;" x1="484.5" x2="796.5" y1="581.8652" y2="581.8652"/><ellipse cx="499.5" cy="598.3652" fill="#84BE84" rx="4.5" ry="4.5" style="stroke: #038048; stroke-width: 1.5;"/><text fill="#000000" font-family="sans-serif" font-size="16.5" lengthAdjust="spacingAndGlyphs" textLength="210" x="513" y="603.8174">void makeTitle(String title)</text><ellipse cx="499.5" cy="617.7979" fill="#84BE84" rx="4.5" ry="4.5" style="stroke: #038048; stroke-width: 1.5;"/><text fill="#000000" font-family="sans-serif" font-size="16.5" lengthAdjust="spacingAndGlyphs" textLength="216" x="513" y="623.25">void makeString(String str)</text><ellipse cx="499.5" cy="637.2305" fill="#84BE84" rx="4.5" ry="4.5" style="stroke: #038048; stroke-width: 1.5;"/><text fill="#000000" font-family="sans-serif" font-size="16.5" lengthAdjust="spacingAndGlyphs" textLength="244.5" x="513" y="642.6826">void makeItems(String[] items)</text><ellipse cx="499.5" cy="656.6631" fill="#84BE84" rx="4.5" ry="4.5" style="stroke: #038048; stroke-width: 1.5;"/><text fill="#000000" font-family="sans-serif" font-size="16.5" lengthAdjust="spacingAndGlyphs" textLength="93" x="513" y="662.1152">void close()</text><ellipse cx="499.5" cy="676.0957" fill="#84BE84" rx="4.5" ry="4.5" style="stroke: #038048; stroke-width: 1.5;"/><text fill="#000000" font-family="sans-serif" font-size="16.5" lengthAdjust="spacingAndGlyphs" textLength="139.5" x="513" y="681.5479">String getResult()</text><path d="M467.25,783 L467.25,820.9658 A0,0 0 0 0 467.25,820.9658 L846.75,820.9658 A0,0 0 0 0 846.75,820.9658 L846.75,798 L831.75,783 L661.605,783 L648.555,692.025 L649.605,783 L467.25,783 A0,0 0 0 0 467.25,783 " fill="#FBFB77" filter="url(#faao4bwq41ytd)" style="stroke: #A80036; stroke-width: 1.5;"/><path d="M831.75,783 L831.75,798 L846.75,798 L831.75,783 " fill="#FBFB77" style="stroke: #A80036; stroke-width: 1.5;"/><text fill="#000000" font-family="sans-serif" font-size="19.5" lengthAdjust="spacingAndGlyphs" textLength="348" x="476.25" y="809.3525">HTML 파일을 이용해서 문서를 만드는 클래스</text><!--MD5=[3a053060ad8052c0eac4f558be8f93ff]
class TextBuilder--><rect fill="#FEFECE" filter="url(#faao4bwq41ytd)" height="188.5957" id="TextBuilder" style="stroke: #A80036; stroke-width: 2.25;" width="355.5" x="851.25" y="492.75"/><ellipse cx="896.7" cy="516.75" fill="#ADD1B2" rx="16.5" ry="16.5" style="stroke: #A80036; stroke-width: 1.5;"/><path d="M900.4097,525.9646 Q899.5381,526.4128 898.5794,526.637 Q897.6207,526.8611 896.5623,526.8611 Q892.8021,526.8611 890.8223,524.3833 Q888.8426,521.9055 888.8426,517.2239 Q888.8426,512.5298 890.8223,510.052 Q892.8021,507.5742 896.5623,507.5742 Q897.6207,507.5742 898.5918,507.7983 Q899.563,508.0225 900.4097,508.4707 L900.4097,512.5547 Q899.4634,511.6831 898.5732,511.2784 Q897.6829,510.8738 896.7366,510.8738 Q894.7195,510.8738 893.6923,512.4738 Q892.6651,514.0737 892.6651,517.2239 Q892.6651,520.3616 893.6923,521.9615 Q894.7195,523.5615 896.7366,523.5615 Q897.6829,523.5615 898.5732,523.1569 Q899.4634,522.7522 900.4097,521.8806 Z "/><ellipse cx="930.3" cy="516" fill="#84BE84" rx="4.5" ry="4.5" style="stroke: #038048; stroke-width: 1.5;"/><text fill="#000000" font-family="sans-serif" font-size="18" lengthAdjust="spacingAndGlyphs" textLength="99" x="939.3" y="523.5527">TextBuilder</text><rect fill="#FFFFFF" height="24.1992" style="stroke: #000000; stroke-width: 1.5; stroke-dasharray: 2.0,2.0;" width="138" x="1073.25" y="488.25"/><text fill="#000000" font-family="sans-serif" font-size="18" font-style="italic" lengthAdjust="spacingAndGlyphs" textLength="135" x="1074.75" y="507.1523">extends Builder</text><line style="stroke: #A80036; stroke-width: 2.25;" x1="852.75" x2="1205.25" y1="540.75" y2="540.75"/><line style="stroke: #A80036; stroke-width: 2.25;" x1="852.75" x2="1205.25" y1="552.75" y2="552.75"/><rect fill="#F24D5C" height="9" style="stroke: #C82930; stroke-width: 1.5;" width="9" x="863.25" y="564.75"/><text fill="#000000" font-family="sans-serif" font-size="16.5" lengthAdjust="spacingAndGlyphs" textLength="316.5" x="881.25" y="574.7021">StringBuffer buffer = new StringBuffer()</text><ellipse cx="867.75" cy="588.6826" fill="#84BE84" rx="4.5" ry="4.5" style="stroke: #038048; stroke-width: 1.5;"/><text fill="#000000" font-family="sans-serif" font-size="16.5" lengthAdjust="spacingAndGlyphs" textLength="210" x="881.25" y="594.1348">void makeTitle(String title)</text><ellipse cx="867.75" cy="608.1152" fill="#84BE84" rx="4.5" ry="4.5" style="stroke: #038048; stroke-width: 1.5;"/><text fill="#000000" font-family="sans-serif" font-size="16.5" lengthAdjust="spacingAndGlyphs" textLength="216" x="881.25" y="613.5674">void makeString(String str)</text><ellipse cx="867.75" cy="627.5479" fill="#84BE84" rx="4.5" ry="4.5" style="stroke: #038048; stroke-width: 1.5;"/><text fill="#000000" font-family="sans-serif" font-size="16.5" lengthAdjust="spacingAndGlyphs" textLength="244.5" x="881.25" y="633">void makeItems(String[] items)</text><ellipse cx="867.75" cy="646.9805" fill="#84BE84" rx="4.5" ry="4.5" style="stroke: #038048; stroke-width: 1.5;"/><text fill="#000000" font-family="sans-serif" font-size="16.5" lengthAdjust="spacingAndGlyphs" textLength="93" x="881.25" y="652.4326">void close()</text><ellipse cx="867.75" cy="666.4131" fill="#84BE84" rx="4.5" ry="4.5" style="stroke: #038048; stroke-width: 1.5;"/><text fill="#000000" font-family="sans-serif" font-size="16.5" lengthAdjust="spacingAndGlyphs" textLength="139.5" x="881.25" y="671.8652">String getResult()</text><path d="M900,783 L900,820.9658 A0,0 0 0 0 900,820.9658 L1392,820.9658 A0,0 0 0 0 1392,820.9658 L1392,798 L1377,783 L1142.31,783 L1080.66,682.14 L1130.31,783 L900,783 A0,0 0 0 0 900,783 " fill="#FBFB77" filter="url(#faao4bwq41ytd)" style="stroke: #A80036; stroke-width: 1.5;"/><path d="M1377,783 L1377,798 L1392,798 L1377,783 " fill="#FBFB77" style="stroke: #A80036; stroke-width: 1.5;"/><text fill="#000000" font-family="sans-serif" font-size="19.5" lengthAdjust="spacingAndGlyphs" textLength="460.5" x="909" y="809.3525">일반 텍스트(보통의 문자열)를 이용해서 문서를 만드는 클래스</text><!--MD5=[61bd507a4c8657cf262873586745c351]
link Main to Director--><path d="M382.14,292.5 C411.42,292.5 452.85,292.5 492.81,292.5 " fill="none" id="Main-&gt;Director" style="stroke: #A80036; stroke-width: 1.5;"/><polygon fill="#A80036" points="500.79,292.5,487.29,286.5,493.29,292.5,487.29,298.5,500.79,292.5" style="stroke: #A80036; stroke-width: 1.5;"/><text fill="#000000" font-family="sans-serif" font-size="19.5" lengthAdjust="spacingAndGlyphs" textLength="45" x="409.125" y="317.3525">Uses</text><polygon fill="#000000" points="458.625,307.7329,467.625,312.2329,458.625,316.7329,458.625,307.7329" style="stroke: #000000; stroke-width: 1.5;"/><!--MD5=[2760341590ffd2e711ef41992cc437b9]
link Director to Builder--><path d="M753.045,292.5 C753.045,292.5 782.835,292.5 796.845,292.5 " fill="none" id="Director-Builder" style="stroke: #A80036; stroke-width: 1.5;"/><polygon fill="#A80036" points="816.66,292.5,803.16,286.5,809.16,292.5,803.16,298.5,816.66,292.5" style="stroke: #A80036; stroke-width: 1.5;"/><line style="stroke: #A80036; stroke-width: 1.5;" x1="809.16" x2="797.16" y1="292.5" y2="292.5"/><polygon fill="#FFFFFF" points="735.045,292.5,744.045,298.5,753.045,292.5,744.045,286.5,735.045,292.5" style="stroke: #A80036; stroke-width: 1.5;"/><!--MD5=[803636309f7a8eba9dec175ba5e2d609]
reverse link Builder to TextBuilder--><path d="M978.135,375.27 C986.91,411.585 997.305,454.59 1006.395,492.24 " fill="none" id="Builder&lt;-TextBuilder" style="stroke: #A80036; stroke-width: 1.5;"/><polygon fill="#A80036" points="976.29,367.62,973.6127,382.1487,978.0435,374.9121,985.2801,379.343,976.29,367.62" style="stroke: #A80036; stroke-width: 1.5;"/><!--MD5=[9556dc30f19d72e4e2765e5ed7fdead7]
reverse link Builder to HTMLBuilder--><path d="M872.385,373.005 C835.5,406.86 791.91,446.835 752.55,482.955 " fill="none" id="Builder&lt;-HTMLBuilder" style="stroke: #A80036; stroke-width: 1.5;"/><polygon fill="#A80036" points="878.25,367.62,864.2391,372.3046,872.716,372.6821,872.3385,381.159,878.25,367.62" style="stroke: #A80036; stroke-width: 1.5;"/><!--MD5=[1ab3e0244f62f8daf996c1854e3fb3cf]
link Main to TextBuilder--><path d="M371.49,319.71 C390.645,335.34 416.775,354.675 442.5,367.5 C521.97,407.1 742.545,450.075 825,483 C831.09,485.43 837.24,487.98 843.42,490.605 " fill="none" id="Main-&gt;TextBuilder" style="stroke: #A80036; stroke-width: 1.5;"/><polygon fill="#A80036" points="850.695,493.74,840.6623,482.8959,843.8047,490.7778,835.9228,493.9203,850.695,493.74" style="stroke: #A80036; stroke-width: 1.5;"/><text fill="#000000" font-family="sans-serif" font-size="19.5" lengthAdjust="spacingAndGlyphs" textLength="45" x="669" y="432.8525">Uses</text><polygon fill="#000000" points="718.5,423.2329,727.5,427.7329,718.5,432.2329,718.5,423.2329" style="stroke: #000000; stroke-width: 1.5;"/><!--MD5=[86c2258a6732f1f7583ef4b9d700c95a]
link Main to HTMLBuilder--><path d="M368.49,319.89 C404.565,355.155 471.345,420.42 529.71,477.465 " fill="none" id="Main-&gt;HTMLBuilder" style="stroke: #A80036; stroke-width: 1.5;"/><polygon fill="#A80036" points="535.335,482.955,529.8646,469.2318,529.9677,477.7165,521.483,477.8196,535.335,482.955" style="stroke: #A80036; stroke-width: 1.5;"/><text fill="#000000" font-family="sans-serif" font-size="19.5" lengthAdjust="spacingAndGlyphs" textLength="43.5" x="483" y="432.8525">uses</text><polygon fill="#000000" points="531,423.2329,540,427.7329,531,432.2329,531,423.2329" style="stroke: #000000; stroke-width: 1.5;"/><!--MD5=[4e96fec5591e30775e725272eee2886c]
@startuml Builder_Pattern
scale 1.5
allowmixing

package junit {
    rectangle Main
    note left of Main
        동작 테스트용 클래스
    end note
}

package design.builder {
    +abstract class Builder {
        +{abstract} void makeTitle(String title)
        +{abstract} void makeString(String str)
        +{abstract} void makeItems(String[] items)
        +{abstract} void close()
    }
    note top of Builder
        문서를 구성하기 위한 메소드를 결정하는 추상 클래스
    end note

    +class Director {
        -Builder builder
        {field}+Director(Builder builder)
        +void construct()
    }
    note top of Director
        한 개의 문서를 만드는 클래스
    end note

    +class HTMLBuilder <extends Builder> {
        -String filename;
        -PrintWriter writer;
        +void makeTitle(String title)
        +void makeString(String str)
        +void makeItems(String[] items)
        +void close()
        +String getResult()
    }
    note bottom of HTMLBuilder
        HTML 파일을 이용해서 문서를 만드는 클래스
    end note

    +class TextBuilder <extends Builder> {
        -StringBuffer buffer = new StringBuffer()
        +void makeTitle(String title)
        +void makeString(String str)
        +void makeItems(String[] items)
        +void close()
        +String getResult()
    }
    note bottom of TextBuilder
        일반 텍스트(보통의 문자열)를 이용해서 문서를 만드는 클래스
    end note
}

Main -right-> Director : Uses >
Director o-right-> Builder
TextBuilder -up-> Builder
HTMLBuilder -up-> Builder
Main - -> TextBuilder : Uses >
Main - -> HTMLBuilder : uses >

@enduml

PlantUML version 1.2020.09(Sun May 10 19:51:06 KST 2020)
(GPL source distribution)
Java Runtime: OpenJDK Runtime Environment
JVM: OpenJDK 64-Bit Server VM
Java Version: 11.0.7+10-b944.20
Operating System: Mac OS X
Default Encoding: UTF-8
Language: ko
Country: KR
--></g></svg>