<?xml version="1.0" encoding="UTF-8" standalone="no"?><svg xmlns="http://www.w3.org/2000/svg" xmlns:xlink="http://www.w3.org/1999/xlink" contentScriptType="application/ecmascript" contentStyleType="text/css" height="709.5px" preserveAspectRatio="none" style="width:1446px;height:709px;" version="1.1" viewBox="0 0 1446 709" width="1446px" zoomAndPan="magnify"><defs><filter height="300%" id="febzp6qq9bs8y" width="300%" x="-1" y="-1"><feGaussianBlur result="blurOut" stdDeviation="3.0"/><feColorMatrix in="blurOut" result="blurOut2" type="matrix" values="0 0 0 0 0 0 0 0 0 0 0 0 0 0 0 0 0 0 .4 0"/><feOffset dx="6.0" dy="6.0" in="blurOut2" result="blurOut3"/><feBlend in="SourceGraphic" in2="blurOut3" mode="normal"/></filter></defs><g><!--MD5=[b6fb9d35cc7b548bdc5c5c79bf7d651a]
cluster junit--><polygon fill="#FFFFFF" filter="url(#febzp6qq9bs8y)" points="33,84,93,84,103.5,117.7324,406.5,117.7324,406.5,214.5,33,214.5,33,84" style="stroke: #000000; stroke-width: 2.25;"/><line style="stroke: #000000; stroke-width: 2.25;" x1="33" x2="103.5" y1="117.7324" y2="117.7324"/><text fill="#000000" font-family="sans-serif" font-size="21" font-weight="bold" lengthAdjust="spacingAndGlyphs" textLength="51" x="39" y="107.3027">junit</text><!--MD5=[0dd3cd7d4f98a0f195ce9ddfae12fb24]
cluster design.template--><polygon fill="#FFFFFF" filter="url(#febzp6qq9bs8y)" points="442.5,36,624,36,634.5,69.7324,1413,69.7324,1413,691.5,442.5,691.5,442.5,36" style="stroke: #000000; stroke-width: 2.25;"/><line style="stroke: #000000; stroke-width: 2.25;" x1="442.5" x2="634.5" y1="69.7324" y2="69.7324"/><text fill="#000000" font-family="sans-serif" font-size="21" font-weight="bold" lengthAdjust="spacingAndGlyphs" textLength="172.5" x="448.5" y="59.3027">design.template</text><!--MD5=[2456f3a6f5aa4d75f9c9b6fd42c52dfa]
entity Main--><rect fill="#FEFECE" filter="url(#febzp6qq9bs8y)" height="54.7324" style="stroke: #000000; stroke-width: 2.25;" width="79.5" x="302.25" y="136.5"/><text fill="#000000" font-family="sans-serif" font-size="21" lengthAdjust="spacingAndGlyphs" textLength="49.5" x="317.25" y="171.8027">Main</text><path d="M57,144.75 L57,182.7158 A0,0 0 0 0 57,182.7158 L249,182.7158 A0,0 0 0 0 249,182.7158 L249,171.75 L301.62,163.5 L249,159.75 L249,159.75 L234,144.75 L57,144.75 A0,0 0 0 0 57,144.75 " fill="#FBFB77" filter="url(#febzp6qq9bs8y)" style="stroke: #A80036; stroke-width: 1.5;"/><path d="M234,144.75 L234,159.75 L249,159.75 L234,144.75 " fill="#FBFB77" style="stroke: #A80036; stroke-width: 1.5;"/><text fill="#000000" font-family="sans-serif" font-size="19.5" lengthAdjust="spacingAndGlyphs" textLength="160.5" x="66" y="171.1025">동작 테스트용 클래스</text><!--MD5=[0129d45d9d08b0ed9ff2f6449ce199aa]
class AbstractDisplay--><rect fill="#FEFECE" filter="url(#febzp6qq9bs8y)" height="149.7305" id="AbstractDisplay" style="stroke: #A80036; stroke-width: 2.25;" width="199.5" x="527.25" y="88.5"/><ellipse cx="549.75" cy="112.5" fill="#A9DCDF" rx="16.5" ry="16.5" style="stroke: #A80036; stroke-width: 1.5;"/><path d="M549.9199,105.8972 L548.1892,113.5049 L551.6631,113.5049 Z M547.6787,102.5354 L552.1736,102.5354 L557.1914,121.125 L553.5183,121.125 L552.3728,116.5305 L547.4546,116.5305 L546.334,121.125 L542.6609,121.125 Z "/><ellipse cx="578.25" cy="111.75" fill="#84BE84" rx="4.5" ry="4.5" style="stroke: #038048; stroke-width: 1.5;"/><text fill="#000000" font-family="sans-serif" font-size="18" font-style="italic" lengthAdjust="spacingAndGlyphs" textLength="135" x="587.25" y="119.3027">AbstractDisplay</text><line style="stroke: #A80036; stroke-width: 2.25;" x1="528.75" x2="725.25" y1="136.5" y2="136.5"/><line style="stroke: #A80036; stroke-width: 2.25;" x1="528.75" x2="725.25" y1="148.5" y2="148.5"/><ellipse cx="543.75" cy="165" fill="#84BE84" rx="4.5" ry="4.5" style="stroke: #038048; stroke-width: 1.5;"/><text fill="#000000" font-family="sans-serif" font-size="16.5" font-style="italic" lengthAdjust="spacingAndGlyphs" textLength="91.5" x="557.25" y="170.4521">void open()</text><ellipse cx="543.75" cy="184.4326" fill="#84BE84" rx="4.5" ry="4.5" style="stroke: #038048; stroke-width: 1.5;"/><text fill="#000000" font-family="sans-serif" font-size="16.5" font-style="italic" lengthAdjust="spacingAndGlyphs" textLength="90" x="557.25" y="189.8848">void print()</text><ellipse cx="543.75" cy="203.8652" fill="#84BE84" rx="4.5" ry="4.5" style="stroke: #038048; stroke-width: 1.5;"/><text fill="#000000" font-family="sans-serif" font-size="16.5" font-style="italic" lengthAdjust="spacingAndGlyphs" textLength="93" x="557.25" y="209.3174">void close()</text><ellipse cx="543.75" cy="223.2979" fill="#84BE84" rx="4.5" ry="4.5" style="stroke: #038048; stroke-width: 1.5;"/><text fill="#000000" font-family="sans-serif" font-size="16.5" lengthAdjust="spacingAndGlyphs" textLength="147" x="557.25" y="228.75">final void display()</text><path d="M779.25,144.75 L779.25,157.5 L726.75,163.5 L779.25,169.5 L779.25,182.7158 A0,0 0 0 0 779.25,182.7158 L1155.75,182.7158 A0,0 0 0 0 1155.75,182.7158 L1155.75,159.75 L1140.75,144.75 L779.25,144.75 A0,0 0 0 0 779.25,144.75 " fill="#FBFB77" filter="url(#febzp6qq9bs8y)" style="stroke: #A80036; stroke-width: 1.5;"/><path d="M1140.75,144.75 L1140.75,159.75 L1155.75,159.75 L1140.75,144.75 " fill="#FBFB77" style="stroke: #A80036; stroke-width: 1.5;"/><text fill="#000000" font-family="sans-serif" font-size="19.5" lengthAdjust="spacingAndGlyphs" textLength="345" x="788.25" y="171.1025">메소드 display만 구현되고 있는 추상 클래스</text><!--MD5=[360d87837c5a007345ad1ce293d4f5d7]
class CharDisply--><rect fill="#FEFECE" filter="url(#febzp6qq9bs8y)" height="169.1631" id="CharDisply" style="stroke: #A80036; stroke-width: 2.25;" width="373.5" x="482.25" y="349.5"/><ellipse cx="504.75" cy="373.5" fill="#ADD1B2" rx="16.5" ry="16.5" style="stroke: #A80036; stroke-width: 1.5;"/><path d="M508.4597,382.7146 Q507.5881,383.1628 506.6294,383.387 Q505.6707,383.6111 504.6123,383.6111 Q500.8521,383.6111 498.8723,381.1333 Q496.8926,378.6555 496.8926,373.9739 Q496.8926,369.2798 498.8723,366.802 Q500.8521,364.3242 504.6123,364.3242 Q505.6707,364.3242 506.6418,364.5483 Q507.613,364.7725 508.4597,365.2207 L508.4597,369.3047 Q507.5134,368.4331 506.6232,368.0284 Q505.7329,367.6238 504.7866,367.6238 Q502.7695,367.6238 501.7423,369.2238 Q500.7151,370.8237 500.7151,373.9739 Q500.7151,377.1116 501.7423,378.7115 Q502.7695,380.3115 504.7866,380.3115 Q505.7329,380.3115 506.6232,379.9069 Q507.5134,379.5022 508.4597,378.6306 Z "/><ellipse cx="533.25" cy="372.75" fill="#84BE84" rx="4.5" ry="4.5" style="stroke: #038048; stroke-width: 1.5;"/><text fill="#000000" font-family="sans-serif" font-size="18" lengthAdjust="spacingAndGlyphs" textLength="93" x="542.25" y="380.3027">CharDisply</text><rect fill="#FFFFFF" height="24.1992" style="stroke: #000000; stroke-width: 1.5; stroke-dasharray: 2.0,2.0;" width="213" x="647.25" y="345"/><text fill="#000000" font-family="sans-serif" font-size="18" font-style="italic" lengthAdjust="spacingAndGlyphs" textLength="210" x="648.75" y="363.9023">extends AbstractDisplay</text><line style="stroke: #A80036; stroke-width: 2.25;" x1="483.75" x2="854.25" y1="397.5" y2="397.5"/><rect fill="none" height="9" style="stroke: #C82930; stroke-width: 1.5;" width="9" x="494.25" y="409.5"/><text fill="#000000" font-family="sans-serif" font-size="16.5" lengthAdjust="spacingAndGlyphs" textLength="60" x="512.25" y="419.4521">char ch</text><ellipse cx="498.75" cy="433.4326" fill="none" rx="4.5" ry="4.5" style="stroke: #038048; stroke-width: 1.5;"/><text fill="#000000" font-family="sans-serif" font-size="16.5" lengthAdjust="spacingAndGlyphs" textLength="160.5" x="512.25" y="438.8848">CharDisply(char ch)</text><line style="stroke: #A80036; stroke-width: 2.25;" x1="483.75" x2="854.25" y1="448.3652" y2="448.3652"/><ellipse cx="498.75" cy="464.8652" fill="#84BE84" rx="4.5" ry="4.5" style="stroke: #038048; stroke-width: 1.5;"/><text fill="#000000" font-family="sans-serif" font-size="16.5" lengthAdjust="spacingAndGlyphs" textLength="91.5" x="512.25" y="470.3174">void open()</text><ellipse cx="498.75" cy="484.2979" fill="#84BE84" rx="4.5" ry="4.5" style="stroke: #038048; stroke-width: 1.5;"/><text fill="#000000" font-family="sans-serif" font-size="16.5" lengthAdjust="spacingAndGlyphs" textLength="90" x="512.25" y="489.75">void print()</text><ellipse cx="498.75" cy="503.7305" fill="#84BE84" rx="4.5" ry="4.5" style="stroke: #038048; stroke-width: 1.5;"/><text fill="#000000" font-family="sans-serif" font-size="16.5" lengthAdjust="spacingAndGlyphs" textLength="93" x="512.25" y="509.1826">void close()</text><path d="M466.5,630 L466.5,667.9658 A0,0 0 0 0 466.5,667.9658 L901.5,667.9658 A0,0 0 0 0 901.5,667.9658 L901.5,645 L886.5,630 L688.77,630 L674.925,519.345 L676.77,630 L466.5,630 A0,0 0 0 0 466.5,630 " fill="#FBFB77" filter="url(#febzp6qq9bs8y)" style="stroke: #A80036; stroke-width: 1.5;"/><path d="M886.5,630 L886.5,645 L901.5,645 L886.5,630 " fill="#FBFB77" style="stroke: #A80036; stroke-width: 1.5;"/><text fill="#000000" font-family="sans-serif" font-size="19.5" lengthAdjust="spacingAndGlyphs" textLength="403.5" x="475.5" y="656.3525">메소드 open, print, close를 구현하고 있는 클래스</text><!--MD5=[6ea3f9993a4152d3819b9f7525c96813]
class StringDisplay--><rect fill="#FEFECE" filter="url(#febzp6qq9bs8y)" height="208.0283" id="StringDisplay" style="stroke: #A80036; stroke-width: 2.25;" width="391.5" x="941.25" y="330"/><ellipse cx="963.75" cy="354" fill="#ADD1B2" rx="16.5" ry="16.5" style="stroke: #A80036; stroke-width: 1.5;"/><path d="M967.4597,363.2146 Q966.5881,363.6628 965.6294,363.887 Q964.6707,364.1111 963.6123,364.1111 Q959.8521,364.1111 957.8723,361.6333 Q955.8926,359.1555 955.8926,354.4739 Q955.8926,349.7798 957.8723,347.302 Q959.8521,344.8242 963.6123,344.8242 Q964.6707,344.8242 965.6418,345.0483 Q966.613,345.2725 967.4597,345.7207 L967.4597,349.8047 Q966.5134,348.9331 965.6232,348.5284 Q964.7329,348.1238 963.7866,348.1238 Q961.7695,348.1238 960.7423,349.7238 Q959.7151,351.3237 959.7151,354.4739 Q959.7151,357.6116 960.7423,359.2115 Q961.7695,360.8115 963.7866,360.8115 Q964.7329,360.8115 965.6232,360.4069 Q966.5134,360.0022 967.4597,359.1306 Z "/><ellipse cx="992.25" cy="353.25" fill="#84BE84" rx="4.5" ry="4.5" style="stroke: #038048; stroke-width: 1.5;"/><text fill="#000000" font-family="sans-serif" font-size="18" lengthAdjust="spacingAndGlyphs" textLength="111" x="1001.25" y="360.8027">StringDisplay</text><rect fill="#FFFFFF" height="24.1992" style="stroke: #000000; stroke-width: 1.5; stroke-dasharray: 2.0,2.0;" width="213" x="1124.25" y="325.5"/><text fill="#000000" font-family="sans-serif" font-size="18" font-style="italic" lengthAdjust="spacingAndGlyphs" textLength="210" x="1125.75" y="344.4023">extends AbstractDisplay</text><line style="stroke: #A80036; stroke-width: 2.25;" x1="942.75" x2="1331.25" y1="378" y2="378"/><rect fill="none" height="9" style="stroke: #C82930; stroke-width: 1.5;" width="9" x="953.25" y="390"/><text fill="#000000" font-family="sans-serif" font-size="16.5" lengthAdjust="spacingAndGlyphs" textLength="100.5" x="971.25" y="399.9521">String string</text><rect fill="none" height="9" style="stroke: #C82930; stroke-width: 1.5;" width="9" x="953.25" y="409.4326"/><text fill="#000000" font-family="sans-serif" font-size="16.5" lengthAdjust="spacingAndGlyphs" textLength="69" x="971.25" y="419.3848">int width</text><ellipse cx="957.75" cy="433.3652" fill="none" rx="4.5" ry="4.5" style="stroke: #038048; stroke-width: 1.5;"/><text fill="#000000" font-family="sans-serif" font-size="16.5" lengthAdjust="spacingAndGlyphs" textLength="219" x="971.25" y="438.8174">StringDisplay(String string)</text><line style="stroke: #A80036; stroke-width: 2.25;" x1="942.75" x2="1331.25" y1="448.2979" y2="448.2979"/><ellipse cx="957.75" cy="464.7979" fill="#84BE84" rx="4.5" ry="4.5" style="stroke: #038048; stroke-width: 1.5;"/><text fill="#000000" font-family="sans-serif" font-size="16.5" lengthAdjust="spacingAndGlyphs" textLength="91.5" x="971.25" y="470.25">void open()</text><ellipse cx="957.75" cy="484.2305" fill="#84BE84" rx="4.5" ry="4.5" style="stroke: #038048; stroke-width: 1.5;"/><text fill="#000000" font-family="sans-serif" font-size="16.5" lengthAdjust="spacingAndGlyphs" textLength="90" x="971.25" y="489.6826">void print()</text><ellipse cx="957.75" cy="503.6631" fill="#84BE84" rx="4.5" ry="4.5" style="stroke: #038048; stroke-width: 1.5;"/><text fill="#000000" font-family="sans-serif" font-size="16.5" lengthAdjust="spacingAndGlyphs" textLength="93" x="971.25" y="509.1152">void close()</text><rect fill="#F24D5C" height="9" style="stroke: #C82930; stroke-width: 1.5;" width="9" x="953.25" y="518.5957"/><text fill="#000000" font-family="sans-serif" font-size="16.5" lengthAdjust="spacingAndGlyphs" textLength="123" x="971.25" y="528.5479">void printLine()</text><path d="M954,630 L954,667.9658 A0,0 0 0 0 954,667.9658 L1389,667.9658 A0,0 0 0 0 1389,667.9658 L1389,645 L1374,630 L1174.59,630 L1153.845,539.025 L1162.59,630 L954,630 A0,0 0 0 0 954,630 " fill="#FBFB77" filter="url(#febzp6qq9bs8y)" style="stroke: #A80036; stroke-width: 1.5;"/><path d="M1374,630 L1374,645 L1389,645 L1374,630 " fill="#FBFB77" style="stroke: #A80036; stroke-width: 1.5;"/><text fill="#000000" font-family="sans-serif" font-size="19.5" lengthAdjust="spacingAndGlyphs" textLength="403.5" x="963" y="656.3525">메소드 open, print, close를 구현하고 있는 클래스</text><!--MD5=[88439a1d9b3f78ee610b699884c9a093]
link Main to AbstractDisplay--><path d="M382.23,163.5 C417.765,163.5 471.24,163.5 519.15,163.5 " fill="none" id="Main-&gt;AbstractDisplay" style="stroke: #A80036; stroke-width: 1.5;"/><polygon fill="#A80036" points="526.785,163.5,513.285,157.5,519.285,163.5,513.285,169.5,526.785,163.5" style="stroke: #A80036; stroke-width: 1.5;"/><text fill="#000000" font-family="sans-serif" font-size="19.5" lengthAdjust="spacingAndGlyphs" textLength="45" x="422.25" y="188.3525">Uses</text><polygon fill="#000000" points="471.75,178.7329,480.75,183.2329,471.75,187.7329,471.75,178.7329" style="stroke: #000000; stroke-width: 1.5;"/><!--MD5=[c280008a3416cf6f4c51deae00afec87]
reverse link AbstractDisplay to CharDisply--><path d="M639.795,246.6 C644.895,279.105 650.76,316.5 655.89,349.2 " fill="none" id="AbstractDisplay&lt;-CharDisply" style="stroke: #A80036; stroke-width: 1.5;"/><polygon fill="#A80036" points="638.595,238.875,634.7485,253.1387,639.7515,246.2853,646.605,251.2883,638.595,238.875" style="stroke: #A80036; stroke-width: 1.5;"/><!--MD5=[49fd20e2039799d703a5001b02687543]
reverse link AbstractDisplay to StringDisplay--><path d="M733.635,227.805 C740.175,231.465 746.655,235.05 753,238.5 C813.54,271.44 880.32,305.85 940.965,336.42 " fill="none" id="AbstractDisplay&lt;-StringDisplay" style="stroke: #A80036; stroke-width: 1.5;"/><polygon fill="#A80036" points="727.11,224.115,735.9218,235.9726,733.6428,227.7991,741.8163,225.5201,727.11,224.115" style="stroke: #A80036; stroke-width: 1.5;"/><!--MD5=[0b949b5f0d43d48a58c186ecbcedc2d2]
@startuml Template_Method_Pattern
scale 1.5
allowmixing

package junit {
    rectangle Main
    note left of Main
        동작 테스트용 클래스
    end note
}

package design.template {
    +abstract class AbstractDisplay {
        +{abstract}void open()
        +{abstract}void print()
        +{abstract}void close()
        +final void display()
    }
    note right of AbstractDisplay
        메소드 display만 구현되고 있는 추상 클래스
    end note
    +class CharDisply <extends AbstractDisplay> {
        -char ch
        {field}+CharDisply(char ch)
        +void open()
        +void print()
        +void close()
    }
    note bottom of CharDisply
        메소드 open, print, close를 구현하고 있는 클래스
    end note
    +class StringDisplay <extends AbstractDisplay> {
        -String string
        -int width
        {field}+StringDisplay(String string)
        +void open()
        +void print()
        +void close()
        -void printLine()
    }
    note bottom of StringDisplay
        메소드 open, print, close를 구현하고 있는 클래스
    end note
}
Main -right-> AbstractDisplay : Uses >
CharDisply -up-> AbstractDisplay
StringDisplay  -up-> AbstractDisplay
@enduml

PlantUML version 1.2020.09(Sun May 10 19:51:06 KST 2020)
(GPL source distribution)
Java Runtime: OpenJDK Runtime Environment
JVM: OpenJDK 64-Bit Server VM
Java Version: 11.0.7+10-b765.64
Operating System: Mac OS X
Default Encoding: UTF-8
Language: ko
Country: KR
--></g></svg>