<?xml version="1.0" encoding="UTF-8" standalone="no"?><svg xmlns="http://www.w3.org/2000/svg" xmlns:xlink="http://www.w3.org/1999/xlink" contentScriptType="application/ecmascript" contentStyleType="text/css" height="907.5px" preserveAspectRatio="none" style="width:1672px;height:907px;" version="1.1" viewBox="0 0 1672 907" width="1672.5px" zoomAndPan="magnify"><defs><filter height="300%" id="fzqu8skguew33" width="300%" x="-1" y="-1"><feGaussianBlur result="blurOut" stdDeviation="3.0"/><feColorMatrix in="blurOut" result="blurOut2" type="matrix" values="0 0 0 0 0 0 0 0 0 0 0 0 0 0 0 0 0 0 .4 0"/><feOffset dx="6.0" dy="6.0" in="blurOut2" result="blurOut3"/><feBlend in="SourceGraphic" in2="blurOut3" mode="normal"/></filter></defs><g><!--MD5=[eb5e3004111929c3d70d0af9c8b444f2]
class HandInterfaceStrategy--><rect fill="#FEFECE" filter="url(#fzqu8skguew33)" height="120.2637" id="HandInterfaceStrategy" style="stroke: #A80036; stroke-width: 2.25;" width="255" x="1001.25" y="231.75"/><ellipse cx="1023.75" cy="260.4492" fill="#B4A7E5" rx="16.5" ry="16.5" style="stroke: #A80036; stroke-width: 1.5;"/><path d="M1018.3916,254.8469 L1018.3916,251.6096 L1029.4607,251.6096 L1029.4607,254.8469 L1025.7627,254.8469 L1025.7627,266.9619 L1029.4607,266.9619 L1029.4607,270.1992 L1018.3916,270.1992 L1018.3916,266.9619 L1022.0896,266.9619 L1022.0896,254.8469 Z "/><text fill="#000000" font-family="sans-serif" font-size="18" font-style="italic" lengthAdjust="spacingAndGlyphs" textLength="93" x="1101.75" y="256.6523">«interface»</text><ellipse cx="1052.25" cy="270.2988" fill="#84BE84" rx="4.5" ry="4.5" style="stroke: #038048; stroke-width: 1.5;"/><text fill="#000000" font-family="sans-serif" font-size="18" font-style="italic" lengthAdjust="spacingAndGlyphs" textLength="190.5" x="1061.25" y="277.8516">HandInterfaceStrategy</text><line style="stroke: #A80036; stroke-width: 2.25;" x1="1002.75" x2="1254.75" y1="289.1484" y2="289.1484"/><line style="stroke: #A80036; stroke-width: 2.25;" x1="1002.75" x2="1254.75" y1="301.1484" y2="301.1484"/><ellipse cx="1017.75" cy="317.6484" fill="#84BE84" rx="4.5" ry="4.5" style="stroke: #038048; stroke-width: 1.5;"/><text fill="#000000" font-family="sans-serif" font-size="16.5" font-style="italic" lengthAdjust="spacingAndGlyphs" textLength="202.5" x="1031.25" y="323.1006">HandStrategy nextHand()</text><ellipse cx="1017.75" cy="337.0811" fill="#84BE84" rx="4.5" ry="4.5" style="stroke: #038048; stroke-width: 1.5;"/><text fill="#000000" font-family="sans-serif" font-size="16.5" font-style="italic" lengthAdjust="spacingAndGlyphs" textLength="192" x="1031.25" y="342.5332">void study(boolean win)</text><path d="M955.5,12 L955.5,49.9658 A0,0 0 0 0 955.5,49.9658 L1122.75,49.9658 L1128.75,231.54 L1134.75,49.9658 L1302,49.9658 A0,0 0 0 0 1302,49.9658 L1302,27 L1287,12 L955.5,12 A0,0 0 0 0 955.5,12 " fill="#FBFB77" filter="url(#fzqu8skguew33)" style="stroke: #A80036; stroke-width: 1.5;"/><path d="M1287,12 L1287,27 L1302,27 L1287,12 " fill="#FBFB77" style="stroke: #A80036; stroke-width: 1.5;"/><text fill="#000000" font-family="sans-serif" font-size="19.5" lengthAdjust="spacingAndGlyphs" textLength="315" x="964.5" y="38.3525">가위바위보의 전략을 표시하는 인터페이스</text><!--MD5=[07e440abc75de34265e3627fdb4ab58f]
class HandStrategy--><rect fill="#FEFECE" filter="url(#fzqu8skguew33)" height="305.1914" id="HandStrategy" style="stroke: #A80036; stroke-width: 2.25;" width="367.5" x="9" y="139.5"/><ellipse cx="120.375" cy="163.5" fill="#ADD1B2" rx="16.5" ry="16.5" style="stroke: #A80036; stroke-width: 1.5;"/><path d="M124.0847,172.7146 Q123.2131,173.1628 122.2544,173.387 Q121.2957,173.6111 120.2373,173.6111 Q116.4771,173.6111 114.4973,171.1333 Q112.5176,168.6555 112.5176,163.9739 Q112.5176,159.2798 114.4973,156.802 Q116.4771,154.3242 120.2373,154.3242 Q121.2957,154.3242 122.2668,154.5483 Q123.238,154.7725 124.0847,155.2207 L124.0847,159.3047 Q123.1384,158.4331 122.2482,158.0284 Q121.3579,157.6238 120.4116,157.6238 Q118.3945,157.6238 117.3673,159.2238 Q116.3401,160.8237 116.3401,163.9739 Q116.3401,167.1116 117.3673,168.7115 Q118.3945,170.3115 120.4116,170.3115 Q121.3579,170.3115 122.2482,169.9069 Q123.1384,169.5022 124.0847,168.6306 Z "/><ellipse cx="158.625" cy="162.75" fill="#84BE84" rx="4.5" ry="4.5" style="stroke: #038048; stroke-width: 1.5;"/><text fill="#000000" font-family="sans-serif" font-size="18" lengthAdjust="spacingAndGlyphs" textLength="115.5" x="167.625" y="170.3027">HandStrategy</text><line style="stroke: #A80036; stroke-width: 2.25;" x1="10.5" x2="375" y1="187.5" y2="187.5"/><ellipse cx="25.5" cy="204" fill="none" rx="4.5" ry="4.5" style="stroke: #038048; stroke-width: 1.5;"/><text fill="#000000" font-family="sans-serif" font-size="16.5" lengthAdjust="spacingAndGlyphs" text-decoration="underline" textLength="210" x="39" y="209.4521">final int HANDVALUE_GUU</text><ellipse cx="25.5" cy="223.4326" fill="none" rx="4.5" ry="4.5" style="stroke: #038048; stroke-width: 1.5;"/><text fill="#000000" font-family="sans-serif" font-size="16.5" lengthAdjust="spacingAndGlyphs" text-decoration="underline" textLength="211.5" x="39" y="228.8848">final int HANDVALUE_CHO</text><ellipse cx="25.5" cy="242.8652" fill="none" rx="4.5" ry="4.5" style="stroke: #038048; stroke-width: 1.5;"/><text fill="#000000" font-family="sans-serif" font-size="16.5" lengthAdjust="spacingAndGlyphs" text-decoration="underline" textLength="207" x="39" y="248.3174">final int HANDVALUE_PAA</text><ellipse cx="25.5" cy="262.2979" fill="none" rx="4.5" ry="4.5" style="stroke: #038048; stroke-width: 1.5;"/><text fill="#000000" font-family="sans-serif" font-size="16.5" lengthAdjust="spacingAndGlyphs" text-decoration="underline" textLength="204" x="39" y="267.75">final HandStrategy[] hand</text><rect fill="none" height="9" style="stroke: #C82930; stroke-width: 1.5;" width="9" x="21" y="277.2305"/><text fill="#000000" font-family="sans-serif" font-size="16.5" lengthAdjust="spacingAndGlyphs" text-decoration="underline" textLength="147" x="39" y="287.1826">final String[] name</text><rect fill="none" height="9" style="stroke: #C82930; stroke-width: 1.5;" width="9" x="21" y="296.6631"/><text fill="#000000" font-family="sans-serif" font-size="16.5" lengthAdjust="spacingAndGlyphs" textLength="109.5" x="39" y="306.6152">int handValue</text><rect fill="none" height="9" style="stroke: #C82930; stroke-width: 1.5;" width="9" x="21" y="316.0957"/><text fill="#000000" font-family="sans-serif" font-size="16.5" lengthAdjust="spacingAndGlyphs" textLength="229.5" x="39" y="326.0479">HandStrategy(int handValue)</text><line style="stroke: #A80036; stroke-width: 2.25;" x1="10.5" x2="375" y1="335.5283" y2="335.5283"/><ellipse cx="25.5" cy="352.0283" fill="#84BE84" rx="4.5" ry="4.5" style="stroke: #038048; stroke-width: 1.5;"/><text fill="#000000" font-family="sans-serif" font-size="16.5" lengthAdjust="spacingAndGlyphs" text-decoration="underline" textLength="301.5" x="39" y="357.4805">HandStrategy getHand(int handValue)</text><ellipse cx="25.5" cy="371.4609" fill="#84BE84" rx="4.5" ry="4.5" style="stroke: #038048; stroke-width: 1.5;"/><text fill="#000000" font-family="sans-serif" font-size="16.5" lengthAdjust="spacingAndGlyphs" textLength="328.5" x="39" y="376.9131">boolean isStrongerThan(HandStrategy h)</text><ellipse cx="25.5" cy="390.8936" fill="#84BE84" rx="4.5" ry="4.5" style="stroke: #038048; stroke-width: 1.5;"/><text fill="#000000" font-family="sans-serif" font-size="16.5" lengthAdjust="spacingAndGlyphs" textLength="315" x="39" y="396.3457">boolean isWeakerThan(HandStrategy h)</text><rect fill="#F24D5C" height="9" style="stroke: #C82930; stroke-width: 1.5;" width="9" x="21" y="405.8262"/><text fill="#000000" font-family="sans-serif" font-size="16.5" lengthAdjust="spacingAndGlyphs" textLength="198" x="39" y="415.7783">int fight(HandStrategy h)</text><ellipse cx="25.5" cy="429.7588" fill="#84BE84" rx="4.5" ry="4.5" style="stroke: #038048; stroke-width: 1.5;"/><text fill="#000000" font-family="sans-serif" font-size="16.5" lengthAdjust="spacingAndGlyphs" textLength="129" x="39" y="435.2109">String toString()</text><path d="M44.25,12 L44.25,49.9658 A0,0 0 0 0 44.25,49.9658 L186.75,49.9658 L192.75,139.155 L198.75,49.9658 L341.25,49.9658 A0,0 0 0 0 341.25,49.9658 L341.25,27 L326.25,12 L44.25,12 A0,0 0 0 0 44.25,12 " fill="#FBFB77" filter="url(#fzqu8skguew33)" style="stroke: #A80036; stroke-width: 1.5;"/><path d="M326.25,12 L326.25,27 L341.25,27 L326.25,12 " fill="#FBFB77" style="stroke: #A80036; stroke-width: 1.5;"/><text fill="#000000" font-family="sans-serif" font-size="19.5" lengthAdjust="spacingAndGlyphs" textLength="265.5" x="53.25" y="38.3525">가위바위보의 손을 표시하는 클래스</text><!--MD5=[1be92e765e364cb30d42ab924c6e63ac]
class PlayerStrategy--><rect fill="#FEFECE" filter="url(#fzqu8skguew33)" height="285.7588" id="PlayerStrategy" style="stroke: #A80036; stroke-width: 2.25;" width="519" x="429.75" y="148.5"/><ellipse cx="613.875" cy="172.5" fill="#ADD1B2" rx="16.5" ry="16.5" style="stroke: #A80036; stroke-width: 1.5;"/><path d="M617.5847,181.7146 Q616.7131,182.1628 615.7544,182.387 Q614.7957,182.6111 613.7373,182.6111 Q609.9771,182.6111 607.9973,180.1333 Q606.0176,177.6555 606.0176,172.9739 Q606.0176,168.2798 607.9973,165.802 Q609.9771,163.3242 613.7373,163.3242 Q614.7957,163.3242 615.7668,163.5483 Q616.738,163.7725 617.5847,164.2207 L617.5847,168.3047 Q616.6384,167.4331 615.7482,167.0284 Q614.8579,166.6238 613.9116,166.6238 Q611.8945,166.6238 610.8673,168.2238 Q609.8401,169.8237 609.8401,172.9739 Q609.8401,176.1116 610.8673,177.7115 Q611.8945,179.3115 613.9116,179.3115 Q614.8579,179.3115 615.7482,178.9069 Q616.6384,178.5022 617.5847,177.6306 Z "/><ellipse cx="652.125" cy="171.75" fill="#84BE84" rx="4.5" ry="4.5" style="stroke: #038048; stroke-width: 1.5;"/><text fill="#000000" font-family="sans-serif" font-size="18" lengthAdjust="spacingAndGlyphs" textLength="121.5" x="661.125" y="179.3027">PlayerStrategy</text><line style="stroke: #A80036; stroke-width: 2.25;" x1="431.25" x2="947.25" y1="196.5" y2="196.5"/><rect fill="none" height="9" style="stroke: #C82930; stroke-width: 1.5;" width="9" x="441.75" y="208.5"/><text fill="#000000" font-family="sans-serif" font-size="16.5" lengthAdjust="spacingAndGlyphs" textLength="96" x="459.75" y="218.4521">String name</text><rect fill="none" height="9" style="stroke: #C82930; stroke-width: 1.5;" width="9" x="441.75" y="227.9326"/><text fill="#000000" font-family="sans-serif" font-size="16.5" lengthAdjust="spacingAndGlyphs" textLength="249" x="459.75" y="237.8848">HandInterfaceStrategy strategy</text><rect fill="none" height="9" style="stroke: #C82930; stroke-width: 1.5;" width="9" x="441.75" y="247.3652"/><text fill="#000000" font-family="sans-serif" font-size="16.5" lengthAdjust="spacingAndGlyphs" textLength="102" x="459.75" y="257.3174">int winCount</text><rect fill="none" height="9" style="stroke: #C82930; stroke-width: 1.5;" width="9" x="441.75" y="266.7979"/><text fill="#000000" font-family="sans-serif" font-size="16.5" lengthAdjust="spacingAndGlyphs" textLength="108" x="459.75" y="276.75">int loseCount</text><rect fill="none" height="9" style="stroke: #C82930; stroke-width: 1.5;" width="9" x="441.75" y="286.2305"/><text fill="#000000" font-family="sans-serif" font-size="16.5" lengthAdjust="spacingAndGlyphs" textLength="118.5" x="459.75" y="296.1826">int gameCount</text><ellipse cx="446.25" cy="310.1631" fill="none" rx="4.5" ry="4.5" style="stroke: #038048; stroke-width: 1.5;"/><text fill="#000000" font-family="sans-serif" font-size="16.5" lengthAdjust="spacingAndGlyphs" textLength="480" x="459.75" y="315.6152">PlayerStrategy(String name, HandInterfaceStrategy strategy)</text><line style="stroke: #A80036; stroke-width: 2.25;" x1="431.25" x2="947.25" y1="325.0957" y2="325.0957"/><ellipse cx="446.25" cy="341.5957" fill="#84BE84" rx="4.5" ry="4.5" style="stroke: #038048; stroke-width: 1.5;"/><text fill="#000000" font-family="sans-serif" font-size="16.5" lengthAdjust="spacingAndGlyphs" textLength="202.5" x="459.75" y="347.0479">HandStrategy nextHand()</text><ellipse cx="446.25" cy="361.0283" fill="#84BE84" rx="4.5" ry="4.5" style="stroke: #038048; stroke-width: 1.5;"/><text fill="#000000" font-family="sans-serif" font-size="16.5" lengthAdjust="spacingAndGlyphs" textLength="78" x="459.75" y="366.4805">void win()</text><ellipse cx="446.25" cy="380.4609" fill="#84BE84" rx="4.5" ry="4.5" style="stroke: #038048; stroke-width: 1.5;"/><text fill="#000000" font-family="sans-serif" font-size="16.5" lengthAdjust="spacingAndGlyphs" textLength="84" x="459.75" y="385.9131">void lose()</text><ellipse cx="446.25" cy="399.8936" fill="#84BE84" rx="4.5" ry="4.5" style="stroke: #038048; stroke-width: 1.5;"/><text fill="#000000" font-family="sans-serif" font-size="16.5" lengthAdjust="spacingAndGlyphs" textLength="88.5" x="459.75" y="405.3457">void even()</text><ellipse cx="446.25" cy="419.3262" fill="#84BE84" rx="4.5" ry="4.5" style="stroke: #038048; stroke-width: 1.5;"/><text fill="#000000" font-family="sans-serif" font-size="16.5" lengthAdjust="spacingAndGlyphs" textLength="129" x="459.75" y="424.7783">String toString()</text><path d="M496.5,12 L496.5,49.9658 A0,0 0 0 0 496.5,49.9658 L683.25,49.9658 L689.25,147.975 L695.25,49.9658 L882,49.9658 A0,0 0 0 0 882,49.9658 L882,27 L867,12 L496.5,12 A0,0 0 0 0 496.5,12 " fill="#FBFB77" filter="url(#fzqu8skguew33)" style="stroke: #A80036; stroke-width: 1.5;"/><path d="M867,12 L867,27 L882,27 L867,12 " fill="#FBFB77" style="stroke: #A80036; stroke-width: 1.5;"/><text fill="#000000" font-family="sans-serif" font-size="19.5" lengthAdjust="spacingAndGlyphs" textLength="354" x="505.5" y="38.3525">가위바위보를 하는 플레이어를 표시하는 클래스</text><!--MD5=[6525803a1b97376cd4a77567b0d6a65c]
class ProbStrategy--><rect fill="#FEFECE" filter="url(#fzqu8skguew33)" height="227.4609" id="ProbStrategy" style="stroke: #A80036; stroke-width: 2.25;" width="477" x="617.25" y="534"/><ellipse cx="639.75" cy="558" fill="#ADD1B2" rx="16.5" ry="16.5" style="stroke: #A80036; stroke-width: 1.5;"/><path d="M643.4597,567.2146 Q642.5881,567.6628 641.6294,567.887 Q640.6707,568.1111 639.6123,568.1111 Q635.8521,568.1111 633.8723,565.6333 Q631.8926,563.1555 631.8926,558.4739 Q631.8926,553.7798 633.8723,551.302 Q635.8521,548.8242 639.6123,548.8242 Q640.6707,548.8242 641.6418,549.0483 Q642.613,549.2725 643.4597,549.7207 L643.4597,553.8047 Q642.5134,552.9331 641.6232,552.5284 Q640.7329,552.1238 639.7866,552.1238 Q637.7695,552.1238 636.7423,553.7238 Q635.7151,555.3237 635.7151,558.4739 Q635.7151,561.6116 636.7423,563.2115 Q637.7695,564.8115 639.7866,564.8115 Q640.7329,564.8115 641.6232,564.4069 Q642.5134,564.0022 643.4597,563.1306 Z "/><ellipse cx="668.25" cy="557.25" fill="#84BE84" rx="4.5" ry="4.5" style="stroke: #038048; stroke-width: 1.5;"/><text fill="#000000" font-family="sans-serif" font-size="18" lengthAdjust="spacingAndGlyphs" textLength="109.5" x="677.25" y="564.8027">ProbStrategy</text><rect fill="#FFFFFF" height="24.1992" style="stroke: #000000; stroke-width: 1.5; stroke-dasharray: 2.0,2.0;" width="300" x="798.75" y="529.5"/><text fill="#000000" font-family="sans-serif" font-size="18" font-style="italic" lengthAdjust="spacingAndGlyphs" textLength="297" x="800.25" y="548.4023">implements HandInterfaceStrategy</text><line style="stroke: #A80036; stroke-width: 2.25;" x1="618.75" x2="1092.75" y1="582" y2="582"/><rect fill="none" height="9" style="stroke: #C82930; stroke-width: 1.5;" width="9" x="629.25" y="594"/><text fill="#000000" font-family="sans-serif" font-size="16.5" lengthAdjust="spacingAndGlyphs" textLength="138" x="647.25" y="603.9521">Random random;</text><rect fill="none" height="9" style="stroke: #C82930; stroke-width: 1.5;" width="9" x="629.25" y="613.4326"/><text fill="#000000" font-family="sans-serif" font-size="16.5" lengthAdjust="spacingAndGlyphs" textLength="147" x="647.25" y="623.3848">int prevHandValue</text><rect fill="none" height="9" style="stroke: #C82930; stroke-width: 1.5;" width="9" x="629.25" y="632.8652"/><text fill="#000000" font-family="sans-serif" font-size="16.5" lengthAdjust="spacingAndGlyphs" textLength="171" x="647.25" y="642.8174">int currentHandValue</text><rect fill="none" height="9" style="stroke: #C82930; stroke-width: 1.5;" width="9" x="629.25" y="652.2979"/><text fill="#000000" font-family="sans-serif" font-size="16.5" lengthAdjust="spacingAndGlyphs" textLength="106.5" x="647.25" y="662.25">int[][] history</text><ellipse cx="633.75" cy="676.2305" fill="none" rx="4.5" ry="4.5" style="stroke: #038048; stroke-width: 1.5;"/><text fill="#000000" font-family="sans-serif" font-size="16.5" lengthAdjust="spacingAndGlyphs" textLength="178.5" x="647.25" y="681.6826">ProbStrategy(int seed)</text><line style="stroke: #A80036; stroke-width: 2.25;" x1="618.75" x2="1092.75" y1="691.1631" y2="691.1631"/><ellipse cx="633.75" cy="707.6631" fill="#84BE84" rx="4.5" ry="4.5" style="stroke: #038048; stroke-width: 1.5;"/><text fill="#000000" font-family="sans-serif" font-size="16.5" lengthAdjust="spacingAndGlyphs" textLength="202.5" x="647.25" y="713.1152">HandStrategy nextHand()</text><ellipse cx="633.75" cy="727.0957" fill="#84BE84" rx="4.5" ry="4.5" style="stroke: #038048; stroke-width: 1.5;"/><text fill="#000000" font-family="sans-serif" font-size="16.5" lengthAdjust="spacingAndGlyphs" textLength="192" x="647.25" y="732.5479">void study(boolean win)</text><rect fill="#F24D5C" height="9" style="stroke: #C82930; stroke-width: 1.5;" width="9" x="629.25" y="742.0283"/><text fill="#000000" font-family="sans-serif" font-size="16.5" lengthAdjust="spacingAndGlyphs" textLength="142.5" x="647.25" y="751.9805">int getSum(int hv)</text><path d="M582,852 L582,889.9658 A0,0 0 0 0 582,889.9658 L1123.5,889.9658 A0,0 0 0 0 1123.5,889.9658 L1123.5,867 L1108.5,852 L858.99,852 L854.205,762.6 L846.99,852 L582,852 A0,0 0 0 0 582,852 " fill="#FBFB77" filter="url(#fzqu8skguew33)" style="stroke: #A80036; stroke-width: 1.5;"/><path d="M1108.5,852 L1108.5,867 L1123.5,867 L1108.5,852 " fill="#FBFB77" style="stroke: #A80036; stroke-width: 1.5;"/><text fill="#000000" font-family="sans-serif" font-size="19.5" lengthAdjust="spacingAndGlyphs" textLength="510" x="591" y="878.3525">직전 손에서 다음 손을 확률적으로 계산하는 전략을 표시하는 클래스</text><!--MD5=[bde17dd7644b6955134ddc777447e00b]
class WinningStrategy--><rect fill="#FEFECE" filter="url(#fzqu8skguew33)" height="188.5957" id="WinningStrategy" style="stroke: #A80036; stroke-width: 2.25;" width="502.5" x="1149" y="553.5"/><ellipse cx="1171.5" cy="577.5" fill="#ADD1B2" rx="16.5" ry="16.5" style="stroke: #A80036; stroke-width: 1.5;"/><path d="M1175.2097,586.7146 Q1174.3381,587.1628 1173.3794,587.387 Q1172.4207,587.6111 1171.3623,587.6111 Q1167.6021,587.6111 1165.6223,585.1333 Q1163.6426,582.6555 1163.6426,577.9739 Q1163.6426,573.2798 1165.6223,570.802 Q1167.6021,568.3242 1171.3623,568.3242 Q1172.4207,568.3242 1173.3918,568.5483 Q1174.363,568.7725 1175.2097,569.2207 L1175.2097,573.3047 Q1174.2634,572.4331 1173.3732,572.0284 Q1172.4829,571.6238 1171.5366,571.6238 Q1169.5195,571.6238 1168.4923,573.2238 Q1167.4651,574.8237 1167.4651,577.9739 Q1167.4651,581.1116 1168.4923,582.7115 Q1169.5195,584.3115 1171.5366,584.3115 Q1172.4829,584.3115 1173.3732,583.9069 Q1174.2634,583.5022 1175.2097,582.6306 Z "/><ellipse cx="1200" cy="576.75" fill="#84BE84" rx="4.5" ry="4.5" style="stroke: #038048; stroke-width: 1.5;"/><text fill="#000000" font-family="sans-serif" font-size="18" lengthAdjust="spacingAndGlyphs" textLength="135" x="1209" y="584.3027">WinningStrategy</text><rect fill="#FFFFFF" height="24.1992" style="stroke: #000000; stroke-width: 1.5; stroke-dasharray: 2.0,2.0;" width="300" x="1356" y="549"/><text fill="#000000" font-family="sans-serif" font-size="18" font-style="italic" lengthAdjust="spacingAndGlyphs" textLength="297" x="1357.5" y="567.9023">implements HandInterfaceStrategy</text><line style="stroke: #A80036; stroke-width: 2.25;" x1="1150.5" x2="1650" y1="601.5" y2="601.5"/><rect fill="none" height="9" style="stroke: #C82930; stroke-width: 1.5;" width="9" x="1161" y="613.5"/><text fill="#000000" font-family="sans-serif" font-size="16.5" lengthAdjust="spacingAndGlyphs" textLength="133.5" x="1179" y="623.4521">Random random</text><rect fill="none" height="9" style="stroke: #C82930; stroke-width: 1.5;" width="9" x="1161" y="632.9326"/><text fill="#000000" font-family="sans-serif" font-size="16.5" lengthAdjust="spacingAndGlyphs" textLength="102" x="1179" y="642.8848">boolean won</text><rect fill="none" height="9" style="stroke: #C82930; stroke-width: 1.5;" width="9" x="1161" y="652.3652"/><text fill="#000000" font-family="sans-serif" font-size="16.5" lengthAdjust="spacingAndGlyphs" textLength="190.5" x="1179" y="662.3174">HandStrategy prevHand</text><line style="stroke: #A80036; stroke-width: 2.25;" x1="1150.5" x2="1650" y1="671.7979" y2="671.7979"/><ellipse cx="1165.5" cy="688.2979" fill="#84BE84" rx="4.5" ry="4.5" style="stroke: #038048; stroke-width: 1.5;"/><text fill="#000000" font-family="sans-serif" font-size="16.5" lengthAdjust="spacingAndGlyphs" textLength="205.5" x="1179" y="693.75">WinningStrategy(int seed)</text><ellipse cx="1165.5" cy="707.7305" fill="#84BE84" rx="4.5" ry="4.5" style="stroke: #038048; stroke-width: 1.5;"/><text fill="#000000" font-family="sans-serif" font-size="16.5" lengthAdjust="spacingAndGlyphs" textLength="202.5" x="1179" y="713.1826">HandStrategy nextHand()</text><ellipse cx="1165.5" cy="727.1631" fill="#84BE84" rx="4.5" ry="4.5" style="stroke: #038048; stroke-width: 1.5;"/><text fill="#000000" font-family="sans-serif" font-size="16.5" lengthAdjust="spacingAndGlyphs" textLength="192" x="1179" y="732.6152">void study(boolean win)</text><path d="M1176.75,852 L1176.75,889.9658 A0,0 0 0 0 1176.75,889.9658 L1629.75,889.9658 A0,0 0 0 0 1629.75,889.9658 L1629.75,867 L1614.75,852 L1409.01,852 L1401.525,742.695 L1397.01,852 L1176.75,852 A0,0 0 0 0 1176.75,852 " fill="#FBFB77" filter="url(#fzqu8skguew33)" style="stroke: #A80036; stroke-width: 1.5;"/><path d="M1614.75,852 L1614.75,867 L1629.75,867 L1614.75,852 " fill="#FBFB77" style="stroke: #A80036; stroke-width: 1.5;"/><text fill="#000000" font-family="sans-serif" font-size="19.5" lengthAdjust="spacingAndGlyphs" textLength="421.5" x="1185.75" y="878.3525">이기면 다음에도 같은 손을 내는 전략을 표시하는 클래스</text><!--MD5=[9db9a94e8964d0a50fe3ed6723cba860]
link HandStrategy to PlayerStrategy--><path d="M376.515,291.75 C391.59,291.75 406.68,291.75 421.77,291.75 " fill="none" id="HandStrategy-&gt;PlayerStrategy" style="stroke: #A80036; stroke-width: 1.5;"/><polygon fill="#A80036" points="429.66,291.75,416.16,285.75,422.16,291.75,416.16,297.75,429.66,291.75" style="stroke: #A80036; stroke-width: 1.5;"/><!--MD5=[4f56486697e06d23c7bdf93c763e1bf1]
link PlayerStrategy to HandInterfaceStrategy--><path d="M966.915,291.75 C966.915,291.75 977.175,291.75 981.345,291.75 " fill="none" id="PlayerStrategy-HandInterfaceStrategy" style="stroke: #A80036; stroke-width: 1.5;"/><polygon fill="#A80036" points="1000.905,291.75,987.405,285.75,993.405,291.75,987.405,297.75,1000.905,291.75" style="stroke: #A80036; stroke-width: 1.5;"/><line style="stroke: #A80036; stroke-width: 1.5;" x1="993.405" x2="981.405" y1="291.75" y2="291.75"/><polygon fill="#FFFFFF" points="948.915,291.75,957.915,297.75,966.915,291.75,957.915,285.75,948.915,291.75" style="stroke: #A80036; stroke-width: 1.5;"/><!--MD5=[2eb4b8623c0b6ca2188dd7e7e7a4cdfc]
reverse link HandInterfaceStrategy to WinningStrategy--><path d="M1192.245,375.87 C1233.03,428.94 1286.1,497.97 1328.415,553.035 " fill="none" id="HandInterfaceStrategy&lt;-WinningStrategy" style="stroke: #A80036; stroke-width: 1.5; stroke-dasharray: 7.0,7.0;"/><polygon fill="none" points="1183.845,382.17,1173.885,351.975,1200.495,369.36,1183.845,382.17" style="stroke: #A80036; stroke-width: 1.5;"/><!--MD5=[257b802bf20f30d6d01241dad96074fe]
reverse link HandInterfaceStrategy to ProbStrategy--><path d="M1064.85,375.93 C1028.625,422.82 982.755,482.16 943.215,533.31 " fill="none" id="HandInterfaceStrategy&lt;-ProbStrategy" style="stroke: #A80036; stroke-width: 1.5; stroke-dasharray: 7.0,7.0;"/><polygon fill="none" points="1056.705,369.3,1083.36,351.975,1073.325,382.14,1056.705,369.3" style="stroke: #A80036; stroke-width: 1.5;"/><!--MD5=[5ea80cf4cd8e8a593edcf649420f1708]
@startuml Strategy_Pattern.puml
scale 1.5
allowmixing


+interface HandInterfaceStrategy <<interface>> {
    +{abstract} HandStrategy nextHand()
    +{abstract} void study(boolean win)
}
note top of HandInterfaceStrategy
    가위바위보의 전략을 표시하는 인터페이스
end note

+class HandStrategy {
    +{static}final int HANDVALUE_GUU
    +{static}final int HANDVALUE_CHO
    +{static}final int HANDVALUE_PAA
    +{static}final HandStrategy[] hand 
    -{static} final String[] name
    - int handValue
    {field} - HandStrategy(int handValue)
    +{static} HandStrategy getHand(int handValue)
    +boolean isStrongerThan(HandStrategy h)
    +boolean isWeakerThan(HandStrategy h)
    -int fight(HandStrategy h)
    +String toString()
}
note top of HandStrategy
    가위바위보의 손을 표시하는 클래스
end note

+class PlayerStrategy {
    -String name
    -HandInterfaceStrategy strategy
    -int winCount
    -int loseCount
    -int gameCount
    {field}+PlayerStrategy(String name, HandInterfaceStrategy strategy)
    +HandStrategy nextHand()
    +void win()
    +void lose()
    +void even()
    +String toString()
}
note top of PlayerStrategy
    가위바위보를 하는 플레이어를 표시하는 클래스
end note

+class ProbStrategy <implements HandInterfaceStrategy> {
    -Random random;
    -int prevHandValue
    -int currentHandValue
    -int[][] history
    {field}+ProbStrategy(int seed)
    +HandStrategy nextHand()
    +void study(boolean win)
    -int getSum(int hv)
}
note bottom of ProbStrategy
    직전 손에서 다음 손을 확률적으로 계산하는 전략을 표시하는 클래스
end note

+class WinningStrategy <implements HandInterfaceStrategy> {
    -Random random
    -boolean won
    - {field}HandStrategy prevHand
    +WinningStrategy(int seed)
    +HandStrategy nextHand()
    +void study(boolean win)
}
note bottom of WinningStrategy
    이기면 다음에도 같은 손을 내는 전략을 표시하는 클래스
end note

HandStrategy -right-> PlayerStrategy
PlayerStrategy o-right-> HandInterfaceStrategy
WinningStrategy .up.|> HandInterfaceStrategy
ProbStrategy .up.|> HandInterfaceStrategy
@enduml

PlantUML version 1.2020.09(Sun May 10 19:51:06 KST 2020)
(GPL source distribution)
Java Runtime: OpenJDK Runtime Environment
JVM: OpenJDK 64-Bit Server VM
Java Version: 11.0.7+10-b944.20
Operating System: Mac OS X
Default Encoding: UTF-8
Language: ko
Country: KR
--></g></svg>